<?xml version="1.0" encoding="UTF-8" standalone="no"?>
<svg
   xmlns:dc="http://purl.org/dc/elements/1.1/"
   xmlns:cc="http://creativecommons.org/ns#"
   xmlns:rdf="http://www.w3.org/1999/02/22-rdf-syntax-ns#"
   xmlns:svg="http://www.w3.org/2000/svg"
   xmlns="http://www.w3.org/2000/svg"
   xmlns:sodipodi="http://sodipodi.sourceforge.net/DTD/sodipodi-0.dtd"
   xmlns:inkscape="http://www.inkscape.org/namespaces/inkscape"
   version="1.1"
   id="Layer_1"
   x="0px"
   y="0px"
   width="2500"
   height="1000"
   viewBox="0 0 2500 1000"
   enable-background="new 0 0 1000 1000"
   xml:space="preserve"
   sodipodi:docname="banner-dark.svg"
   inkscape:version="1.0.1 (3bc2e813f5, 2020-09-07)"><metadata
   id="metadata30"><rdf:RDF><cc:Work
       rdf:about=""><dc:format>image/svg+xml</dc:format><dc:type
         rdf:resource="http://purl.org/dc/dcmitype/StillImage" /><dc:title></dc:title></cc:Work></rdf:RDF></metadata><defs
   id="defs28"><rect
     x="990.41016"
     y="221.11482"
     width="1248.3774"
     height="502.1149"
     id="rect34" /><rect
     x="990.41016"
     y="221.11482"
     width="1248.3774"
     height="502.1149"
     id="rect34-5" /><rect
     x="990.41016"
     y="221.11482"
     width="1248.3774"
     height="502.1149"
     id="rect47" /><rect
     x="990.41016"
     y="221.11482"
     width="1248.3774"
     height="502.1149"
     id="rect34-6" /><rect
     x="990.41016"
     y="221.11482"
     width="1248.3774"
     height="502.1149"
     id="rect76" /></defs><sodipodi:namedview
   pagecolor="#ffffff"
   bordercolor="#666666"
   borderopacity="1"
   objecttolerance="10"
   gridtolerance="10"
   guidetolerance="10"
   inkscape:pageopacity="0"
   inkscape:pageshadow="2"
   inkscape:window-width="1366"
   inkscape:window-height="745"
   id="namedview26"
   showgrid="false"
   inkscape:zoom="0.1535"
   inkscape:cx="883.76107"
   inkscape:cy="340.12275"
   inkscape:window-x="-8"
   inkscape:window-y="-8"
   inkscape:window-maximized="1"
   inkscape:current-layer="Layer_1"
   inkscape:document-rotation="0" />

<text
   xml:space="preserve"
   id="text32-1"
   style="font-size:192px;line-height:1.25;font-family:'Microsoft Sans Serif';-inkscape-font-specification:'Microsoft Sans Serif';letter-spacing:0px;word-spacing:0px;white-space:pre;shape-inside:url(#rect34-5);"
   transform="translate(1.2886248,209.2552)" /><g
   id="g151"
   transform="matrix(1.0179107,0,0,1.0179107,102.36137,121.72365)"
   style="fill:#b3b3b3"><g
     aria-label="Knotters"
     transform="translate(-3.6581983,-60.044092)"
     id="text32"
     style="font-size:192px;line-height:1.25;font-family:'Microsoft Sans Serif';-inkscape-font-specification:'Microsoft Sans Serif';letter-spacing:0px;word-spacing:0px;white-space:pre;shape-inside:url(#rect34);fill:#b3b3b3" /><g
     aria-label="Community"
     transform="translate(2.8698017,155.25191)"
     id="text32-7"
     style="font-size:192px;line-height:1.25;font-family:'Microsoft Sans Serif';-inkscape-font-specification:'Microsoft Sans Serif';letter-spacing:0px;word-spacing:0px;white-space:pre;shape-inside:url(#rect34-6);fill:#b3b3b3"><path
       id="path235"
       style="font-style:normal;font-variant:normal;font-weight:600;font-stretch:normal;font-size:192px;font-family:Poppins;-inkscape-font-specification:'Poppins Semi-Bold';fill:#b3b3b3"
       d="m 2159.4966,287.69208 -65.856,156.672 h -28.608 l 23.04,-52.992 -42.624,-103.68 h 30.144 l 27.456,74.304 27.84,-74.304 z m -144.9597,22.08 v 51.456 q 0,5.376 2.496,7.872 2.688,2.304 8.832,2.304 h 12.48 v 22.656 h -16.896 q -33.984,0 -33.984,-33.024 v -51.264 h -12.672 v -22.08 h 12.672 v -26.304 h 27.072 v 26.304 h 23.808 v 22.08 z m -71.04,-34.752 q -7.104,0 -11.904,-4.416 -4.608,-4.608 -4.608,-11.328 0,-6.72 4.608,-11.136 4.8,-4.608 11.904,-4.608 7.104,0 11.712,4.608 4.8,4.416 4.8,11.136 0,6.72 -4.8,11.328 -4.608,4.416 -11.712,4.416 z m 13.248,12.672 v 106.368 h -26.88 v -106.368 z m -94.8478,-1.536 q 19.008,0 30.72,12.096 11.712,11.904 11.712,33.408 v 62.4 h -26.88 v -58.752 q 0,-12.672 -6.336,-19.392 -6.336,-6.912 -17.28,-6.912 -11.136,0 -17.664,6.912 -6.336,6.72 -6.336,19.392 v 58.752 h -26.88 v -106.368 h 26.88 v 13.248 q 5.376,-6.912 13.632,-10.752 8.448,-4.032 18.432,-4.032 z m -85.4399,1.536 v 106.368 h -27.072 v -13.44 q -5.184,6.912 -13.632,10.944 -8.256,3.84 -18.048,3.84 -12.48,0 -22.08,-5.184 -9.6,-5.376 -15.168,-15.552 -5.376,-10.368 -5.376,-24.576 v -62.4 h 26.88 v 58.56 q 0,12.672 6.336,19.584 6.336,6.72 17.28,6.72 11.136,0 17.472,-6.72 6.336,-6.912 6.336,-19.584 v -58.56 z m -169.5357,-1.536 q 19.584,0 31.488,12.096 12.096,11.904 12.096,33.408 v 62.4 h -26.88 v -58.752 q 0,-12.48 -6.336,-19.008 -6.336,-6.72 -17.28,-6.72 -10.944,0 -17.472,6.72 -6.336,6.528 -6.336,19.008 v 58.752 h -26.88 v -58.752 q 0,-12.48 -6.336,-19.008 -6.336,-6.72 -17.28,-6.72 -11.136,0 -17.664,6.72 -6.336,6.528 -6.336,19.008 v 58.752 h -26.88 v -106.368 h 26.88 v 12.864 q 5.184,-6.72 13.248,-10.56 8.256,-3.84 18.048,-3.84 12.48,0 22.272,5.376 9.792,5.184 15.168,14.976 5.184,-9.216 14.976,-14.784 9.984,-5.568 21.504,-5.568 z m -201.2157,0 q 19.584,0 31.488,12.096 12.096,11.904 12.096,33.408 v 62.4 h -26.88 v -58.752 q 0,-12.48 -6.336,-19.008 -6.336,-6.72 -17.28,-6.72 -10.944,0 -17.472,6.72 -6.336,6.528 -6.336,19.008 v 58.752 h -26.88 v -58.752 q 0,-12.48 -6.336,-19.008 -6.336,-6.72 -17.28,-6.72 -11.136,0 -17.664,6.72 -6.336,6.528 -6.336,19.008 v 58.752 h -26.88 v -106.368 h 26.88 v 12.864 q 5.184,-6.72 13.248,-10.56 8.256,-3.84 18.048,-3.84 12.48,0 22.272,5.376 9.792,5.184 15.168,14.976 5.184,-9.216 14.976,-14.784 9.984,-5.568 21.504,-5.568 z m -207.3597,109.632 q -15.36,0 -27.648,-6.72 -12.288,-6.912 -19.392,-19.392 -6.912,-12.48 -6.912,-28.8 0,-16.32 7.104,-28.8 7.296,-12.48 19.776,-19.2 12.48,-6.912 27.84,-6.912 15.36,0 27.84,6.912 12.48,6.72 19.584,19.2 7.296,12.48 7.296,28.8 0,16.32 -7.488,28.8 -7.296,12.48 -19.968,19.392 -12.48,6.72 -28.032,6.72 z m 0,-23.424 q 7.296,0 13.632,-3.456 6.528,-3.648 10.368,-10.752 3.84,-7.104 3.84,-17.28 0,-15.168 -8.064,-23.232 -7.872,-8.256 -19.392,-8.256 -11.52,0 -19.392,8.256 -7.68,8.064 -7.68,23.232 0,15.168 7.488,23.424 7.68,8.064 19.2,8.064 z m -201.21594,-45.504 q 0,-19.776 8.83204,-35.328 9.024,-15.744 24.384,-24.384 15.552,-8.832 34.752,-8.832 22.464,0 39.36,11.52 16.896,11.52 23.616,31.872 h -30.912 q -4.608,-9.6 -13.056,-14.4 -8.256,-4.8 -19.2,-4.8 -11.712,0 -20.928,5.568 -9.024,5.376 -14.208,15.36 -4.992,9.984 -4.992,23.424 0,13.248 4.992,23.424 5.184,9.984 14.208,15.552 9.216,5.376 20.928,5.376 10.944,0 19.2,-4.8 8.448,-4.992 13.056,-14.592 h 30.912 q -6.72,20.544 -23.616,32.064 -16.704,11.328 -39.36,11.328 -19.2,0 -34.752,-8.64 -15.36,-8.832 -24.384,-24.384 -8.83204,-15.552 -8.83204,-35.328 z m 762.43034,-146.368 q -13.056,0 -23.424,-4.608 -10.368,-4.8 -16.512,-12.864 -5.952,-8.064 -6.528,-17.856 h 27.072 q 0.768,6.144 5.952,10.176 5.376,4.032 13.248,4.032 7.68,0 11.904,-3.072 4.416,-3.072 4.416,-7.872 0,-5.184 -5.376,-7.68 -5.184,-2.688 -16.704,-5.76 -11.904,-2.88 -19.584,-5.952 -7.488,-3.072 -13.056,-9.408 -5.376,-6.336 -5.376,-17.088 0,-8.832002 4.992,-16.128002 5.184,-7.296 14.592,-11.52 9.6,-4.224 22.464,-4.224 19.008,0 30.336,9.6 11.328,9.408 12.48,25.536002 h -25.728 q -0.576,-6.336002 -5.376,-9.984002 -4.608,-3.84 -12.48,-3.84 -7.296,0 -11.328,2.688 -3.84,2.688 -3.84,7.488002 0,5.376 5.376,8.256 5.376,2.688 16.704,5.568 11.52,2.88 19.008,5.952 7.488,3.072 12.864,9.6 5.568,6.336 5.76,16.896 0,9.216 -5.184,16.512 -4.992,7.296 -14.592,11.52 -9.408,4.032 -22.08,4.032 z m -91.3919,-91.584002 q 5.184,-8.448 13.44,-13.248 8.448,-4.8 19.2,-4.8 v 28.224 h -7.104 q -12.672,0 -19.2,5.952002 -6.336,5.952 -6.336,20.736 v 52.992 h -26.88 V 72.396078 h 26.88 z m -46.4637,34.368002 q 0,5.76 -0.768,10.368 h -77.76 q 0.96,11.52 8.064,18.048 7.104,6.528 17.472,6.528 14.976,0 21.312,-12.864 h 28.992 q -4.608,15.36 -17.664,25.344 -13.056,9.792 -32.064,9.792 -15.36,0 -27.648,-6.72 -12.096,-6.912 -19.008,-19.392 -6.72,-12.48 -6.72,-28.8 0,-16.512 6.72,-28.992002 6.72,-12.48 18.816,-19.2 12.096,-6.72 27.84,-6.72 15.168,0 27.072,6.528 12.096,6.528 18.624,18.624 6.72,11.904002 6.72,27.456002 z m -27.84,-7.68 q -0.192,-10.368 -7.488,-16.512002 -7.296,-6.336 -17.856,-6.336 -9.984,0 -16.896,6.144 -6.72,5.952002 -8.256,16.704002 z M 1479.6251,94.476078 v 51.456002 q 0,5.376 2.496,7.872 2.688,2.304 8.832,2.304 h 12.48 v 22.656 h -16.896 q -33.984,0 -33.984,-33.024 V 94.476078 h -12.672 v -22.08 h 12.672 v -26.304 h 27.072 v 26.304 h 23.808 v 22.08 z m -74.4957,0 v 51.456002 q 0,5.376 2.496,7.872 2.688,2.304 8.832,2.304 h 12.48 v 22.656 h -16.896 q -33.984,0 -33.984,-33.024 V 94.476078 h -12.672 v -22.08 h 12.672 v -26.304 h 27.072 v 26.304 h 23.808 v 22.08 z m -106.5597,86.016002 q -15.36,0 -27.648,-6.72 -12.288,-6.912 -19.392,-19.392 -6.912,-12.48 -6.912,-28.8 0,-16.32 7.104,-28.800002 7.296,-12.48 19.776,-19.2 12.48,-6.912 27.84,-6.912 15.36,0 27.84,6.912 12.48,6.72 19.584,19.2 7.296,12.480002 7.296,28.800002 0,16.32 -7.488,28.8 -7.296,12.48 -19.968,19.392 -12.48,6.72 -28.032,6.72 z m 0,-23.424 q 7.296,0 13.632,-3.456 6.528,-3.648 10.368,-10.752 3.84,-7.104 3.84,-17.28 0,-15.168 -8.064,-23.232 -7.872,-8.256002 -19.392,-8.256002 -11.52,0 -19.392,8.256002 -7.68,8.064 -7.68,23.232 0,15.168 7.488,23.424 7.68,8.064 19.2,8.064 z M 1183.3698,70.860078 q 19.008,0 30.72,12.096 11.712,11.904 11.712,33.408002 v 62.4 h -26.88 v -58.752 q 0,-12.672 -6.336,-19.392 -6.336,-6.912002 -17.28,-6.912002 -11.136,0 -17.664,6.912002 -6.336,6.72 -6.336,19.392 v 58.752 h -26.88 V 72.396078 h 26.88 v 13.248 q 5.376,-6.912 13.632,-10.752 8.448,-4.032 18.432,-4.032 z m -110.5916,107.904002 -48.768,-59.712 v 59.712 h -26.88 V 44.748078 h 26.88 v 60.096002 l 48.768,-60.096002 h 32.448 l -55.296,66.432002 56.832,67.584 z" /></g></g><rect
   style="opacity:0.0836735;fill:#f2f2f2;stroke:#ffffff;stroke-width:0;stroke-dashoffset:24.1308;stroke-opacity:0;paint-order:markers stroke fill"
   id="rect1172"
   width="40"
   height="500"
   x="956"
   y="250"
   ry="17.120697" /><g
   id="g899"
   transform="matrix(3.7500001,0,0,3.7500001,192.5,132.5)"><path
     id="path24-4"
     fill="#f5d702"
     d="m 124.7625,91.273072 c 0,0 -31.670882,6.644044 -47.29837,-11.127439 0,0 -4.350769,-6.081582 -9.349146,-15.762799 -5.003038,-9.680613 -8.510785,-14.660698 -13.502205,-16.897957 -5.003142,-2.256356 -9.149623,-7.120196 2.648542,-7.279034 0,0 9.997015,-1.084899 17.651265,10.619627 4.89169,7.225655 10.521867,22.379703 13.279755,11.990098 0,0 0.325669,-11.207779 -10.250982,-19.015351 C 67.358214,36.012223 54.554621,32.300914 43.176055,29.287206 31.806004,26.274018 29.352205,23.585975 27.917105,22.911308 26.489752,22.221591 21.864302,16.50392 32.702024,18.37384 c 0,0 12.756991,3.391611 26.043283,4.229413 13.280627,0.828961 36.509107,3.991883 50.810103,29.130435 9.41961,17.911741 14.99614,25.329755 24.55142,27.410709 0,0 12.13121,3.515111 23.59019,-11.465771 2.9e-4,-0.0013 -3.43043,15.768596 -32.93452,23.594446 z"
     style="fill:#de9846;fill-opacity:1;stroke-width:0.301821" /><path
     id="path26-3"
     fill="#12e49d"
     d="m 61.002171,132.31286 c 0,0 10.122689,-29.18309 34.419,-33.295885 0,0 7.800759,-0.609234 19.222079,0.02479 11.4255,0.630512 17.77123,0.182153 22.38648,-2.812507 4.62104,-2.987672 11.20542,-4.017447 5.30064,5.730872 0,0 -4.1172,8.69962 -18.76328,9.26751 -9.12135,0.48109 -25.871893,-2.31258 -17.77366,5.03575 0,0 10.1071,5.73 22.67245,0.87517 12.55719,-4.86454 22.50245,-13.53554 31.05955,-21.389732 8.59375,-7.834585 12.30618,-8.52823 13.66612,-9.378356 1.36649,-0.835753 8.97573,-1.833543 1.71055,6.130144 0,0 -9.65249,8.799464 -17.20485,19.262354 -7.55134,10.47474 -22.34186,27.95991 -52.69192,27.40607 -21.22502,-1.04954 -30.871091,-0.0808 -37.677751,6.73822 0,0 -9.415394,8.19965 -1.573086,24.91346 0.0046,0.005 -12.670045,-10.52177 -4.752322,-38.50786 z"
     style="fill:#4dbb96;fill-opacity:1;stroke-width:0.301821" /><path
     id="path28-1"
     fill="#1657ce"
     d="m 56.075449,60.037833 c 0,0 21.552871,22.539651 12.896102,44.424437 0,0 -3.438316,6.68415 -9.865922,15.73195 -6.427215,9.04921 -9.278663,14.47902 -8.898705,19.71997 0.388305,5.23271 -2.052284,11.13521 -7.949092,1.54268 0,0 -5.868054,-7.62111 1.107049,-19.89464 4.235089,-7.69178 15.3592,-20.06072 4.492582,-17.01551 0,0 -10.417627,5.47901 -12.40378,18.1541 -1.9792,12.64902 0.884596,25.02081 3.667993,35.88494 2.797281,10.85264 1.527829,14.23592 1.605523,15.75126 0.06908,1.53426 -2.905765,8.2471 -6.490787,-1.58388 0,0 -3.115467,-12.18884 -8.830796,-23.50375 -5.73206,-11.30208 -14.171876,-31.94059 1.870943,-56.517613 11.813397,-16.88338 15.880513,-25.242773 13.12189,-34.155671 0,0 -2.701814,-11.71536 -22.019945,-13.453316 0.005,0.0066 16.142739,-5.23019 37.696945,14.915043 z"
     style="fill:#7796d0;fill-opacity:1;stroke-width:0.301821" /></g></svg>
