<?xml version="1.0" encoding="UTF-8" standalone="no"?>
<svg
   xmlns:dc="http://purl.org/dc/elements/1.1/"
   xmlns:cc="http://creativecommons.org/ns#"
   xmlns:rdf="http://www.w3.org/1999/02/22-rdf-syntax-ns#"
   xmlns:svg="http://www.w3.org/2000/svg"
   xmlns="http://www.w3.org/2000/svg"
   xmlns:sodipodi="http://sodipodi.sourceforge.net/DTD/sodipodi-0.dtd"
   xmlns:inkscape="http://www.inkscape.org/namespaces/inkscape"
   version="1.1"
   id="Layer_1"
   x="0px"
   y="0px"
   width="200"
   height="200"
   viewBox="0 0 200 200"
   enable-background="new 0 0 1000 1000"
   xml:space="preserve"
   sodipodi:docname="icon-dark-square.svg"
   inkscape:version="1.0.1 (3bc2e813f5, 2020-09-07)"><metadata
   id="metadata30"><rdf:RDF><cc:Work
       rdf:about=""><dc:format>image/svg+xml</dc:format><dc:type
         rdf:resource="http://purl.org/dc/dcmitype/StillImage" /><dc:title></dc:title></cc:Work></rdf:RDF></metadata><defs
   id="defs28">
	
	

		
	
			
		
				
			
					
				
						
						
						
					</defs><sodipodi:namedview
   pagecolor="#ffffff"
   bordercolor="#666666"
   borderopacity="1"
   objecttolerance="10"
   gridtolerance="10"
   guidetolerance="10"
   inkscape:pageopacity="0"
   inkscape:pageshadow="2"
   inkscape:window-width="1366"
   inkscape:window-height="745"
   id="namedview26"
   showgrid="false"
   inkscape:zoom="1.7366543"
   inkscape:cx="67.0323"
   inkscape:cy="102.82038"
   inkscape:window-x="-8"
   inkscape:window-y="-8"
   inkscape:window-maximized="1"
   inkscape:current-layer="Layer_1"
   inkscape:document-rotation="0" />
<g
   id="g888"><path
     id="rect879"
     style="fill:#000000;stroke:#f6f6f6;stroke-width:0;stroke-dashoffset:24.1308;paint-order:markers stroke fill"
     d="M 4.1204609e-7,3.6638278e-7 H 200 V 200 H 4.1204609e-7 Z" /><g
     id="g860"><path
       id="path24"
       style="fill:#de9846;fill-opacity:1;stroke-width:0.226366"
       d="m 120.07188,94.954805 c 0,0 -23.753166,4.983033 -35.473782,-8.345579 0,0 -3.263077,-4.561187 -7.011859,-11.8221 -3.752279,-7.26046 -6.383089,-10.995524 -10.126654,-12.673468 -3.752357,-1.692267 -6.862218,-5.340147 1.986406,-5.459275 0,0 7.497762,-0.813675 13.238449,7.96472 3.668768,5.419241 7.891401,16.784777 9.959817,8.992574 0,0 0.244251,-8.405835 -7.688237,-14.261514 C 77.018661,53.509168 67.415966,50.725686 58.882042,48.465405 50.354503,46.205514 48.514154,44.189481 47.437829,43.683481 46.367314,43.166193 42.898227,38.87794 51.026518,40.28038 c 0,0 9.567744,2.543708 19.532463,3.17206 9.96047,0.621721 27.38183,2.993912 38.107579,21.847827 7.06471,13.433805 11.2471,18.997316 18.41356,20.558032 0,0 9.09841,2.636333 17.69265,-8.599329 2.1e-4,-9.75e-4 -2.57283,11.826447 -24.70089,17.695835 z" /><path
       id="path26"
       style="fill:#4dbb96;fill-opacity:1;stroke-width:0.226366"
       d="m 72.251629,125.73465 c 0,0 7.592017,-21.88732 25.81425,-24.97192 0,0 5.850571,-0.45692 14.416561,0.0186 8.56912,0.47289 13.32842,0.13662 16.78986,-2.109376 3.46578,-2.240754 8.40406,-3.013085 3.97548,4.298156 0,0 -3.0879,6.52471 -14.07246,6.95063 -6.84101,0.36082 -19.403921,-1.73443 -13.33025,3.77681 0,0 7.58033,4.2975 17.00434,0.65638 9.41789,-3.6484 16.87684,-10.15165 23.29466,-16.042298 6.44532,-5.875939 9.22964,-6.396173 10.24959,-7.033767 1.02487,-0.626815 6.7318,-1.375157 1.28292,4.597608 0,0 -7.23937,6.599597 -12.90364,14.446767 -5.66351,7.85605 -16.7564,20.96993 -39.51894,20.55455 -15.918767,-0.78715 -23.15332,-0.0606 -28.258315,5.05367 0,0 -7.061546,6.14973 -1.179815,18.68509 0.0035,0.004 -9.502533,-7.89133 -3.564241,-28.88089 z" /><path
       id="path28"
       style="fill:#7796d0;fill-opacity:1;stroke-width:0.226366"
       d="m 68.556587,71.528375 c 0,0 16.164654,16.904739 9.672077,33.318325 0,0 -2.578737,5.01312 -7.399442,11.79897 -4.820411,6.7869 -6.958997,10.85926 -6.674028,14.78997 0.291228,3.92454 -1.539214,8.35141 -5.96182,1.15701 0,0 -4.40104,-5.71583 0.830287,-14.92098 3.176317,-5.76883 11.5194,-15.04554 3.369437,-12.76163 0,0 -7.813221,4.10926 -9.302835,13.61558 -1.4844,9.48676 0.663447,18.7656 2.750994,26.9137 2.097961,8.13948 1.145872,10.67694 1.204143,11.81345 0.05181,1.15069 -2.179324,6.18532 -4.868091,-1.18791 0,0 -2.3366,-9.14163 -6.623097,-17.62782 -4.299045,-8.47656 -10.628907,-23.95544 1.403208,-42.388206 8.860047,-12.662535 11.910384,-18.93208 9.841417,-25.616754 0,0 -2.02636,-8.78652 -16.514959,-10.089987 0.0037,0.005 12.107055,-3.922643 28.272709,11.186282 z" /></g></g>
</svg>
