<?xml version="1.0" encoding="UTF-8" standalone="no"?>
<svg
   xmlns:dc="http://purl.org/dc/elements/1.1/"
   xmlns:cc="http://creativecommons.org/ns#"
   xmlns:rdf="http://www.w3.org/1999/02/22-rdf-syntax-ns#"
   xmlns:svg="http://www.w3.org/2000/svg"
   xmlns="http://www.w3.org/2000/svg"
   xmlns:sodipodi="http://sodipodi.sourceforge.net/DTD/sodipodi-0.dtd"
   xmlns:inkscape="http://www.inkscape.org/namespaces/inkscape"
   version="1.1"
   id="Layer_1"
   x="0px"
   y="0px"
   width="200"
   height="200"
   viewBox="0 0 200 200"
   enable-background="new 0 0 1000 1000"
   xml:space="preserve"
   sodipodi:docname="icon-shadow.svg"
   inkscape:version="1.0.1 (3bc2e813f5, 2020-09-07)"><metadata
   id="metadata30"><rdf:RDF><cc:Work
       rdf:about=""><dc:format>image/svg+xml</dc:format><dc:type
         rdf:resource="http://purl.org/dc/dcmitype/StillImage" /><dc:title></dc:title></cc:Work></rdf:RDF></metadata><defs
   id="defs28">
	
	

		
	
			
		
				
			
					
				
						
						
						
					</defs><sodipodi:namedview
   pagecolor="#ffffff"
   bordercolor="#666666"
   borderopacity="1"
   objecttolerance="10"
   gridtolerance="10"
   guidetolerance="10"
   inkscape:pageopacity="0"
   inkscape:pageshadow="2"
   inkscape:window-width="1366"
   inkscape:window-height="745"
   id="namedview26"
   showgrid="false"
   inkscape:zoom="2.456"
   inkscape:cx="104.20341"
   inkscape:cy="89.429045"
   inkscape:window-x="-8"
   inkscape:window-y="-8"
   inkscape:window-maximized="1"
   inkscape:current-layer="Layer_1"
   inkscape:document-rotation="0" />
<g
   id="g876"><path
     id="path12"
     style="opacity:0.32571;stroke-width:0.230977;fill:#b3b3b3;fill-opacity:1"
     d="m 68.557138,71.530566 c 0,0 16.161876,16.905916 9.667623,33.328194 0,0 -2.570793,5.01335 -7.404445,11.79079 -4.816277,6.7966 -6.950718,10.85197 -6.664069,14.7881 0.288937,3.93461 -1.547815,8.34375 -5.969579,1.15824 0,0 -4.400801,-5.71 0.831328,-14.90726 3.175173,-5.787 11.520566,-15.05675 3.367311,-12.77163 0,0 -7.813576,4.11384 -9.299201,13.60306 -1.483797,9.49849 0.665023,18.77493 2.755657,26.92483 2.090036,8.14238 1.145908,10.67728 1.198606,11.81338 0.06106,1.14228 -2.178112,6.18148 -4.862461,-1.19451 0,0 -2.334466,-9.14334 -6.633052,-17.61733 -4.286201,-8.48532 -10.61897,-23.95597 1.409309,-42.399218 8.869703,-12.645229 11.915433,-18.924104 9.840335,-25.599394 0,0 -2.027221,-8.790656 -16.514736,-10.096142 0.0019,0.0079 12.107508,-3.932306 28.277374,11.17889 z m 3.697779,54.203994 c 0,0 7.586582,-21.87908 25.807471,-24.97267 0,0 5.842162,-0.45051 14.416462,0.0194 8.55465,0.47542 13.32898,0.14221 16.79106,-2.103979 3.46805,-2.247736 8.40185,-3.009899 3.97712,4.286479 0,0 -3.0931,6.5395 -14.07161,6.95689 -6.83236,0.35689 -19.399916,-1.73484 -13.32493,3.7672 0,0 7.56585,4.2949 16.98866,0.65372 9.42104,-3.64049 16.87999,-10.14638 23.32224,-16.026966 6.43816,-5.885562 9.20545,-6.40351 10.23797,-7.031292 1.01856,-0.64087 6.72659,-1.383832 1.27639,4.597088 0,0 -7.23541,6.58368 -12.91303,14.43527 -5.66477,7.858 -16.75138,20.97845 -39.51292,20.54838 -15.917369,-0.77633 -23.149983,-0.0647 -28.253973,5.04913 0,0 -7.069344,6.16253 -1.178016,18.68784 0.0026,0.007 -9.512317,-7.87409 -3.562894,-28.86644 z M 120.06825,94.955183 c 0,0 -23.749631,4.987626 -35.46938,-8.349116 0,0 -3.267671,-4.556605 -7.019369,-11.818904 C 73.831089,67.53051 71.199416,63.795314 67.4505,62.109134 c -3.742492,-1.683437 -6.85115,-5.333208 1.992374,-5.44679 0,0 7.489761,-0.824016 13.231801,7.965102 3.672514,5.414299 7.895073,16.774522 9.97155,8.987127 0,0 0.234636,-8.415096 -7.704984,-14.25322 C 77.01172,53.502738 67.408757,50.734424 58.879164,48.465428 50.347371,46.206286 48.51225,44.197775 47.440971,43.683757 c -1.078245,-0.513371 -4.548739,-4.806632 3.577251,-3.40331 0,0 9.569471,2.554661 19.535915,3.168452 9.966061,0.626654 27.380844,3.000332 38.106073,21.849965 7.07487,13.437944 11.25517,18.998343 18.42265,20.563248 0,0 9.09111,2.629767 17.69248,-8.59627 4.5e-4,-0.0064 -2.58719,11.822882 -24.70709,17.689341 z" /></g>
</svg>
