<?xml version="1.0" encoding="utf-8"?>
<!-- Generator: Adobe Illustrator 16.0.0, SVG Export Plug-In . SVG Version: 6.00 Build 0)  -->
<!DOCTYPE svg PUBLIC "-//W3C//DTD SVG 1.1//EN" "http://www.w3.org/Graphics/SVG/1.1/DTD/svg11.dtd">
<svg version="1.1" id="Layer_1" xmlns="http://www.w3.org/2000/svg" xmlns:xlink="http://www.w3.org/1999/xlink" x="0px" y="0px"
	 width="24px" height="24px" viewBox="0 0 24 24" enable-background="new 0 0 24 24" xml:space="preserve">
<g id="g972">
	<g id="g16" transform="matrix(1.1263408,-0.29181072,0.29357811,1.0598257,-235.82847,59.257295)" opacity="0.9306">
		<g>
			<g>
				<g id="g14" opacity="0.35">
					<path id="path8" fill="#B3B3B3" d="M219.16,15.176c0,0-3.4-0.17-4.486-2.52c0,0-0.272-0.776-0.507-1.958
						c-0.237-1.181-0.452-1.816-0.897-2.197c-0.443-0.382-0.729-1.022,0.473-0.709c0,0,1.045,0.161,1.494,1.636
						c0.294,0.915,0.44,2.705,1.011,1.663c0,0,0.347-1.199-0.508-2.334c-0.854-1.138-2.049-1.894-3.118-2.536
						c-1.07-0.642-1.244-0.999-1.368-1.113c-0.128-0.114-0.435-0.86,0.61-0.355c0,0,1.199,0.723,2.523,1.183
						c1.325,0.462,3.591,1.451,4.339,4.556c0.453,2.193,0.811,3.147,1.723,3.639c0,0,1.13,0.717,2.715-0.575
						C223.166,13.557,222.373,15.158,219.16,15.176L219.16,15.176z"/>
					<path id="path10" fill="#B3B3B3" d="M211.54,17.816c0,0,1.846-2.859,4.427-2.625c0,0,0.808,0.152,1.95,0.539
						c1.14,0.388,1.797,0.517,2.351,0.323c0.554-0.193,1.249-0.118,0.377,0.765c0,0-0.662,0.825-2.163,0.473
						c-0.936-0.203-2.561-0.971-1.944,0.046c0,0,0.864,0.898,2.274,0.725c1.41-0.173,2.663-0.828,3.755-1.432
						c1.091-0.607,1.487-0.577,1.648-0.629c0.161-0.054,0.961,0.052,0.002,0.709c0,0-1.224,0.674-2.288,1.592
						c-1.06,0.916-3.053,2.387-6.114,1.479c-2.125-0.704-3.131-0.873-4.012-0.33c0,0-1.187,0.622-0.859,2.641
						C210.94,22.095,209.949,20.608,211.54,17.816L211.54,17.816z"/>
					<path id="path12" fill="#B3B3B3" d="M213.068,9.893c0,0,1.553,3.029,0.058,5.148c0,0-0.536,0.623-1.442,1.416
						c-0.906,0.796-1.347,1.3-1.454,1.875c-0.108,0.577-0.521,1.142-0.851-0.055c0,0-0.381-0.985,0.671-2.111
						c0.645-0.712,2.121-1.733,0.933-1.709c0,0-1.21,0.301-1.767,1.609c-0.556,1.308-0.612,2.72-0.635,3.971
						c-0.022,1.246-0.244,1.574-0.279,1.739c-0.035,0.166-0.526,0.806-0.614-0.351c0,0,0.027-1.399-0.238-2.776
						c-0.263-1.378-0.539-3.837,1.779-6.037c1.673-1.488,2.319-2.275,2.289-3.312c0,0,0.054-1.338-1.857-2.064
						C209.66,7.236,211.445,7.121,213.068,9.893L213.068,9.893z"/>
				</g>
			</g>
		</g>
	</g>
	<g id="g32" transform="matrix(1.1263408,-0.29181072,0.29357811,1.0598257,-235.82847,59.257295)">
		<g>
			<g>
				<g id="g30">
					<path id="path24" fill="#F5D702" d="M219.105,14.933c0,0-3.471-0.174-4.579-2.571c0,0-0.276-0.792-0.515-1.999
						c-0.241-1.206-0.462-1.855-0.915-2.242c-0.453-0.391-0.743-1.043,0.483-0.724c0,0,1.066,0.165,1.523,1.67
						c0.299,0.934,0.447,2.759,1.032,1.696c0,0,0.354-1.223-0.518-2.382c-0.872-1.157-2.092-1.929-3.183-2.586
						c-1.09-0.655-1.268-1.02-1.397-1.136c-0.128-0.118-0.444-0.877,0.624-0.363c0,0,1.224,0.737,2.577,1.208
						c1.35,0.469,3.665,1.48,4.426,4.651c0.463,2.238,0.828,3.212,1.758,3.712c0,0,1.155,0.731,2.771-0.587
						C223.191,13.28,222.383,14.915,219.105,14.933L219.105,14.933z"/>
					<path id="path26" fill="#12E49D" d="M211.327,17.627c0,0,1.884-2.919,4.517-2.679c0,0,0.826,0.155,1.991,0.552
						c1.165,0.393,1.834,0.526,2.399,0.328c0.563-0.198,1.274-0.122,0.383,0.78c0,0-0.675,0.84-2.206,0.485
						c-0.96-0.208-2.616-0.992-1.986,0.048c0,0,0.883,0.918,2.323,0.741c1.44-0.178,2.716-0.847,3.829-1.466
						c1.112-0.616,1.518-0.587,1.682-0.641c0.166-0.054,0.984,0.054,0.003,0.722c0,0-1.251,0.692-2.331,1.627
						c-1.082,0.937-3.114,2.437-6.24,1.51c-2.17-0.72-3.196-0.889-4.096-0.333c0,0-1.21,0.633-0.876,2.691
						C210.717,21.995,209.706,20.475,211.327,17.627L211.327,17.627z"/>
					<path id="path28" fill="#1657CE" d="M212.888,9.544c0,0,1.586,3.092,0.063,5.25c0,0-0.547,0.637-1.472,1.449
						c-0.924,0.81-1.375,1.325-1.486,1.913c-0.11,0.585-0.532,1.163-0.867-0.058c0,0-0.39-1.004,0.685-2.156
						c0.658-0.725,2.165-1.767,0.953-1.741c0,0-1.236,0.306-1.804,1.641c-0.567,1.334-0.624,2.776-0.648,4.049
						c-0.022,1.273-0.249,1.608-0.285,1.777c-0.037,0.171-0.536,0.824-0.627-0.359c0,0,0.028-1.427-0.241-2.835
						c-0.27-1.405-0.552-3.912,1.812-6.158c1.707-1.52,2.368-2.321,2.337-3.379c0,0,0.056-1.365-1.896-2.105
						C209.413,6.83,211.233,6.715,212.888,9.544L212.888,9.544z"/>
				</g>
			</g>
		</g>
	</g>
</g>
</svg>
