<?xml version="1.0" encoding="UTF-8" standalone="no"?>
<svg
   xmlns:dc="http://purl.org/dc/elements/1.1/"
   xmlns:cc="http://creativecommons.org/ns#"
   xmlns:rdf="http://www.w3.org/1999/02/22-rdf-syntax-ns#"
   xmlns:svg="http://www.w3.org/2000/svg"
   xmlns="http://www.w3.org/2000/svg"
   xmlns:sodipodi="http://sodipodi.sourceforge.net/DTD/sodipodi-0.dtd"
   xmlns:inkscape="http://www.inkscape.org/namespaces/inkscape"
   version="1.1"
   id="Layer_1"
   x="0px"
   y="0px"
   width="200"
   height="200"
   viewBox="0 0 200 200"
   enable-background="new 0 0 1000 1000"
   xml:space="preserve"
   sodipodi:docname="icon-dark-circle.svg"
   inkscape:version="1.0.1 (3bc2e813f5, 2020-09-07)"><metadata
   id="metadata30"><rdf:RDF><cc:Work
       rdf:about=""><dc:format>image/svg+xml</dc:format><dc:type
         rdf:resource="http://purl.org/dc/dcmitype/StillImage" /><dc:title></dc:title></cc:Work></rdf:RDF></metadata><defs
   id="defs28">
	
	

		
	
			
		
				
			
					
				
						
						
						
					</defs><sodipodi:namedview
   pagecolor="#ffffff"
   bordercolor="#666666"
   borderopacity="1"
   objecttolerance="10"
   gridtolerance="10"
   guidetolerance="10"
   inkscape:pageopacity="0"
   inkscape:pageshadow="2"
   inkscape:window-width="1366"
   inkscape:window-height="745"
   id="namedview26"
   showgrid="false"
   inkscape:zoom="1.228"
   inkscape:cx="19.267412"
   inkscape:cy="136.23117"
   inkscape:window-x="-8"
   inkscape:window-y="-8"
   inkscape:window-maximized="1"
   inkscape:current-layer="Layer_1" />
<circle
   style="opacity:1;fill:#000000;fill-opacity:1;stroke:#ffffff;stroke-width:0;stroke-dashoffset:24.1308;stroke-opacity:0;paint-order:markers stroke fill"
   id="path905"
   cx="100"
   cy="100"
   r="100" /><g
   id="g899"
   transform="matrix(0.87500001,0,0,0.87500001,14.25,14.25)"><path
     id="path24"
     fill="#f5d702"
     d="m 124.7625,91.273072 c 0,0 -31.670882,6.644044 -47.29837,-11.127439 0,0 -4.350769,-6.081582 -9.349146,-15.762799 -5.003038,-9.680613 -8.510785,-14.660698 -13.502205,-16.897957 -5.003142,-2.256356 -9.149623,-7.120196 2.648542,-7.279034 0,0 9.997015,-1.084899 17.651265,10.619627 4.89169,7.225655 10.521867,22.379703 13.279755,11.990098 0,0 0.325669,-11.207779 -10.250982,-19.015351 C 67.358214,36.012223 54.554621,32.300914 43.176055,29.287206 31.806004,26.274018 29.352205,23.585975 27.917105,22.911308 26.489752,22.221591 21.864302,16.50392 32.702024,18.37384 c 0,0 12.756991,3.391611 26.043283,4.229413 13.280627,0.828961 36.509107,3.991883 50.810103,29.130435 9.41961,17.911741 14.99614,25.329755 24.55142,27.410709 0,0 12.13121,3.515111 23.59019,-11.465771 2.9e-4,-0.0013 -3.43043,15.768596 -32.93452,23.594446 z"
     style="fill:#de9846;fill-opacity:1;stroke-width:0.301821" /><path
     id="path26"
     fill="#12e49d"
     d="m 61.002171,132.31286 c 0,0 10.122689,-29.18309 34.419,-33.295885 0,0 7.800759,-0.609234 19.222079,0.02479 11.4255,0.630512 17.77123,0.182153 22.38648,-2.812507 4.62104,-2.987672 11.20542,-4.017447 5.30064,5.730872 0,0 -4.1172,8.69962 -18.76328,9.26751 -9.12135,0.48109 -25.871893,-2.31258 -17.77366,5.03575 0,0 10.1071,5.73 22.67245,0.87517 12.55719,-4.86454 22.50245,-13.53554 31.05955,-21.389732 8.59375,-7.834585 12.30618,-8.52823 13.66612,-9.378356 1.36649,-0.835753 8.97573,-1.833543 1.71055,6.130144 0,0 -9.65249,8.799464 -17.20485,19.262354 -7.55134,10.47474 -22.34186,27.95991 -52.69192,27.40607 -21.22502,-1.04954 -30.871091,-0.0808 -37.677751,6.73822 0,0 -9.415394,8.19965 -1.573086,24.91346 0.0046,0.005 -12.670045,-10.52177 -4.752322,-38.50786 z"
     style="fill:#4dbb96;fill-opacity:1;stroke-width:0.301821" /><path
     id="path28"
     fill="#1657ce"
     d="m 56.075449,60.037833 c 0,0 21.552871,22.539651 12.896102,44.424437 0,0 -3.438316,6.68415 -9.865922,15.73195 -6.427215,9.04921 -9.278663,14.47902 -8.898705,19.71997 0.388305,5.23271 -2.052284,11.13521 -7.949092,1.54268 0,0 -5.868054,-7.62111 1.107049,-19.89464 4.235089,-7.69178 15.3592,-20.06072 4.492582,-17.01551 0,0 -10.417627,5.47901 -12.40378,18.1541 -1.9792,12.64902 0.884596,25.02081 3.667993,35.88494 2.797281,10.85264 1.527829,14.23592 1.605523,15.75126 0.06908,1.53426 -2.905765,8.2471 -6.490787,-1.58388 0,0 -3.115467,-12.18884 -8.830796,-23.50375 -5.73206,-11.30208 -14.171876,-31.94059 1.870943,-56.517613 11.813397,-16.88338 15.880513,-25.242773 13.12189,-34.155671 0,0 -2.701814,-11.71536 -22.019945,-13.453316 0.005,0.0066 16.142739,-5.23019 37.696945,14.915043 z"
     style="fill:#7796d0;fill-opacity:1;stroke-width:0.301821" /></g>
</svg>
