<?xml version="1.0" encoding="UTF-8" standalone="no"?>
<svg
   xmlns:dc="http://purl.org/dc/elements/1.1/"
   xmlns:cc="http://creativecommons.org/ns#"
   xmlns:rdf="http://www.w3.org/1999/02/22-rdf-syntax-ns#"
   xmlns:svg="http://www.w3.org/2000/svg"
   xmlns="http://www.w3.org/2000/svg"
   xmlns:sodipodi="http://sodipodi.sourceforge.net/DTD/sodipodi-0.dtd"
   xmlns:inkscape="http://www.inkscape.org/namespaces/inkscape"
   version="1.1"
   id="Layer_1"
   x="0px"
   y="0px"
   width="200"
   height="200"
   viewBox="0 0 200 200"
   enable-background="new 0 0 1000 1000"
   xml:space="preserve"
   sodipodi:docname="shadow.svg"
   inkscape:version="1.0.1 (3bc2e813f5, 2020-09-07)"><metadata
   id="metadata30"><rdf:RDF><cc:Work
       rdf:about=""><dc:format>image/svg+xml</dc:format><dc:type
         rdf:resource="http://purl.org/dc/dcmitype/StillImage" /><dc:title></dc:title></cc:Work></rdf:RDF></metadata><defs
   id="defs28">
	
	
</defs><sodipodi:namedview
   pagecolor="#ffffff"
   bordercolor="#666666"
   borderopacity="1"
   objecttolerance="10"
   gridtolerance="10"
   guidetolerance="10"
   inkscape:pageopacity="0"
   inkscape:pageshadow="2"
   inkscape:window-width="1366"
   inkscape:window-height="745"
   id="namedview26"
   showgrid="false"
   inkscape:zoom="1.228"
   inkscape:cx="28.325476"
   inkscape:cy="183.63166"
   inkscape:window-x="-8"
   inkscape:window-y="-8"
   inkscape:window-maximized="1"
   inkscape:current-layer="Layer_1"
   inkscape:document-rotation="0" />
<g
   id="g16"
   transform="matrix(0.26818392,-0.06956103,0.06990151,0.25263832,-76.632983,-6.5757422)"
   opacity="0.9306">
		<g
   id="g10">
			<g
   id="g8">
				<g
   id="g6">
					<g
   id="g14"
   opacity="0.35">
						<path
   id="path8"
   fill="#b3b3b3"
   d="m 599.054,563.497 c 0,0 -102,-5.052 -134.592,-75.614 0,0 -8.146,-23.285 -15.218,-58.769 -7.065,-35.456 -13.552,-54.491 -26.875,-65.946 -13.3,-11.436 -21.819,-30.636 14.204,-21.242 0,0 31.326,4.82 44.762,49.107 8.826,27.433 13.207,81.1 30.381,49.867 0,0 10.403,-35.996 -15.267,-70.024 -25.606,-34.105 -61.475,-56.765 -93.548,-76.074 -32.093,-19.269 -37.286,-29.974 -41.057,-33.386 -3.8,-3.417 -13.065,-25.794 18.342,-10.666 0,0 35.973,21.702 75.737,35.485 39.748,13.838 107.768,43.528 130.132,136.732 13.625,65.807 24.348,94.437 51.683,109.19 0,0 33.947,21.491 81.467,-17.266 0.009,-0.027 -23.779,48.05 -120.151,48.606 z" />
						<path
   id="path10"
   fill="#b3b3b3"
   d="m 370.415,642.681 c 0,0 55.365,-85.792 132.797,-78.758 0,0 24.219,4.588 58.494,16.195 34.189,11.609 53.942,15.509 70.517,9.7 16.601,-5.809 37.483,-3.579 11.329,22.914 0,0 -19.899,24.72 -64.929,14.249 -28.133,-6.098 -76.795,-29.156 -58.316,1.34 0,0 25.886,26.961 68.222,21.803 42.328,-5.157 79.91,-24.853 112.663,-42.991 32.742,-18.164 44.556,-17.303 49.452,-18.854 4.854,-1.623 28.857,1.555 0.018,21.234 0,0 -36.762,20.281 -68.625,47.766 -31.818,27.527 -91.553,71.669 -183.458,44.378 -63.736,-21.134 -93.892,-26.151 -120.352,-9.821 0,0 -35.615,18.652 -25.769,79.204 0.003,0.032 -29.767,-44.558 17.957,-128.359 z" />
						<path
   id="path12"
   fill="#b3b3b3"
   d="m 416.28,404.999 c 0,0 46.614,90.905 1.811,154.406 0,0 -16.065,18.728 -43.296,42.528 -27.182,23.902 -40.4,38.99 -43.657,56.27 -3.246,17.276 -15.653,34.221 -25.531,-1.681 0,0 -11.45,-29.521 20.116,-63.302 19.387,-21.386 63.671,-52 28.011,-51.266 0,0 -36.335,8.993 -53.022,48.219 -16.69,39.268 -18.386,81.639 -19.053,119.091 -0.661,37.419 -7.34,47.286 -8.402,52.24 -1.035,4.99 -15.783,24.2 -18.395,-10.581 0,0 0.793,-42.005 -7.138,-83.321 -7.868,-41.351 -16.198,-115.087 53.337,-181.111 50.203,-44.572 69.617,-68.222 68.691,-99.303 0,0 1.644,-40.142 -55.694,-61.958 -10e-4,0.036 53.56,-3.412 102.222,79.769 z" />
					</g>
				</g>
			</g>
		</g>
	</g>
</svg>
