<?xml version="1.0" encoding="UTF-8" standalone="no"?>
<svg
   xmlns:dc="http://purl.org/dc/elements/1.1/"
   xmlns:cc="http://creativecommons.org/ns#"
   xmlns:rdf="http://www.w3.org/1999/02/22-rdf-syntax-ns#"
   xmlns:svg="http://www.w3.org/2000/svg"
   xmlns="http://www.w3.org/2000/svg"
   xmlns:sodipodi="http://sodipodi.sourceforge.net/DTD/sodipodi-0.dtd"
   xmlns:inkscape="http://www.inkscape.org/namespaces/inkscape"
   version="1.1"
   id="Layer_1"
   x="0px"
   y="0px"
   width="200"
   height="200"
   viewBox="0 0 200 200"
   enable-background="new 0 0 1000 1000"
   xml:space="preserve"
   sodipodi:docname="icon-circle.svg"
   inkscape:version="1.0.1 (3bc2e813f5, 2020-09-07)"><metadata
   id="metadata30"><rdf:RDF><cc:Work
       rdf:about=""><dc:format>image/svg+xml</dc:format><dc:type
         rdf:resource="http://purl.org/dc/dcmitype/StillImage" /><dc:title></dc:title></cc:Work></rdf:RDF></metadata><defs
   id="defs28">
	
	

		
	
			
		
				
			
					
				
						
						
						
					</defs><sodipodi:namedview
   pagecolor="#ffffff"
   bordercolor="#666666"
   borderopacity="1"
   objecttolerance="10"
   gridtolerance="10"
   guidetolerance="10"
   inkscape:pageopacity="0"
   inkscape:pageshadow="2"
   inkscape:window-width="1258"
   inkscape:window-height="729"
   id="namedview26"
   showgrid="false"
   inkscape:zoom="0.86832713"
   inkscape:cx="132.77935"
   inkscape:cy="45.757088"
   inkscape:window-x="92"
   inkscape:window-y="0"
   inkscape:window-maximized="0"
   inkscape:current-layer="Layer_1"
   inkscape:document-rotation="0" />
<g
   id="g1020"><path
     id="path841"
     style="opacity:1;fill:#ffffff;stroke:#f6f6f6;stroke-width:0;stroke-dashoffset:24.1308;paint-order:markers stroke fill"
     d="M 200,100 A 100,100 0 0 1 100,200 100,100 0 0 1 0,100 100,100 0 0 1 100,0 100,100 0 0 1 200,100 Z" /><g
     id="g1012"><path
       id="path24"
       style="stroke-width:0.226366;fill:#f5d702;fill-opacity:1"
       d="m 120.07188,94.954802 c 0,0 -23.753166,4.983033 -35.473783,-8.345578 0,0 -3.263077,-4.561187 -7.011859,-11.822099 -3.75228,-7.26046 -6.38309,-10.995524 -10.126655,-12.673467 -3.752356,-1.692268 -6.862218,-5.340148 1.986406,-5.459276 0,0 7.497761,-0.813675 13.238449,7.96472 3.668768,5.41924 7.891401,16.784776 9.959817,8.992572 0,0 0.244252,-8.405834 -7.688237,-14.261512 C 77.018659,53.509166 67.415964,50.725685 58.88204,48.465404 50.354501,46.205513 48.514152,44.189482 47.437827,43.683481 46.367312,43.166193 42.898224,38.87794 51.026516,40.28038 c 0,0 9.567743,2.543708 19.532462,3.172059 9.96047,0.621721 27.381831,2.993911 38.107582,21.847825 7.0647,13.433806 11.2471,18.997316 18.41356,20.558031 0,0 9.09841,2.636333 17.69264,-8.599329 2.2e-4,-9.66e-4 -2.57281,11.826447 -24.70088,17.695836 z" /><path
       id="path26"
       style="stroke-width:0.226366;fill:#12e49d;fill-opacity:1"
       d="m 72.251629,125.73464 c 0,0 7.592016,-21.88732 25.814249,-24.97191 0,0 5.850572,-0.45693 14.416562,0.0186 8.56912,0.47288 13.32842,0.13661 16.78986,-2.109381 3.46578,-2.240754 8.40406,-3.013086 3.97548,4.298151 0,0 -3.0879,6.52472 -14.07247,6.95063 -6.84101,0.36082 -19.403912,-1.73443 -13.33024,3.77682 0,0 7.58033,4.2975 17.00434,0.65638 9.41789,-3.64841 16.87684,-10.15166 23.29466,-16.042304 6.44532,-5.875939 9.22964,-6.396173 10.24959,-7.033767 1.02487,-0.626815 6.7318,-1.375158 1.28292,4.597608 0,0 -7.23937,6.599603 -12.90364,14.446763 -5.66351,7.85606 -16.7564,20.96994 -39.51894,20.55455 -15.918766,-0.78715 -23.15332,-0.0606 -28.258314,5.05368 0,0 -7.061546,6.14973 -1.179815,18.68509 0.0034,0.004 -9.502534,-7.89133 -3.564242,-28.8809 z" /><path
       id="path28"
       style="stroke-width:0.226366;fill:#1657ce;fill-opacity:1"
       d="m 68.556586,71.528374 c 0,0 16.164654,16.904738 9.672078,33.318326 0,0 -2.578737,5.01311 -7.399442,11.79896 -4.820411,6.78691 -6.958997,10.85927 -6.674028,14.78998 0.291229,3.92454 -1.539213,8.35141 -5.961819,1.15701 0,0 -4.401041,-5.71583 0.830286,-14.92098 3.176317,-5.76883 11.5194,-15.04554 3.369437,-12.76163 0,0 -7.813221,4.10926 -9.302835,13.61557 -1.4844,9.48677 0.663447,18.76561 2.750995,26.91371 2.097962,8.13948 1.145873,10.67694 1.204143,11.81345 0.05181,1.15069 -2.179324,6.18532 -4.86809,-1.18791 0,0 -2.336601,-9.14163 -6.623098,-17.62782 -4.299045,-8.47656 -10.628908,-23.95544 1.403206,-42.388207 8.860047,-12.662535 11.910384,-18.93208 9.841417,-25.616754 0,0 -2.026361,-8.786519 -16.51496,-10.089986 0.0038,0.0049 12.107054,-3.922643 28.27271,11.186281 z" /></g></g>
</svg>
