<svg id="Layer_1" data-name="Layer 1" xmlns="http://www.w3.org/2000/svg" viewBox="0 0 1000 452"><defs><style>.cls-1{fill:#c4d600;}.cls-1,.cls-2,.cls-3,.cls-4,.cls-5,.cls-6{fill-rule:evenodd;}.cls-2{fill:#4ec1e0;}.cls-3{fill:#1f1e1d;}.cls-4{fill:#bd8944;}.cls-5{fill:#e5e5e5;}.cls-6{fill:#ffce00;}.cls-7{font-size:75.44px;font-family:Poppins-Medium, Poppins;font-weight:500;}</style></defs><path id="path0" class="cls-1" d="M232.42,49.94c-.65.12-3.28.54-5.86,1-7.3,1.14-21.37,5-26.26,7.23-.51.23-3.24,1.39-6.05,2.58a166.79,166.79,0,0,0-29.35,16c-2.71,1.84-6,3.88-7.27,4.53-3,1.54-6.13,4.3-9.22,8.22-1.37,1.73-3.55,4.43-4.84,6a118.24,118.24,0,0,0-7.73,10,134.27,134.27,0,0,0-24.19,82.11c.3,9.36.25,9.18,1.63,5.68.59-1.48,1.7-4.2,2.48-6.05s1.25-3.62,1.06-3.94-.16-.46.1-.29,1.16-1.24,2-3.09c6.15-13.44,15.16-29.23,21.42-37.55s8.55-10.19,4.91-3.95c-1.78,3-2.4,4.28-5.81,11.63a253,253,0,0,0-10,24.85c-1.09,3.22-3,8.71-4.19,12.19-5.85,16.87-7.76,25.1-7.76,33.59,0,10.17,3.9,21.74,7.32,21.74,2,0,8.16-8.6,8.16-11.44a1.24,1.24,0,0,1,.41-1,4.21,4.21,0,0,0,.74-1.95,17.68,17.68,0,0,1,1-3.17c.35-.81,1.74-4.53,3.08-8.27,2.16-6,3.19-8.67,4.67-12,.23-.52,1.26-3,2.28-5.41,5.36-12.83,16-31.85,22.78-40.79,5.52-7.25,9.93-11.35,6.85-6.37-2.93,4.74-9.59,19.29-14.35,31.35-3.93,9.93-5,12.93-7,18.77-9.1,27.55-11.33,40.39-9,51.68,3.17,15.41,8.95,13,15.5-6.56,1.47-4.39,2.94-8.61,3.27-9.38s1.07-2.67,1.65-4.22c1.83-4.86,3.41-8.84,4.3-10.87a17.42,17.42,0,0,0,.87-2.22c0-1.3,9.75-20.53,14.58-28.74,6.91-11.76,19.16-27.5,20.42-26.24.15.15-.8,2-2.12,4s-3.83,6.55-5.58,10c-3,5.86-3.82,7.63-6.94,14.69-4.84,10.92-11.2,27.91-13.25,35.4-.25.9-1.23,4.27-2.19,7.5-4.71,15.95-5.11,21.17-2,25.83,1.89,2.8,5.39,1.55,10.27-3.69,2-2.12,2.65-3.08,7.56-10.7,1.95-3,7.67-13,9.8-17.07.47-.9,1.05-2,1.3-2.34,2.53-4.07,6.58-11.41,6.58-11.94a1.23,1.23,0,0,1,.47-1,42.29,42.29,0,0,0,4.21-6.12c0-.19,6.17-9.36,9.6-14.27,7.18-10.3,21.25-26,27.68-30.84,1.55-1.18,3.45-2.72,4.22-3.44,4.51-4.2,13.69-4.69,20.87-1.12a51.88,51.88,0,0,0,5.79,2.58c.17,0,.3-.84.3-1.86,0-11.11,13.48-15.61,28.6-9.55a58.13,58.13,0,0,1,13.13,7.86c6,4.95,5.61,4.7,6.38,3.93,2.86-2.85,1.71-33.63-1.74-46.63-.54-2-1.19-4.53-1.44-5.57a25.53,25.53,0,0,0-.86-2.81c-2-4.65-2.34-5.59-2.34-6.1,0-1.11-6.33-13.12-9.14-17.32-10.6-15.91-31.65-29.46-52.05-33.53-1.55-.31-3.65-.77-4.69-1-1.9-.48-22.94-1-25.08-.58m11.87,146.24c0,1.55.09,2.12.19,1.28a13.18,13.18,0,0,0,0-2.81c-.11-.71-.2,0-.19,1.53"/><path id="path1" class="cls-2" d="M103,206.84C84.93,215,71.75,224.66,59.61,238.5,53.91,245,45,259.45,44.33,263.23a2.37,2.37,0,0,1-.51,1.2c-.34.25-1,3.23-2.48,10.52-.41,2.07-1,4.91-1.3,6.33-1,4.59-.67,21.35.54,27.4,5.51,27.52,20.36,48.66,48.18,68.59,11.42,8.18,31.84,19.12,38.51,20.63.57.13.91.46.74.73s.08.39.71.22,1.13-.07,1.28.16a1.52,1.52,0,0,0,1.17.43c.5,0,.91.19.91.43s1.53.67,3.4,1,4.35.75,5.51,1c11.62,2.36,41.81,3,42.59.86.08-.24,1.19-.43,2.46-.43s2.3-.21,2.3-.47.48-.46,1.06-.46c1.31,0,12.46-2.83,17.23-4.37a147.26,147.26,0,0,0,25.22-11,40.05,40.05,0,0,1,3.63-2,75.2,75.2,0,0,0,7.24-5c.86-.8-.21-.85-4.4-.19-18.32,2.86-47.83,3.36-60.06,1-3.79-.73-4.28-.91-2.57-.94,17.4-.35,62.63-8,77.59-13.18,11.68-4,24.62-15.14,24.62-21.17,0-2.76-8.2-3.34-18.75-1.32-16,3.07-17,3.23-21.82,3.73-2.57.27-5.84.68-7.26.92s-6.48.66-11.25.94l-12.44.72c-7.09.43-22.9-.7-31.63-2.26l-3.52-.63,3.52-.29c1.93-.16,6.47-.5,10.08-.77a393.39,393.39,0,0,0,48.06-7.09c11.94-2.6,12.71-2.79,14.57-3.74a7.6,7.6,0,0,1,3.12-.86c2.08.12,9-2,14.1-4.34,1.62-.74,3-1.35,3.17-1.35,3.58,0,16.15-12.52,16.15-16.08,0-2.18-8.33-3.48-14.54-2.28l-8.2,1.64c-8,1.62-13.53,2.6-17.59,3.11l-7,.92c-17.72,2.38-52.76,2.25-56.74-.21a41,41,0,0,0-4.48-.69c-9.06-1.1-7.84-1.64,3.9-1.71,18.19-.11,48.31-4.14,64.35-8.62.9-.25,4-1,6.8-1.68,15-3.56,20.73-6.94,21.4-12.61.16-1.33,0-1.5-3.29-3.1-6.16-3-13.72-3.65-38-3.23-34.76.59-66.56-3.19-82.36-9.79-1.76-.73-4.35-1.74-5.75-2.22-6.44-2.24-11.24-11.26-11.28-21.17,0-3.39.15-3.3-3.23-1.65-13.66,6.69-25.39-14.55-20.76-37.6a27.09,27.09,0,0,0,.74-5c-.51-.84-2.16-.63-4.91.62"/><path id="path3" class="cls-3" d="M227.73,39.8a113.61,113.61,0,0,0-16.88,3.12C207,44,198,46.92,197.49,47.29a23.85,23.85,0,0,1-2.81,1.19,149.4,149.4,0,0,0-19,9.63c-.65.44-2.87,1.92-4.93,3.28-28.62,18.94-50.87,49.15-62,84.15a147.47,147.47,0,0,0-6.66,46.63l.17,7.72-1.18.58-7.43,3.67c-48.16,23.75-73.41,74.22-59.6,119.11,9.7,31.52,31.37,55.66,64.69,72.07,4.83,2.38,13.67,6,14.67,6a1.79,1.79,0,0,1,1.06.41c.47.45,11.83,3.72,17.09,4.93,18.33,4.23,44.27,4.94,60.72,1.69,1.29-.26,4-.78,6.1-1.15,14.83-2.72,36.84-11.41,48-19,5.39-3.65,5-3.62,9.22-.67,2,1.43,5.7,3.79,8.15,5.24a34.75,34.75,0,0,1,4.8,3.19,3.62,3.62,0,0,0,1.92.84,5.68,5.68,0,0,1,2.63,1.42,5.8,5.8,0,0,0,2.77,1.44,7.43,7.43,0,0,1,2.18.68c1.91,1.45,16.05,6.24,22.74,7.7,10.83,2.35,11.16,2.38,23.45,2.4,12.5,0,14.09-.16,24.27-2.63a105.12,105.12,0,0,0,13.71-4.45,96.93,96.93,0,0,0,53.79-59.26A88.31,88.31,0,0,0,419.72,332c8.54-35.54,1.76-75.41-18.67-109.79a89.17,89.17,0,0,0-5.58-8.61,5.55,5.55,0,0,1-1.29-1.81c0-1.47-9.63-12.89-17.37-20.6a141.84,141.84,0,0,0-34-25.33l-5.16-2.73.06-2.95c0-1.63.21-6.75.4-11.4a119.69,119.69,0,0,0-2.59-29.3c-.55-2.45-1.18-5.3-1.4-6.34-.53-2.58-3.47-11.29-4.06-12a6.55,6.55,0,0,1-.82-2c-.52-2.19-5.95-12.72-8.7-16.88-20.66-31.19-55.27-47-92.84-42.44m25.63,6.55a104.89,104.89,0,0,1,14.93,3.3c29.38,8.36,53.63,36.45,60.9,70.57,3.62,17,3.49,44.21-.22,44.3a8.92,8.92,0,0,1-1.87-1.44c-18.79-17-43.39-18.57-44.81-2.88-.36,4,0,3.86-4.91,1.58-9.29-4.28-16.12-4.53-21-.77l-5.28,4.05c-10.27,7.87-32.41,35-39.65,48.63a19.11,19.11,0,0,1-1.77,2.5,5.41,5.41,0,0,0-1.17,1.93,31.11,31.11,0,0,1-2.52,4.77c-1.38,2.33-4.37,7.61-6.63,11.74-11.08,20.2-16,26.66-23.28,30.48-11.4,6-14.36-3.52-7.38-23.68,1-3,2.41-7,3.07-8.91,6-17.74,19.15-45,29.29-60.72,3.08-4.79,3.1-4.89.66-2.58-6.81,6.45-15.68,19.78-23.88,35.87-4.78,9.39-11.53,24.6-11.53,26a13.46,13.46,0,0,1-1.12,3c-.62,1.32-2.43,6.3-4,11.07-5.23,15.57-8.58,20.16-14.71,20.16-5.75,0-9.23-8.59-8.54-21.1.37-6.58.4-6.72,3.86-18.19A349.58,349.58,0,0,1,167.22,165c7.59-14,7.91-15.13,2.13-7.74-10.63,13.59-22.15,35.78-30.79,59.32-1.28,3.48-2.74,7.59-3.26,9.14-2.74,8.31-4.46,11.83-7.15,14.69-10.67,11.37-19.93-13.77-12.92-35.09,2.41-7.3,9.51-26.13,11.94-31.64.35-.78,1.51-3.52,2.59-6.1A271.62,271.62,0,0,1,142,143c3.87-6.77,3.92-7.17.3-2.58-6.88,8.71-23.79,38.29-23.79,41.61a3.54,3.54,0,0,1-.63,1.54,57.52,57.52,0,0,0-2.61,5.85c-4.1,10.18-5.71,12.37-6.34,8.58-.92-5.51.09-26.39,1.6-33.19.23-1,.88-4,1.43-6.57,4.57-21.24,16.28-44.95,30.89-62.51,2.22-2.67,5-6,6.18-7.51,2.1-2.59,5.32-5.58,14.57-13.53,24.74-21.28,60.89-32.67,89.79-28.3m52.2,111.17c10.47,3.66,18.8,10.82,31.93,27.41,15.9,20.08,24,31.26,27.43,37.63a21,21,0,0,0,1.79,2.9,21.49,21.49,0,0,1,1.84,3.07c1.26,2.46,1.75,1.72.58-.86-.37-.82-1.12-2.54-1.68-3.83C362.1,211.5,351.92,195,340,179.3c-8.37-11-8.36-12.11.1-7.67,27.73,14.55,53.85,43.85,65.36,73.31.2.52.8,2,1.33,3.23a15.89,15.89,0,0,1,1,2.74,8.24,8.24,0,0,0,.66,1.93c1.58,3.54,4.43,13.93,6.39,23.28,3.9,18.68,2.17,47.45-3.8,63.3-.53,1.42-1.24,3.42-1.58,4.46-7.14,21.77-26.13,42.81-47.38,52.49-13,5.92-24,8-40.33,7.62-11.66-.27-15.65-.93-28.6-4.7a94,94,0,0,1-12-4.6l-7-3.56c-4.8-2.41-16.51-9.88-18.55-11.82-1.77-1.69-1.37-2.55,1.64-3.53,24.75-8.09,38.93-31.67,23-38.27-1.84-.76-1.69-1.08,1.62-3.31,7.4-5,12-11.35,12.16-16.69.2-7.82-5.28-29.05-10.38-40.21-.24-.52-1.31-3.05-2.39-5.63s-2.46-5.68-3.08-6.9a10.76,10.76,0,0,1-1.12-3.11,1.28,1.28,0,0,0-.62-1.15c-.34-.13-1.6-2.21-2.8-4.62-3.75-7.52-8.22-15.41-17.12-30.17-4.68-7.76-10.19-18.55-10.65-20.86a14.49,14.49,0,0,0-1-3c-1-2-1-10.86,0-12.84,3.29-6.27,15.59-.86,23.14,10.19a11.09,11.09,0,0,0,1.35,1.64c.53.45,4.42,4.93,9.37,10.79,4.46,5.29,14.46,19.12,20,27.66,1.67,2.58,3.45,5.3,3.94,6.05s1.35,2.12,1.89,3c5,8.66,6.47,11.2,8.56,15.23,2.9,5.58,3,5.35.54-1.71-7.39-21.37-22-44.47-44.74-70.67-11.22-12.93-13.69-18.75-10-23.56,4.56-6,22,.43,32.36,11.93,1.87,2.07,4.33,4.74,5.45,5.93,10.29,10.89,30.28,36.83,33.56,43.55.53,1.09,1.19,2,1.46,2s1.39,1.53,2.48,3.4c2,3.35,5.26,8.82,6.17,10.2.25.39.9,1.52,1.44,2.51,1.59,2.95,1.57,1.6-.06-2.83-6.47-17.6-22.71-42.35-43.2-65.83-7.09-8.13-9.76-12.7-9.75-16.74,0-2.3,1.49-4.69,3.14-5a15.31,15.31,0,0,0,1.78-.48c1.38-.55,9.16.25,11.95,1.23m-54.19,19.39c.77,2.55.9,2.45-3.43,2.78l-3,.24,2.73-2.77a19.27,19.27,0,0,1,2.88-2.61,18.33,18.33,0,0,1,.81,2.36m-14,18.75c.11,9.58,2.53,15.36,15.87,37.8,10.13,17.06,16.12,28.14,20.64,38.21,5.23,11.67,6.31,15.27,3.84,12.79-1.63-1.63-8-4.8-11.82-5.9-5.14-1.48-8.18-1.63-35.63-1.74-26.9-.11-35.83-.52-48.18-2.19-7.21-1-8.54-1.39-6.26-2,7.86-2,17.15-12.47,27-30.52,2-3.61,5.53-10,7.9-14.14s4.3-7.77,4.3-8a2.83,2.83,0,0,1,.91-1.27,11.53,11.53,0,0,0,1.88-2.88c.53-1.14,1.17-2.07,1.43-2.07s1-1,1.6-2.25a12.07,12.07,0,0,1,1.88-2.87,2,2,0,0,0,.74-1.16,11.45,11.45,0,0,1,1.76-2.93c1-1.31,3.29-4.49,5.16-7.05,2.91-4,6.56-8.59,6.83-8.59.05,0,.12,3,.15,6.75M107.9,206.22a27.09,27.09,0,0,1-.74,5c-4.63,23.05,7.1,44.29,20.76,37.6,3.38-1.65,3.22-1.74,3.23,1.65,0,9.91,4.84,18.93,11.28,21.17,1.4.48,4,1.49,5.75,2.22,15.8,6.6,47.6,10.38,82.36,9.79,24.7-.42,31.65.19,38.27,3.35,7.42,3.55,9.17,6.72,6.16,11.21s-8.05,6.26-30.83,10.48c-18,3.34-43.83,5.34-61.35,4.76-6.6-.21-9.44-.16-9.23.18a1.44,1.44,0,0,0,1.12.49,24.27,24.27,0,0,1,3.6.73c11.49,3,38.61,3.3,58.36.65l7-.92c4.06-.51,9.6-1.49,17.59-3.11l8.2-1.64c4.11-.79,11.55-.29,14,.95,5.37,2.77,5,10.35-.72,14a8.53,8.53,0,0,0-1.88,1.61c-.94,1.27-4.8,3.92-8.09,5.54-1.67.83-3.59,1.8-4.25,2.15-1.34.71-14.32,4.18-19.43,5.2-9.41,1.87-19.72,3.36-36.8,5.33-6,.69-18.7,1.46-29.78,1.81l-9.84.3,4,.8c11.51,2.32,40.61,2.51,53.45.35,1.42-.24,4.69-.65,7.26-.92a142.05,142.05,0,0,0,14.55-2.34l7.27-1.38c16.93-3.22,23.65-.05,19.29,9.12-5.74,12.07-20.58,18.44-53.05,22.75l-8.91,1.2a251.85,251.85,0,0,1-30.71,2.41l-12.19.29,4.68.86c6.55,1.21,21.73,1.77,34.47,1.26,10-.39,13.57-.72,27.73-2.58,8-1,9.57-.32,5.2,2.4a152.4,152.4,0,0,1-15.35,8.77c-19.82,9.8-39.34,14.15-63.53,14.15-12.06,0-13.4-.12-29.08-2.53-6.17-.95-22.49-5.56-26.49-7.48-.51-.25-2.09-.89-3.51-1.44a171.14,171.14,0,0,1-17.35-8.83c-10.76-6.76-16-10.87-23.48-18.32C40,338.4,30.36,303.1,41.14,271a73,73,0,0,1,5.21-12.43c11.26-22.38,30.24-39.71,56.64-51.7,2.75-1.25,4.4-1.46,4.91-.62m52.28,60.67a11.37,11.37,0,0,0,1.67,2.58c1.47,1.75,1.21,1.81-3.16.69l-3.16-.81,1.74-1.77c2-2.07,2.35-2.15,2.91-.69m124.33,33.64c1,3.51,1,3.41-1.08,3-2.86-.54-3.09-.9-1.9-3a8.25,8.25,0,0,0,1.06-2.63c0-1.76,1.15-.19,1.92,2.62"/><path id="path4" class="cls-4" d="M231.14,39.21a8.3,8.3,0,0,0,2.34,0c.58-.11,0-.2-1.3-.19s-1.76.09-1,.2m16.17,0a4.93,4.93,0,0,0,1.88,0c.44-.11,0-.2-1.06-.2s-1.4.1-.82.21m-23.1.61c-2.72.49.17.51,3.29,0,2.22-.35,2.24-.36.47-.36a25,25,0,0,0-3.76.34m26.53-.3a17.73,17.73,0,0,0,3,.43c1.75.16,2.37.12,1.64-.12-1.15-.38-5-.64-4.65-.31m-34.5,1.71c-1.26.32-1.28.36-.23.36a9,9,0,0,0,2.34-.36c1.58-.51-.12-.51-2.11,0m45,0a5.13,5.13,0,0,0,1.64.4c.44,0,.35-.15-.24-.4a5.17,5.17,0,0,0-1.64-.41c-.44,0-.36.15.24.41m-50.64,1.4c-.6.26-.68.41-.24.41a4.92,4.92,0,0,0,1.64-.41c.59-.25.68-.4.24-.4a5.13,5.13,0,0,0-1.64.4m56.26,0a5,5,0,0,0,1.64.41c.45,0,.36-.15-.23-.41a5.26,5.26,0,0,0-1.64-.4c-.45,0-.36.15.23.4M271.34,44a8.82,8.82,0,0,0,2.11.72c.9.19,1.15.15.7-.11a9.14,9.14,0,0,0-2.11-.72c-.9-.19-1.15-.15-.7.11m-42,1.94c-1,.18.76.22,4,.1s5.95-.3,6-.39c.34-.3-8.08,0-10,.29m12-.29A54.13,54.13,0,0,0,247,46c3.38.15,4.61.1,3.29-.13-2.11-.37-9.24-.59-8.87-.27m-45.29,2c-1.18.57-1.21.63-.23.4a4.54,4.54,0,0,0,1.61-.7c.61-.57.28-.5-1.38.3M220,47.31c-1.27.33-1.29.36-.23.38a6.23,6.23,0,0,0,2.11-.38c1.16-.5.08-.5-1.88,0m37.75,0a8.27,8.27,0,0,0,2.11.38c.74,0,.69-.08-.24-.38a8.69,8.69,0,0,0-2.11-.37c-.74,0-.69.08.24.37m-44.48,1.48c-.86.25-1.48.54-1.37.65a6.1,6.1,0,0,0,2.28-.45c2.33-.73,1.54-.91-.91-.2m-5.93,1.8c-.59.26-.67.41-.23.41a5,5,0,0,0,1.64-.41c.59-.25.68-.4.24-.4a5.25,5.25,0,0,0-1.65.4M186,52c-.9.5-1.43.9-1.17.9a7.89,7.89,0,0,0,2.11-.9c.9-.49,1.43-.9,1.17-.9A8.26,8.26,0,0,0,186,52m16.64.25c-1.17.57-1.21.63-.23.39,1.33-.32,2.82-1.08,2.11-1.07a7.41,7.41,0,0,0-1.88.68m71-.33a8.44,8.44,0,0,0,1.88.75c.81.22.95.18.46-.12a8.34,8.34,0,0,0-1.87-.75c-.82-.22-1-.18-.47.12m-78.3,3.13c-.65.37-1,.67-.7.67a5.25,5.25,0,0,0,1.64-.67c.64-.37,1-.67.7-.67a5.07,5.07,0,0,0-1.64.67m-4.22,1.87c-.65.37-1,.68-.71.68a5.16,5.16,0,0,0,1.64-.68c.65-.37,1-.67.71-.67a5.07,5.07,0,0,0-1.64.67m-2.93,1.44c-1.76,1-1.65,1.35.11.44a4.19,4.19,0,0,0,1.41-.95c0-.3-.05-.29-1.52.51M301,60.22c.7.74,1.36,1.25,1.46,1.13s-.47-.71-1.27-1.34l-1.47-1.13L301,60.22M169.24,61.89a9.83,9.83,0,0,0-2,1.65,7.69,7.69,0,0,0,2.11-1.22,10.82,10.82,0,0,0,2.11-1.67c0-.32-.08-.27-2.22,1.24M308.14,67c2.83,2.84,5.25,5.16,5.38,5.16s-2.08-2.32-4.91-5.16-5.25-5.15-5.37-5.15,2.08,2.32,4.9,5.15m-13.83-3.62a13.69,13.69,0,0,0,2,1.77c1.1.87,1.7,1.21,1.34.76-.69-.85-3.33-2.86-3.33-2.53m-133.4,4.85L159,69.91l2-1.49c1.72-1.29,2.34-1.91,1.88-1.88a25.48,25.48,0,0,0-2,1.69m10.15.62a32.68,32.68,0,0,0-3,2.41c-.59.65,4.2-2.63,5.3-3.63,1.26-1.14.28-.62-2.26,1.22m132,2.4a35.83,35.83,0,0,0,4.41,4.32,35.39,35.39,0,0,0-4.2-4.48l-4.41-4.32,4.2,4.48m-145.87.09-1.38,1.52,1.52-1.37A12.48,12.48,0,0,0,158.8,70c0-.37-.38,0-1.66,1.37m7.51,2.5L162.32,76l2.46-2c2.21-1.78,2.74-2.31,2.34-2.31a31.83,31.83,0,0,0-2.47,2.15m-12.88,2.21c-3.63,3.47-10.56,10.65-10.28,10.65.11,0,3.25-3.06,7-6.8,7-7,8.66-9,3.31-3.85m8.49,1.3c-.61.51-1,1-.9,1.15s.72-.3,1.32-1c1.32-1.4,1.13-1.49-.42-.2m147.65-.53c0,.28.17.5.38.5a15.13,15.13,0,0,1,2.61,3.05c2,2.7,3.3,4.07,2.34,2.46-1.66-2.82-5.33-7-5.33-6m11.47,3.66a10.29,10.29,0,0,0,1.51,2c.34,0-1.46-2.86-2.16-3.44-.37-.3-.07.35.65,1.44M153.85,83.3c-2.34,2.26-3.29,3.24-2.11,2.19s2.74-2.36,3.46-2.91c1.17-.87,3.44-3.39,3.05-3.38-.08,0-2.06,1.85-4.4,4.1M314,84.74A4.14,4.14,0,0,0,315,86c.37.22.37,0,0-.66a3.84,3.84,0,0,0-1-1.28c-.36-.23-.36,0,0,.65M139.85,88.47l-.9,1.28,1.26-1.14c1.31-1.2,1.47-1.45.9-1.43-.2,0-.76.59-1.26,1.29m3.9,6.08c-1.86,2.26-3.83,4.61-4.36,5.22s-.74,1-.45.94a27.38,27.38,0,0,0,3.51-3.89c1.65-2,3.48-4.31,4.08-5s1-1.33.85-1.33a41.78,41.78,0,0,0-3.63,4.1m174.8-2.4c.48,1.26,2.94,5.59,2.95,5.2a31.93,31.93,0,0,0-3-6c-.12,0-.09.34.08.76m-184.88,4L131,99.71c-.25.32-.35.59-.22.59a29.36,29.36,0,0,0,2.88-3.52,24.29,24.29,0,0,0,2.43-3.52,22.82,22.82,0,0,0-2.43,2.93m194-1.29a5.23,5.23,0,0,0,.66,1.64c.37.65.67,1,.67.71a5.07,5.07,0,0,0-.67-1.64c-.36-.65-.66-1-.66-.71m1.62,4.22a5.32,5.32,0,0,0,1,2.11c.51.54.49.27-.11-1.17-1-2.38-1.31-2.73-.89-.94m-6.14,2.58a41.34,41.34,0,0,0,2.73,6.8c.22.26-.26-1.32-1.06-3.5-1.42-3.87-2.33-5.67-1.67-3.3m-185.28.12c-.92,1.18-1.23,1.91-.68,1.57s1.67-2.16,1.32-2.16c-.1,0-.4.27-.64.59m193.31,1.76a8.84,8.84,0,0,0,.75,1.87c.3.49.34.35.12-.47a8.54,8.54,0,0,0-.75-1.87c-.3-.49-.34-.35-.12.47M134.45,107c-1.36,2-1.54,2.41-.57,1.29a25.26,25.26,0,0,0,2.18-2.94c1.38-2.32.42-1.34-1.61,1.65m-4.63,7c-2.57,4.28-4,6.92-3.67,6.92a39.16,39.16,0,0,0,2.66-4.34c1.36-2.39,2.78-4.81,3.16-5.39s.57-1.06.43-1.06a26.36,26.36,0,0,0-2.58,3.87m196.69-2.7a9.06,9.06,0,0,0,.67,2.11c.7,1.27.46-.52-.28-2.11l-.67-1.4.28,1.4m7.69,2.15a6.27,6.27,0,0,0,.46,2.07c.29.66.33.37.14-.93-.33-2.18-.65-2.77-.6-1.14m-6.52,1.6c0,1,1.2,5,1.27,4.23a16.65,16.65,0,0,0-.61-2.82c-.36-1.29-.66-1.92-.66-1.41m-208.52,4c-.41.8-.67,1.54-.56,1.64s.53-.55,1-1.45c1-2,.63-2.18-.4-.19m216.51.66a8.23,8.23,0,0,0,.37,2.11c.3.93.38,1,.38.24A8.27,8.27,0,0,0,336,120c-.3-.93-.37-1-.37-.24m-6.09,4a12.72,12.72,0,0,0,.37,2.58l.35,1.41v-1.41a10,10,0,0,0-.36-2.58l-.38-1.17v1.17m-205.94,1.41c-.3.56-.44,1.12-.31,1.25s.48-.22.78-.79.44-1.12.31-1.25-.48.23-.78.79M122,128.79c-1.4,2.9-2.16,4.8-1.91,4.8s3.12-6.19,2.91-6.4-.53.63-1,1.6m215.29,1.51a21.37,21.37,0,0,0,.43,3.25c.32.35.07-3.46-.31-4.89-.24-.88-.28-.28-.12,1.64m-223-1.15c-.79,1.73-.64,2.09.21.53.4-.74.63-1.42.53-1.53s-.44.34-.74,1m216.18.22c0,.9.1,1.27.22.82a4.12,4.12,0,0,0,0-1.64c-.12-.46-.22-.09-.22.82m.6,16.41c0,7.35.13,12.2.3,10.78a198.18,198.18,0,0,0,0-21.8c-.17-1.29-.31,3.67-.31,11M119,135.51a4,4,0,0,0-.35,1.68c.1.1.44-.47.77-1.26s.48-1.55.35-1.68-.48.43-.77,1.26m219,.42c0,1.16.1,1.63.21,1a6.79,6.79,0,0,0,0-2.11c-.11-.57-.21-.1-.21,1.06m-192.89.34c-.87,1-2.61,3.14-3.86,4.82-2.42,3.26-1.36,2.23,1.93-1.86,1.85-2.32,2.78-2.8,1.36-.71s-3.22,5.57-2.55,4.91c1-1,5.24-8.4,4.95-8.69-.13-.14-.95.56-1.83,1.53m-33.65.18a3.72,3.72,0,0,0-.34,1.69c.1.1.42-.5.71-1.32a3.88,3.88,0,0,0,.34-1.69c-.1-.1-.42.49-.71,1.32m6.12,2.55c-.79,1.72-.64,2.09.21.52.4-.73.64-1.42.53-1.52s-.44.34-.74,1m18.5,9.24c-3.05,4.72-5.15,8.32-4.84,8.32a23.28,23.28,0,0,0,2.24-3.4c1.11-1.87,2.67-4.35,3.48-5.51,1.93-2.79,2.22-3.28,1.89-3.28a27.81,27.81,0,0,0-2.77,3.87m3.95-2a5.71,5.71,0,0,0-.78,1.92c.35,0,2.21-3.39,2-3.62s-.66.64-1.2,1.7m-25.54,1.72a2.76,2.76,0,0,0-.11,1.45c.11.11.34-.36.51-1.05a2.76,2.76,0,0,0,.11-1.45c-.11-.11-.34.36-.51,1m-7.5,1.87a2.59,2.59,0,0,0-.11,1.46c.11.11.34-.37.51-1.05a2.76,2.76,0,0,0,.11-1.45c-.11-.11-.34.36-.51,1m184.12-.21c-1.78.52-2.09,1-.35.61.64-.16,2.28-.46,3.63-.65l2.46-.37h-2.11a15.61,15.61,0,0,0-3.63.42m10.19.19a28.41,28.41,0,0,0,4.13.48c.32-.32-4.26-1.19-6.09-1.14-1.53,0-1.06.19,2,.66m-128.5,2.64a108,108,0,0,0-7.64,9.78c-.38.75.7-.54,5-6,4.47-5.65,3.73-3.48-3,8.81a384.89,384.89,0,0,0-19.6,43.47c-2.79,7.43-8.59,25.95-9.16,29.21-2.16,12.45.9,26.18,6.14,27.49,1.79.45,5.31-.12,6.16-1s.7-.78-.22-.31c-3.39,1.73-6.84-8.33-6.88-20.09,0-9.39,6.06-32.93,13.44-51.92,6.81-17.49,9.06-22.72,14.65-34,2.72-5.49,2.79-5.68,2-5.18-.34.21-.42.13-.21-.22a.59.59,0,0,1,.76-.29c.48.3,1.53-1.47,1.29-2.19-.09-.27-1.32.85-2.74,2.49M286,152.15a13.79,13.79,0,0,0-2.48,2.63c-.28.53.41,0,1.53-1.09a24.23,24.23,0,0,1,3-2.61c.52-.31.71-.57.44-.59a8.12,8.12,0,0,0-2.47,1.66m21.89-1a9.09,9.09,0,0,0,1.88.66c.61,0-2.07-1.35-2.75-1.35-.39,0,0,.31.87.69m-194.75,1.62a3.44,3.44,0,0,0-.11,1.69c.12.12.35-.46.52-1.28.39-2,0-2.33-.41-.41m198.1-.27c1.31.79,2.34,1,1.62.32a4.86,4.86,0,0,0-1.62-.72l-1.17-.31,1.17.71m26.86,2.38c0,1.29.09,1.76.2,1.05a8.39,8.39,0,0,0,0-2.35c-.11-.57-.2,0-.2,1.3m-232.87,2.64c-.39,1.95,0,2.33.41.41a3.39,3.39,0,0,0,.1-1.69c-.12-.12-.35.45-.51,1.28m188.43-1.27a15.31,15.31,0,0,1-1.78.48c-3.68.81-4,8.24-.57,12.71.39.5.15-.33-.53-1.85-2.12-4.73-2.08-6.67.12-7.28,8-2.22,24.43,5,32.92,14.45.6.67,2.82,3,4.92,5.21,3.56,3.7,6.09,6.54,16.29,18.27,2.13,2.44,5.45,6.45,7.39,8.91s3.62,4.57,3.74,4.7.32,0,.44-.37c.17-.5.35-.5.94,0,1.63,1.34-7.6-10.93-20-26.59-13.13-16.59-21.46-23.75-31.93-27.41-2.79-1-10.57-1.78-11.95-1.23m26.72,1.29c.78.6,2.57,2,4,3.17s2.27,1.71,1.9,1.25a45.8,45.8,0,0,0-6.59-5.16c-.39-.19-.07.14.7.74m-38.38.95a13.81,13.81,0,0,0-.29,2.87c0,1.63-.1,1.76-1.06,1.49s-.91-.19-.36.2c1.37,1,1.75.5,2-2.42.28-3.11.16-3.9-.31-2.14m55.59,1.65c-.08,2.6,0,3,1,3.42s1,.44.26-.13c-.54-.44-.85-1.54-1-3.43l-.17-2.78-.09,2.92M264,158.3a10.13,10.13,0,0,0,2.58,0c.71-.1.13-.19-1.29-.19s-2,.09-1.29.19m5.74.6a5,5,0,0,0,1.65.41c.44,0,.35-.15-.24-.41a5.13,5.13,0,0,0-1.64-.4c-.44,0-.36.15.23.4m-158.18.71a19.45,19.45,0,0,1-.32,2.11l-.24,1.17.51-1.15a4.37,4.37,0,0,0,.31-2.11c-.19-.94-.2-.94-.26,0m17,1.17c-.4.77-.62,1.41-.49,1.41a4.11,4.11,0,0,0,1-1.41c.4-.77.62-1.41.49-1.41a4.27,4.27,0,0,0-1,1.41m127.87-.35c-5.4,3.94-11.82,9.41-11.82,10.07,0,.18,1-.63,2.23-1.8a48.22,48.22,0,0,1,4.1-3.46c1-.74,2.62-2,3.52-2.79s2.17-1.79,2.81-2.23,1-.81.89-.82a6.81,6.81,0,0,0-1.73,1m74,1.35c-.05,1.65-1.18,2.61-2.15,1.81-.4-.33-.7-.38-.7-.1,0,.64,1.24,1.08,2.11.74s1.4-2.14,1-3.08c-.13-.33-.26-.05-.28.63m-198.76,1.13c-.79,1.72-.64,2.09.21.53.4-.74.63-1.42.53-1.53s-.44.34-.74,1m-27.9,1.1a13.31,13.31,0,0,0-.26,2.57c0,.55.24,0,.47-1.11a10,10,0,0,0,.26-2.57c-.09-.26-.29.24-.47,1.11m21.72,2.4a20.51,20.51,0,0,0-1.65,3.75,22.84,22.84,0,0,0,2.12-3.75,19.22,19.22,0,0,0,1.65-3.75,24.08,24.08,0,0,0-2.12,3.75m36.69.35c-2.31,3.62-3.78,6.21-3.24,5.71.23-.2,2.8-4.2,5.78-9,.12-.2.12-.35,0-.35a28.33,28.33,0,0,0-2.54,3.63m99.63-1.19c-2.43.64-4.08,2.88-4.29,5.82-.08,1.26-.07,1.84,0,1.29.84-4.14,13.3-1.24,23.85,5.54,2.1,1.35,6.74,5.53,12.72,11.45a286.06,286.06,0,0,1,25.58,28.17c7.4,9,20,26.45,22.35,31,.31.58.76.94,1,.79s.33,0,.19.38a1.26,1.26,0,0,0,.48,1.26c.86.71.91.23.19-1.84-.35-1-.65-1.32-.89-.93s-.68,0-1.35-1.25c-.55-1-1.2-2.14-1.45-2.53-.91-1.38-4.22-6.85-6.17-10.2-1.09-1.87-2.21-3.4-2.48-3.4s-.93-.9-1.46-2c-3.28-6.72-23.27-32.66-33.56-43.55-1.12-1.19-3.58-3.86-5.45-5.93-8.2-9-22.44-15.9-29.31-14.07m-58.1.49a44.65,44.65,0,0,0-3.44,3.86l-2.7,3.29,3.18-3.05c3.43-3.3,3.44-3.26.29,1.64-10.14,15.77-23.26,43-29.29,60.72-.66,1.93-2,5.94-3.07,8.91-5.7,16.48-5,25.41,2.11,25.41,2.42,0,6-1.6,4.37-2A4.76,4.76,0,0,1,173,263c-3.12-4.63-2.72-9.88,2-25.81,1-3.23,1.94-6.6,2.19-7.5,2.05-7.49,8.41-24.48,13.25-35.4,3.12-7.06,4-8.83,6.94-14.69,1.75-3.44,4.24-7.89,5.53-9.9a35.25,35.25,0,0,0,2.33-3.95c0-.48-.69-.35-1.49.29m-93.87,2.51a10,10,0,0,0-.1,2.87,6.22,6.22,0,0,0,.53-2.44,9.32,9.32,0,0,0,.11-2.86c-.13-.13-.37,1-.54,2.43m223.84,1.15a17.13,17.13,0,0,0,2.85,4.92c.23.14.29-.09.12-.52-.25-.65,0-.62,1.63.21,2.87,1.47,2.88,1.24.09-1.59-1.48-1.5-2.26-2.6-1.86-2.61s.34-.18-.25-.44c-1.34-.57-2.58-.56-2.58,0m-39.61,3.69a36.92,36.92,0,0,0,3.18,3.63c.54.47-.13-.51-1.51-2.18a34.53,34.53,0,0,1-2.73-3.64.86.86,0,0,0-.68-.59c-.24,0,.54,1.25,1.74,2.78m-172.51.76c-1.65,3.6-1.51,3.9.24.51a9.68,9.68,0,0,0,1.2-3c-.12-.12-.77,1-1.44,2.45m-19.21.08a29.5,29.5,0,0,0-.23,4.35c0,2.06.13,1.74.44-1.63.39-4.43.29-5.72-.21-2.72M240.1,175c-5,5.24-16.06,18.64-17.24,21-.51,1,.23.11,3.92-4.71,3.48-4.55,10.85-13.24,14-16.51a11.74,11.74,0,0,0,1.91-2.23,20.88,20.88,0,0,0-2.6,2.46m101.57-2.24a6.63,6.63,0,0,0,1.87,1.19c1,.53,1.88.85,1.88.72a6.77,6.77,0,0,0-1.88-1.19c-1-.53-1.87-.85-1.87-.72M126.9,174.21c-.26.68-.39,1.32-.28,1.43s.42-.45.69-1.24c.61-1.75.24-1.92-.41-.19m-17.69.64c0,.9.1,1.27.22.82a4.12,4.12,0,0,0,0-1.64c-.12-.45-.22-.09-.22.82m247.72-.55c1.56,1.37,10.51,8,10.78,8a49.47,49.47,0,0,0-5.18-4.22c-3-2.32-5.63-4.22-5.78-4.22s-.06.18.18.39m-109.25,2.86L245,179.93l3-.24c4.33-.33,4.2-.23,3.43-2.78a18.33,18.33,0,0,0-.81-2.36,19.27,19.27,0,0,0-2.88,2.61M258,175.78c.45,1.71,1.11,2.82,1.1,1.88a5,5,0,0,0-.7-1.88l-.71-1.17.31,1.17m-101.78.94c-.4.78-.63,1.41-.5,1.41a4,4,0,0,0,1-1.41c.39-.77.62-1.4.49-1.4a4,4,0,0,0-1,1.4m183.59,2.35a36.79,36.79,0,0,0,3.13,3.75c.26,0,0-.39-3.16-4.63a13.67,13.67,0,0,0-2.49-2.86c-.21,0,.92,1.67,2.52,3.74m-145.23-2.23a11.23,11.23,0,0,0-1.32,1.76c-.4.75-.29.64,1.61-1.53.62-.7,1-1.29.9-1.29a4.42,4.42,0,0,0-1.19,1.06m-69,.6c-.78,1.73-.63,2.1.22.53.39-.73.63-1.42.52-1.52s-.44.34-.74,1m172.94.87a42.47,42.47,0,0,0,3.47,4.4c5.05,6,7.4,8.43,3.95,4.16-1.63-2-3.39-4.24-3.9-4.92-1.31-1.73-3.52-4-3.52-3.64m-190,4.39c-.12,2.26-.08,6.64.08,9.73.25,4.92.3,4.4.32-4.1,0-10.65-.06-11.87-.4-5.63m15.4-1.21a6.39,6.39,0,0,0-.6,2.13c.1.1.52-.7,1-1.78a5.78,5.78,0,0,0,.6-2.13c-.1-.1-.52.7-1,1.78m136.65-.09a15.51,15.51,0,0,0,2.47,3.17l1.42,1.3L263,184.1a21.65,21.65,0,0,1-2.22-3.16,3.72,3.72,0,0,0-1-1.4c-.14,0,.21.83.79,1.86m-143,1.19c-.33.71-.49,1.38-.38,1.5.32.32,1.32-1.71,1.13-2.29-.09-.27-.43.08-.75.79m34.85,1.17a7.17,7.17,0,0,0-1,2.34,9.6,9.6,0,0,0,1.42-2.34,7.17,7.17,0,0,0,1-2.35,9.78,9.78,0,0,0-1.42,2.35m-50.72,1.64c0,2.06.09,2.85.19,1.74a24.64,24.64,0,0,0,0-3.75c-.1-1-.18-.06-.18,2m255.38-2.9a9.79,9.79,0,0,0,1.88,1.72c1,.82,1.87,1.38,1.87,1.25a10,10,0,0,0-1.87-1.71,6.57,6.57,0,0,0-1.88-1.26m11.25.39c0,.1,3.12,3.12,6.92,6.7s5.86,5.42,4.57,4.06c-2.53-2.67-11.49-11.05-11.49-10.76m-246.11,2.79a3.88,3.88,0,0,0-.34,1.69c.1.1.42-.49.71-1.32a3.72,3.72,0,0,0,.34-1.69c-.1-.1-.42.5-.71,1.32m65.5,1c-1.67,2.52-3.07,5-2.56,4.54.25-.23,3.11-4.57,4.23-6.42,1-1.69-.26-.24-1.67,1.88m-71.57-.8c-.78,1.72-.63,2.09.22.52.39-.73.63-1.42.52-1.53s-.44.35-.74,1m231.1,3.26c1.6,2.32,3.63,5.32,4.51,6.68a12.43,12.43,0,0,0,1.85,2.46c.45,0-6-9.57-8-12-.67-.77.09.5,1.68,2.82m-100.47-2.32c-1.73.94-2.54,2.7-2.81,6.07-.13,1.55-.14,2.35,0,1.79.92-4.77,11.91-1.31,18.52,5.82l8.92,9.5c15.95,17,32.62,38.57,40,51.72a12.67,12.67,0,0,0,2,3c.33-.33-7.63-14.61-10.81-19.38-.49-.74-2.27-3.46-3.94-6-5.52-8.54-15.52-22.37-20-27.66-4.95-5.86-8.84-10.34-9.37-10.79a11.09,11.09,0,0,1-1.35-1.64c-6-8.83-16.4-14.93-21.07-12.4m23.36,6.07c3.26,3.74,6,6.8,6.15,6.8.46,0-11.21-13.53-11.71-13.57a72.09,72.09,0,0,0,5.56,6.77M150,188.7c-.78,1.72-.63,2.09.22.52.39-.73.63-1.42.52-1.52s-.44.34-.74,1m214.91.05c4.15,4.17,12.17,11.59,9.37,8.67-1.8-1.88-5-4.92-7-6.75s-3.12-2.7-2.34-1.92m-250.15.63c-.33.79-.48,1.55-.35,1.68s.48-.43.77-1.26a4,4,0,0,0,.35-1.68c-.1-.1-.44.47-.77,1.26m6.17-.21c-.78,1.72-.63,2.09.22.52.39-.73.63-1.42.52-1.52s-.44.34-.74,1m114.6,1.7c-.92,1.08-3.2,4.06-5.07,6.63s-4.19,5.74-5.16,7.05a11.45,11.45,0,0,0-1.76,2.93,2,2,0,0,1-.74,1.16,12.07,12.07,0,0,0-1.88,2.87c-.63,1.24-1.35,2.25-1.6,2.25s-.9.93-1.43,2.07a11.53,11.53,0,0,1-1.88,2.88,2.83,2.83,0,0,0-.91,1.27c0,.25-1.94,3.86-4.3,8s-5.92,10.53-7.9,14.14c-9.85,18.05-19.14,28.55-27,30.52-2.28.58-1,1,6.26,2,12.35,1.67,21.28,2.08,48.18,2.19,27.45.11,30.49.26,35.63,1.74,3.84,1.1,10.19,4.27,11.82,5.9,2.47,2.48,1.39-1.12-3.84-12.79-4.52-10.07-10.51-21.15-20.64-38.21-13.34-22.44-15.76-28.22-15.87-37.8,0-3.71-.1-6.75-.15-6.75s-.83.89-1.76,2m-133.76.86c0,1.41.09,2,.2,1.28a10,10,0,0,0,0-2.57c-.11-.71-.2-.13-.2,1.29M311,193.49a26.75,26.75,0,0,0,2.44,2.93c.33,0-2.8-4.19-3.77-5-.51-.46.09.49,1.33,2.11m-128.91,2.76A8,8,0,0,0,181,198.6a7.15,7.15,0,0,0,1.45-2.18,8.06,8.06,0,0,0,1.05-2.35,9.71,9.71,0,0,0-1.44,2.18m-79.9,1.25c-.07,2.09-.19,2.29-1.72,2.93-2,.83-2.18,1.28-.26.61s2.45-1.48,2.25-3.77l-.19-2-.08,2.26m43.6.11c-.78,1.72-.63,2.09.22.52.39-.73.63-1.42.52-1.52s-.44.34-.74,1m238.32,1.15q4.8,5.4,2.27,2.11a31,31,0,0,0-3-3.28c-.91-.82-.6-.33.73,1.17m-266.47-.42a3.8,3.8,0,0,0-.35,1.69c.1.1.42-.49.71-1.32a3.72,3.72,0,0,0,.34-1.69c-.1-.1-.41.49-.7,1.32m102.76,1c-.92,1.18-1.23,1.91-.68,1.57s1.67-2.16,1.33-2.16c-.11,0-.4.26-.65.59m23.83.35a5.58,5.58,0,0,0,.65,2.34c.85,1.49.86,1.22,0-1.41-.47-1.49-.67-1.76-.68-.93m72.05.7c.75,1,3,4.3,5,7.27,3.4,5,5.16,7.36,4.21,5.62-1.07-1.94-7.87-11.69-9.15-13.12l-1.47-1.64,1.38,1.87m-35.56,5.16c4.26,5.53,5.74,7.28,4.94,5.89s-7.66-10.18-8.46-10.84c-.45-.37,1.13,1.85,3.52,4.95m75.39-3.05,2.23,3.87a9.89,9.89,0,0,0,1.51,2.23c.37,0-3.15-6.26-3.95-7-.49-.47-.42-.15.21.94m21.23-1.26a11.48,11.48,0,0,0,1.53,1.52l1.52,1.38L379,202.63c-1.28-1.42-1.67-1.74-1.67-1.38m-160.21,3c-2.26,3.27-2.62,3.87-2.3,3.87a15.05,15.05,0,0,0,2-2.7c2.52-3.84,2.54-3.87,2.33-3.87a19.77,19.77,0,0,0-2.06,2.7m-38.91-.94c-.16.45-.38,1-.49,1.29s.13.06.54-.44c.74-.91,1-1.67.49-1.67-.14,0-.38.37-.54.82m67.66,1.76a9.14,9.14,0,0,0,.72,2.11c.26.45.3.2.1-.7a8.86,8.86,0,0,0-.71-2.11c-.27-.45-.31-.2-.11.7m-155.14,0c-1.75.95-1.65,1.35.12.44a4.21,4.21,0,0,0,1.4-.95c0-.3,0-.29-1.52.51m51.67.5a2.67,2.67,0,0,0-.28,1.43c.11.11.42-.45.7-1.23.6-1.75.24-1.92-.42-.2m239.15.41a6.89,6.89,0,0,0,1.28,1.17c.39,0-1.55-2.32-1.94-2.33s.06.51.66,1.16m-204.88.2c-.59,1.11-.62,1.58-.07,1.24s1.05-2.15.73-2.15c-.1,0-.4.41-.66.91m214,.5c2.22,2.6,2.26,2.63,1.75,1.64a9.49,9.49,0,0,0-1.82-2.11l-1.33-1.17,1.4,1.64m-276.13.74a2.76,2.76,0,0,0-.11,1.45c.11.11.34-.36.51-1a2.76,2.76,0,0,0,.11-1.45c-.11-.11-.34.36-.51,1.05M141,208.91c-.26.68-.38,1.32-.27,1.43s.41-.45.69-1.24c.61-1.75.24-1.92-.42-.19m106.53.62a4.34,4.34,0,0,0,.9,1.67c.22.14.18-.39-.09-1.17a4.64,4.64,0,0,0-.9-1.68c-.23-.13-.19.4.09,1.18m136.2-.89c.94,1.67,3.63,5.11,3.84,4.9a7.17,7.17,0,0,0-1.57-2.46c-2.19-2.74-2.84-3.44-2.27-2.44M83,209.6c-1.59,1-2.11,1.71-.7.93,1.08-.59,2.76-1.89,2.46-1.9a9.25,9.25,0,0,0-1.76,1m91.93.3c-.16.45-.38,1-.49,1.28s.14.06.55-.44c.73-.91,1-1.67.48-1.67-.13,0-.38.37-.54.83M361,211c.66,1.16,2,3.66,2.92,5.56s1.83,3.34,2,3.22-4.79-9.7-5.57-10.42c-.27-.26,0,.48.69,1.64m-221.36,1.46a3.72,3.72,0,0,0-.34,1.69c.1.1.42-.5.71-1.33a3.7,3.7,0,0,0,.34-1.68c-.1-.1-.42.49-.71,1.32m254.55-.48c0,.37.48,1,1.06,1.32l1.05.65-.93-1.12c-.51-.62-1-1.21-1.06-1.32s-.12.1-.12.47m-220.76,1.15c-.79,1.73-.64,2.09.21.52.4-.73.63-1.41.53-1.52s-.44.34-.74,1m75.41-1a30.31,30.31,0,0,0,2.8,4.86,21.66,21.66,0,0,0-2.57-5c-.13,0-.23.07-.23.16m-135.68,1.76a18,18,0,0,0-.23,3.41c0,1.43.16,1.08.44-1.34.4-3.45.29-4.56-.21-2.07m173.24-1.21c.3.78,8,12,8.22,12s0-.49-3.51-5.63c-3.25-4.75-5-7.1-4.71-6.32M210,215.05a9.38,9.38,0,0,0-1.41,2.23,8.16,8.16,0,0,0,1.74-1.93,7.72,7.72,0,0,0,1.41-2.24,7.25,7.25,0,0,0-1.74,1.94m116.15,0a4.1,4.1,0,0,0,1,1.28c.37.23.37,0,0-.65a4.1,4.1,0,0,0-1-1.28c-.37-.23-.37-.05,0,.65m62.42.08a68,68,0,0,0,5.46,8c.28,0-.07-.57-2.83-4.69-2.63-3.92-3.52-5-2.63-3.28m-250.81,2.4a3.57,3.57,0,0,0-.34,1.69c.09.1.41-.5.7-1.33a3.8,3.8,0,0,0,.35-1.69c-.1-.1-.42.5-.71,1.33m114.59,1.35a4,4,0,0,0,1,1.41c.13,0-.1-.63-.49-1.41a4,4,0,0,0-1-1.4c-.12,0,.1.63.5,1.4m-82,1a5.37,5.37,0,0,0-.58,2.15c.1.11.54-.69,1-1.76a5.51,5.51,0,0,0,.59-2.15c-.11-.11-.55.68-1,1.76m37,0c-.4.77-.62,1.41-.49,1.41a4.11,4.11,0,0,0,1-1.41c.4-.78.62-1.41.5-1.41a4,4,0,0,0-1,1.41m-144.89,5.9-6.08,5.9,6.21-5.77c5.74-5.34,6.44-6,6.08-6-.07,0-2.87,2.65-6.21,5.9m73.91-4.44A3.72,3.72,0,0,0,136,223c.1.1.42-.5.71-1.33a3.72,3.72,0,0,0,.34-1.69c-.1-.1-.42.5-.71,1.33m229.7-.86a22.59,22.59,0,0,0,1.1,2.79c.61,1.36,1.25,2.87,1.42,3.36s.44.76.59.61a4.72,4.72,0,0,0-.71-2.33,13.09,13.09,0,0,1-1-2.48c0-.5-1.39-2.43-1.39-1.95m-34.93,2.68a4.11,4.11,0,0,0,1,1.41c.13,0-.09-.64-.49-1.41a4.27,4.27,0,0,0-1-1.41c-.13,0,.09.64.49,1.41m-162.49.77c-.26.68-.39,1.32-.28,1.43s.42-.45.69-1.24c.61-1.75.24-1.92-.41-.19m196.52-.4a5.47,5.47,0,0,0,1,2.11l1.18,1.7c.06.11.23.08.37-.06s-.25-.86-.87-1.6a10.36,10.36,0,0,1-1.39-2c-.17-.47-.28-.5-.3-.1m37.24,1a4.11,4.11,0,0,0,1,1.41c.13,0-.09-.64-.49-1.41a4,4,0,0,0-1-1.41c-.13,0,.1.63.5,1.41m-8.21-.75c0,.37,5.71,10.12,5.93,10.12s-.9-2.1-4-7.61c-1.35-2.39-1.91-3.12-1.91-2.51m-281.29,2.43a11.8,11.8,0,0,0,.42,3.24c.22.55.28-.32.13-2.11-.3-3.68-.6-4.3-.55-1.13m22-.75c-.32.79-.48,1.55-.35,1.69s.48-.44.77-1.27a3.76,3.76,0,0,0,.35-1.68c-.09-.09-.44.48-.77,1.26m160.31.39a4.15,4.15,0,0,0,1,1.29c.36.22.36,0,0-.65a4,4,0,0,0-1-1.29c-.37-.23-.37,0,0,.65m38.32,1.51c.68,1.3,1.33,2.27,1.45,2.15s-2.15-4.51-2.49-4.51a9.07,9.07,0,0,0,1,2.36m-166.2-.23c-.78,1.72-.63,2.09.21.52.4-.73.64-1.42.53-1.52s-.44.34-.74,1M368,228c0,.76,3,6.05,3.16,5.53s-1.2-5.7-1.55-5.7c-.11,0-.09.69,0,1.52l.25,1.53-.94-1.64c-.52-.91-1-1.46-1-1.24m-166.76,2.42c-.43.66-.7,1.28-.59,1.38s.54-.43,1-1.19c1-1.68.68-1.82-.39-.19m-35.29.3a7.39,7.39,0,0,1-.37,1.64c-.23.67-.17.74.28.33a2,2,0,0,0,.37-1.64c-.12-.61-.24-.76-.28-.33m170.87,2.78c.92,1.83,1.88,3.87,2.13,4.52s.56,1.08.7.94-3.88-8.79-4.27-8.79a15.08,15.08,0,0,0,1.44,3.33m-75.87-.3c.69,1.15,1.34,2,1.43,1.92.25-.25-1.95-4-2.35-4-.19,0,.22.93.92,2.08m-206.21.61-1.62,1.76L54.83,234c1.64-1.5,2-1.9,1.62-1.9a15.66,15.66,0,0,0-1.76,1.76m245.2-.59c.79,1.53,1.44,2.38,1.44,1.88a4.64,4.64,0,0,0-1-1.64q-1-1.17-.48-.24m-168.2,1.15c-.27.79-.4,1.43-.28,1.43.32,0,1.2-2.43,1-2.67s-.42.45-.69,1.24m268.63.26a21,21,0,0,0,1.6,3.52c.88,1.67,1.59,2.83,1.59,2.57a20.61,20.61,0,0,0-1.59-3.51c-.88-1.68-1.6-2.84-1.6-2.58m-202.83,2.58a7.17,7.17,0,0,0-1,2.34,9.81,9.81,0,0,0,1.43-2.34,7.27,7.27,0,0,0,.95-2.35,9.78,9.78,0,0,0-1.42,2.35m210.79-1.64a5.25,5.25,0,0,0,.67,1.64c.37.64.67,1,.67.7a5.16,5.16,0,0,0-.67-1.64c-.37-.65-.67-1-.67-.7m-288.39,3.16c0,3-.39,3.3-1.86,1.41-.64-.82-.84-.93-.53-.31,2.07,4.31,7,4.47,10.83.37,1.63-1.77,1.62-1.77-.58.19-3.12,2.78-3.81,2.55-6.62-2.24L119.9,236v2.7m-69.22,0c-1.38,1.58-2.19,2.7-2,2.7a11,11,0,0,0,1.72-1.88c1.61-2,1.77-2.57.23-.82m112.23-.26a9,9,0,0,0-.49,1.79c-.28,1.39-.28,1.39.42-.18.62-1.36.67-2.67.07-1.61M340.34,241c.27.79.59,1.35.69,1.24s-.65-2.67-1-2.67c-.12,0,0,.65.28,1.43m-145.25.56c-.44.84-1.1,2.06-1.47,2.7-.66,1.12-.65,1.14.1.23.93-1.09,2.72-4.45,2.38-4.45a4.69,4.69,0,0,0-1,1.52m70.85.36a4,4,0,0,0,1,1.4c.12,0-.1-.63-.5-1.4a4,4,0,0,0-1-1.41c-.13,0,.09.63.49,1.41m138.14.82c.53,1.59.89,1.95.89.91a3.37,3.37,0,0,0-.7-1.53c-.64-.83-.65-.78-.19.62m7.25-.35a8.54,8.54,0,0,0,.75,1.87c.3.49.34.35.12-.47a8.34,8.34,0,0,0-.75-1.87c-.3-.49-.34-.35-.12.47M161.2,243.59a5.07,5.07,0,0,0-.31,2c.11.1.41-.61.68-1.59a4.8,4.8,0,0,0,.3-2c-.1-.11-.4.61-.67,1.59m145.16,1.35c.43.9.86,1.55,1,1.45s-1.21-3.09-1.53-3.09c-.11,0,.14.74.57,1.64m35.55.24c.55,1.89,1.22,2.78.88,1.17a4.9,4.9,0,0,0-.77-1.88c-.3-.3-.34-.06-.11.71m63.6,1c.28.79.59,1.34.7,1.24a4.7,4.7,0,0,0-1-2.67c-.12,0,0,.64.27,1.43M269,247.23a27.91,27.91,0,0,0,2.61,4.51c.27,0-.35-1.48-1.34-3.16-.8-1.36-1.27-1.86-1.27-1.35m-109.48,1.23c-.18.56-.22,1.11-.09,1.24s.38-.22.56-.77.21-1.12.08-1.24-.37.22-.55.77m30.57,1.29c-1.63,2.61-1.93,3.31-.89,2,1.2-1.47,2.56-3.78,2.24-3.78a6.41,6.41,0,0,0-1.35,1.76m216.57-.82c.49,1.81,1.08,3.28,1.32,3.28s-.49-2.61-1.11-3.6c-.46-.73-.49-.69-.21.32m-97.11,2.58c.44,1,1.11,2.67,1.51,3.65s.82,1.69.93,1.58-2.13-6-2.75-6.64c-.26-.26-.12.38.31,1.41m104.88-1.41a10,10,0,0,0,.63,2.11c.35.9.63,1.33.64.94a6.46,6.46,0,0,0-.63-2.11c-.35-.77-.64-1.2-.64-.94m-372.6,2.11c-.4.78-.62,1.41-.49,1.41a4,4,0,0,0,1-1.41c.4-.77.62-1.4.49-1.4a4,4,0,0,0-1,1.4m116.1,1c-.68,2-.36,2.28.42.42.32-.79.48-1.55.35-1.68s-.48.43-.77,1.26m115.17,1.71c1.64,3.59,2.93,5.74,3.45,5.74.23,0,.43.48.44,1.06a10.1,10.1,0,0,0,1.15,3.16c1.37,2.54,1.57,2.14.24-.47a8.36,8.36,0,0,1-.94-2.77,1.65,1.65,0,0,0-.65-1.31,19.26,19.26,0,0,1-2.58-4.24c-2.22-4.42-2.95-5.2-1.11-1.17m135.4-.82c.55,1.89,1.22,2.78.88,1.17a4.9,4.9,0,0,0-.77-1.88c-.3-.3-.34-.06-.11.71m-369.64,4c-.79,1.73-.64,2.09.21.53.4-.73.64-1.42.53-1.53s-.44.34-.74,1m273.34-.25a6.79,6.79,0,0,0,.62,2.11c.36.77.66,1.09.67.7a7,7,0,0,0-.63-2.11c-.35-.77-.65-1.09-.66-.7m97.79.94a5.72,5.72,0,0,0,.67,2.08c.63.69.46-.72-.28-2.32l-.65-1.41.26,1.65M182.72,260a10.66,10.66,0,0,0-1.84,2.11,16.16,16.16,0,0,0,2.31-2.11,10.35,10.35,0,0,0,1.83-2.11,16.37,16.37,0,0,0-2.3,2.11m-29,1.05c-1.85,2.47-1.87,2.54-.3.82s2.83-3.51,2.47-3.51a26.49,26.49,0,0,0-2.17,2.69m264.19.36c.39,1.72.66,2.09.65.89a3.53,3.53,0,0,0-.49-1.6c-.34-.51-.39-.32-.16.71m-104.36.27a27.64,27.64,0,0,0,.92,3c1.08,3.12,1.22,4.48.24,2.22a3.89,3.89,0,0,0-.92-1.52c-.15,0,.06.79.46,1.76.75,1.79,2.57,4,2.57,3.11,0-1.12-3.22-9.57-3.27-8.58m98,2.07a3.42,3.42,0,0,0,.43,1.64c.6.93.6-.24,0-1.64l-.4-.94,0,.94m-376,2.63A3.72,3.72,0,0,0,35.2,268c.1.1.42-.5.71-1.33a3.67,3.67,0,0,0,.34-1.68c-.1-.11-.42.49-.71,1.32m121.73,1.25-1.74,1.77,3.16.81c4.37,1.12,4.63,1.06,3.16-.69a11.37,11.37,0,0,1-1.67-2.58c-.56-1.46-.9-1.38-2.91.69m262.33.34A8.23,8.23,0,0,0,420,270c.3.93.38,1,.38.23a8.43,8.43,0,0,0-.38-2.11c-.3-.92-.37-1-.37-.23m-378,1.22a3.57,3.57,0,0,0-.34,1.69c.09.1.41-.49.7-1.32a3.57,3.57,0,0,0,.34-1.69c-.09-.1-.41.49-.7,1.32m238.15-.73a5.43,5.43,0,0,0,.73,1.62l.7,1.17-.3-1.17c-.32-1.22-1.16-2.42-1.13-1.62m133.23.68c0,1.22.76,3.22.78,2.11a5.69,5.69,0,0,0-.39-1.87c-.25-.58-.4-.67-.39-.24m-131.29,3.78c.27.78.59,1.34.69,1.23s-.65-2.66-1-2.66c-.12,0,0,.64.28,1.43m139,.67a25.07,25.07,0,0,0,.67,3.51c.24.75.27.32.1-1.15a25,25,0,0,0-.67-3.52c-.24-.74-.28-.31-.1,1.16m-380.53,0a5.13,5.13,0,0,0-.31,2c.11.1.41-.61.68-1.59a4.82,4.82,0,0,0,.3-2c-.1-.1-.4.62-.67,1.59m242.59,2.07a4.79,4.79,0,0,0,.81,1.64c.31.31.36.07.13-.71A4.62,4.62,0,0,0,283,275c-.31-.31-.35-.08-.13.71m-250.32,1c-.39,2,0,2.33.41.41a3.44,3.44,0,0,0,.11-1.69c-.12-.12-.36.46-.52,1.28m382.18,1.11a26.69,26.69,0,0,0,.65,3.52c.22.69.26.1.09-1.4a18.6,18.6,0,0,0-.65-3.52c-.21-.53-.25.07-.09,1.4m-375.61.09c-.61,3.07-.87,5.06-.64,4.84s1.33-5.73,1.09-6-.31.4-.45,1.13m245.2,1.09a20.7,20.7,0,0,0,.94,2.58l.62,1.4-.28-1.4a10.27,10.27,0,0,0-.93-2.58l-.66-1.18.31,1.18M31.1,283.67a15.45,15.45,0,0,0-.24,2.95c0,.87.22.34.46-1.32.43-3,.27-4.11-.22-1.63m391.33.66a38.6,38.6,0,0,0,.33,4.45c.31,2.23.36,2.33.38.71a37,37,0,0,0-.34-4.46c-.31-2.23-.36-2.32-.37-.7m-136.29-.23a8.54,8.54,0,0,0,.75,1.87c.3.49.34.35.12-.47a8.34,8.34,0,0,0-.75-1.87c-.3-.49-.34-.35-.12.47M415.86,286c0,.9.09,1.27.21.82a3.78,3.78,0,0,0,0-1.64c-.12-.45-.21-.08-.21.82M37.2,289.37a128.89,128.89,0,0,0,.09,17.47c.17,1.29.31-2.67.31-8.8,0-12.36,0-12.1-.4-8.67m250.35-1.06a8.44,8.44,0,0,0,.75,1.88c.3.49.33.35.12-.47a8.84,8.84,0,0,0-.75-1.87c-.31-.49-.34-.35-.12.46M416.45,301c0,7.76.12,11.31.31,8.91a152,152,0,0,0,0-18.75c-.16-1.68-.3,2.75-.3,9.84m-386-10.31c0,1.16.09,1.63.2,1.06a6.29,6.29,0,0,0,0-2.12c-.11-.57-.2-.1-.2,1.06m241.62-1.32c-.11.34-.33,1.2-.48,1.92-1,4.55-6.66,7.69-19.72,10.92-3.61.9-7.31,1.83-8.21,2.08-13.15,3.61-44.49,8.28-57,8.49-6.77.12-6,.78.93.83a345.5,345.5,0,0,0,56.5-4.91c26.09-4.83,32.37-7.62,32.35-14.36,0-2-3.95-6.46-4.41-5m17.14,3.94a9.49,9.49,0,0,0,.74,2.07c.41.4-.41-3-.84-3.48-.22-.23-.18.4.1,1.41m134.22,7.23c0,4.25.07,6,.16,3.86s.09-5.6,0-7.73-.16-.39-.16,3.87m-132.59-2.35a15.6,15.6,0,0,0,.71,2.58c.28.64.32.42.11-.7a14.52,14.52,0,0,0-.7-2.58c-.29-.64-.32-.42-.12.7m-8.26-.25a8.25,8.25,0,0,1-1.06,2.63c-1.19,2.11-1,2.47,1.9,3,2.07.39,2,.49,1.08-3-.77-2.81-1.92-4.38-1.92-2.62M30.45,304.49c0,1,.1,1.4.21.82a4.92,4.92,0,0,0,0-1.88c-.11-.45-.2,0-.2,1.06M292.21,304c1,5.28,1.14,5.69.88,2.56a10.51,10.51,0,0,0-.69-3.5c-.29-.29-.35,0-.19.94M30.86,309a15.82,15.82,0,0,0,.43,3c.25.93.3.45.12-1.4-.28-3.1-.64-4.13-.55-1.61m392,3.72c-.05,1.16-.19,2.95-.31,4l-.22,1.88.48-1.88a14.86,14.86,0,0,0,.31-4l-.17-2.11-.09,2.11M284,312.21c0,3.46-12.65,16-16.15,16-.13,0-1.55.61-3.17,1.35-5.07,2.32-12,4.46-14.1,4.34a7.6,7.6,0,0,0-3.12.86c-1.86.95-2.63,1.14-14.57,3.74a376.39,376.39,0,0,1-48.49,7.07c-9.9.65-9.19,1.12,1.13.75a394.93,394.93,0,0,0,48.76-4.52c13.41-2,30.77-5.89,34.2-7.71.66-.35,2.58-1.32,4.25-2.15,3.29-1.62,7.15-4.27,8.09-5.54a8.53,8.53,0,0,1,1.88-1.61c4.11-2.62,5.8-8.21,3.51-11.6-1.29-1.9-2.22-2.3-2.22-.94m9.73,1a23.67,23.67,0,0,1-.12,7.5c-.2.87-.15,1,.2.47.87-1.31,1-5.3.29-7.74l-.7-2.34.33,2.11m-124.14-.11c0,.67.85.92,4,1.21,1.52.13,2.24.13,1.6,0a4.66,4.66,0,0,1-1.64-.63c-.78-.63-4-1.09-4-.57m-131.21.81c0,1,1.2,5,1.27,4.22a16.62,16.62,0,0,0-.61-2.81c-.36-1.29-.66-1.93-.66-1.41m-6.08,3.28a8.27,8.27,0,0,0,.38,2.11c.29.93.37,1,.37.24a8.69,8.69,0,0,0-.37-2.11c-.3-.93-.38-1-.38-.24m382.32,6.38a5.69,5.69,0,0,0-.1,2.16c.11.11.35-.67.53-1.74a5.57,5.57,0,0,0,.11-2.16c-.12-.12-.36.66-.54,1.74M292.44,323c-.3.56-.44,1.13-.31,1.26s.47-.23.78-.79.43-1.12.3-1.25-.48.22-.77.78m-258.54.71c.39,1.72.65,2.09.65.89a3.53,3.53,0,0,0-.49-1.6c-.35-.51-.39-.32-.16.71m387.26,1.42a6.8,6.8,0,0,0-.11,2.39c.12.12.36-.76.54-2a6.8,6.8,0,0,0,.11-2.39c-.11-.12-.36.77-.54,2m-132.94,3.47a52.3,52.3,0,0,1-6.45,5.6c-3.31,2.22-3.47,2.54-1.62,3.3,5.6,2.32,7.45,7.63,5.42,15.51-.1.39.17,0,.6-.94a12.4,12.4,0,0,0,.81-4.71c0-4.56-1.35-6.66-6.88-10.44-.77-.53-.54-.8,2.35-2.77a36.68,36.68,0,0,0,8.5-7.75c1.51-2.13,1.25-1.92-2.73,2.2M41.85,326.76a9,9,0,0,0,.75,1.88c.3.49.34.35.12-.47a8.66,8.66,0,0,0-.74-1.88c-.31-.49-.34-.34-.13.47m-6.56,1.41a8.64,8.64,0,0,0,.75,1.88c.3.48.34.34.12-.47a8.44,8.44,0,0,0-.75-1.88c-.3-.49-.34-.35-.12.47m377.88,2.34a3.26,3.26,0,0,0-.1,1.69c.11.13.35-.45.51-1.28.39-1.95,0-2.33-.41-.41m6.16,2.88c-.4,1.95,0,2.33.41.41a3.52,3.52,0,0,0,.1-1.69c-.12-.12-.35.45-.51,1.28m-7.71,3.08c-.69,2.26-.35,2.6.38.37a4.29,4.29,0,0,0,.36-1.9c-.11-.11-.44.57-.74,1.53m-373.28-.56a5.25,5.25,0,0,0,.67,1.64c.37.64.67,1,.67.7a5.07,5.07,0,0,0-.67-1.64c-.37-.64-.67-1-.67-.7m371.57,5.34a4.78,4.78,0,0,0-.58,2.47c.17.41.26.34.29-.22a7.45,7.45,0,0,1,.77-2.27c.41-.78.65-1.51.54-1.62s-.56.63-1,1.64M49.79,343.64a4,4,0,0,0,1,1.41c.13,0-.09-.63-.49-1.41a4,4,0,0,0-1-1.4c-.13,0,.09.63.49,1.4m366.48.06a3.67,3.67,0,0,0-.34,1.68c.1.1.42-.49.71-1.32a3.88,3.88,0,0,0,.34-1.69c-.1-.1-.42.5-.71,1.33M276.4,347.84c-3.49,7.19-12.6,14.23-23.12,17.84-12.29,4.23-46.45,10.53-68.45,12.62-4.1.39-3.56.42,4.22.25a240.93,240.93,0,0,0,27.43-2.28l8.91-1.2c28.2-3.75,41.25-8.35,49.47-17.46C279,353,281,346.75,279,345c-.75-.66-.95-.44-2.55,2.88m138.49-.47c-.27.79-.4,1.43-.28,1.43a4.56,4.56,0,0,0,1-2.67c-.1-.1-.42.45-.69,1.24m-370.55.26a11.69,11.69,0,0,0,1.22,1.87l.77.94-.46-.94a12.51,12.51,0,0,0-1.23-1.87l-.76-.94.46.94M54,350.21a97.14,97.14,0,0,0,6.83,8.69,30.87,30.87,0,0,0-3.11-4.32c-3.79-4.86-4.34-5.51-3.72-4.37m359.37.77a2.66,2.66,0,0,0-.28,1.43c.11.1.42-.45.7-1.24.61-1.75.24-1.92-.42-.19m-8.55,2.76a9.43,9.43,0,0,0-1,2.56c.32,0,2.68-4.74,2.47-4.95a8.15,8.15,0,0,0-1.43,2.39m-121.3,3.35c0,1-6.21,7.67-9.35,10-3,2.21-4.31,3.45-2.73,2.52,4.43-2.61,13.32-11.75,12.36-12.71-.15-.16-.28-.07-.28.19m118.39,2c-.4.77-.62,1.4-.49,1.4a4,4,0,0,0,1-1.4c.4-.78.62-1.41.49-1.41a4,4,0,0,0-1,1.41m6.56,1.87c-.4.78-.62,1.41-.49,1.41a4,4,0,0,0,1-1.41c.4-.77.62-1.4.49-1.4a4.17,4.17,0,0,0-1,1.4M66.2,364.74a45.4,45.4,0,0,0,4,3.75,40.8,40.8,0,0,0-3.5-3.75,48.08,48.08,0,0,0-4-3.75,36.79,36.79,0,0,0,3.49,3.75m331.14,1.53a79.43,79.43,0,0,1-5,6.52,19.73,19.73,0,0,0-2.38,3c0,.87,6.78-7.64,9.6-12.06,1.85-2.91.23-1-2.22,2.58m9.53-2.33c-.35.57-.95,1.51-1.33,2.09s-.58,1.06-.45,1.06c.33,0,2.79-3.81,2.59-4s-.46.29-.81.86M61.51,369.43c2.83,2.84,5.25,5.16,5.38,5.16s-2.08-2.32-4.91-5.16-5.24-5.16-5.37-5.16,2.08,2.32,4.9,5.16m9.4-.12c.25.2,1.29,1.1,2.32,2L75.11,373l-1.85-2a8.58,8.58,0,0,0-2.32-2c-.29,0-.3.14,0,.35m196.56,2c-2.52,1.3-3.72,2.24-1.88,1.47a23.94,23.94,0,0,0,4.81-2.69c0-.3.08-.34-2.93,1.22M75.35,372.87a9.92,9.92,0,0,0,1.87,1.72c1,.82,1.88,1.38,1.88,1.25a10.16,10.16,0,0,0-1.88-1.72c-1-.82-1.87-1.38-1.87-1.25m321.74,4.66a109.84,109.84,0,0,1-14,13.54c-3.09,2.34-3.38,2.93-.36.78,3.23-2.31,12.43-11.24,15.15-14.7,3.25-4.13,2.62-3.84-.82.38m-138.41-2.37c-.91.27-1.4.58-1.11.68a4.32,4.32,0,0,0,2.11-.49c1.83-.8,1.35-.89-1-.19m-177.94,2c1.41,1.24,3,2.31,3,2a15.25,15.25,0,0,0-2.22-1.7c-1.69-1.15-1.89-1.22-.82-.29m173.72.22c0,1.27,2.61,3.49,8.55,7.29,2.08,1.33,1.48.5-.7-1-5.28-3.55-7.46-5.47-7.23-6.35.12-.48,0-.88-.2-.88s-.42.41-.42.91m130.81,2.89a97.15,97.15,0,0,1-7.85,6.58c-4.5,3.28-5.24,4.24-1,1.26,3.76-2.62,14-11.77,12.95-11.61-.08,0-1.94,1.71-4.13,3.77M243,378.73a67.22,67.22,0,0,1-7.48,5.24,25.12,25.12,0,0,0-2.7,1.48c-1.36.82-4.49,2.5-6.94,3.73-4.39,2.21-4.42,2.24-2.57,2.28s1.81.08,1,.73c-.5.37-.8.69-.66.69.65,0,12.76-6.23,16.11-8.29,7.78-4.77,8.22-5.08,8.09-5.78-.21-1.12-3.66-1.18-4.81-.08m-158.4,1c.58.71,3.43,2.5,3.43,2.17a10.31,10.31,0,0,0-2-1.52c-1.09-.72-1.74-1-1.44-.65m4.84,2.9a16.06,16.06,0,0,0,4.08,2.69c.19,0-.07-.28-.58-.63-2.23-1.52-3.5-2.27-3.5-2.06m158.44,4.62c-2.93,1.87-5.11,3.63-2.77,2.23a64.14,64.14,0,0,0,6.09-4c0-.32-.39-.11-3.32,1.77m4.73-1.73a64.16,64.16,0,0,0,7.27,5.22c2.42,1.47.63,0-3.4-2.77a27.87,27.87,0,0,0-3.87-2.45m12.4.22a4,4,0,0,0,1.28,1c.69.37.88.38.65,0a4,4,0,0,0-1.28-1c-.7-.37-.88-.38-.65,0M83.32,387c0,.25,6.81,4.4,9.26,5.64,2.85,1.44,1.53.37-1.88-1.54-1.87-1-4.3-2.44-5.39-3.11s-2-1.12-2-1m184.26.5c0,.29,7.73,4.48,8.26,4.48a20.53,20.53,0,0,0-3.76-2.35c-4.25-2.38-4.5-2.5-4.5-2.13m-25.43,3.34c-1.75.95-1.65,1.35.12.43a3.92,3.92,0,0,0,1.4-1c0-.3,0-.28-1.52.52m-137.27.43a5.25,5.25,0,0,0,1.64.67c.26,0,0-.3-.7-.67a5.23,5.23,0,0,0-1.64-.66c-.26,0,.06.3.7.66m156.61.39a21.68,21.68,0,0,0,4.95,3.13c.45,0-.43-.63-3.19-2.3-1-.58-1.76-1-1.76-.83m107.72.59c-1.75,1-1.64,1.34.12.43a4.31,4.31,0,0,0,1.41-.95c0-.3-.05-.28-1.53.52m-262-.12a3.84,3.84,0,0,0,1.51.75c.83.29,1.31.34,1.06.1-.54-.5-2.57-1.17-2.57-.85M278,393c1.68,1.13,7.05,3.63,7.75,3.62a96.53,96.53,0,0,0-9.15-4.68A6.46,6.46,0,0,0,278,393m-167,.61a4.54,4.54,0,0,0,2.67,1c.1-.1-.45-.41-1.24-.69s-1.43-.4-1.43-.28m-12.92,1.86a3.13,3.13,0,0,0,1.4.67c.28,0,.09-.32-.41-.7a3.26,3.26,0,0,0-1.41-.68c-.27,0-.08.33.42.71M229.73,397a28.1,28.1,0,0,0-4.63,2.31c.24.24,8.76-3.46,9.36-4.07s.73-.68-4.73,1.76M268,395.84a5.62,5.62,0,0,0,2.55,1.44,7,7,0,0,1,2.66,1.35l1.19,1-1.13-1.28a5.66,5.66,0,0,0-2.73-1.58c-.88-.17-1.71-.57-1.84-.91a1.9,1.9,0,0,0-1-.9c-.54-.21-.45.05.3.84m108.62-.13c-.77.53-3,1.82-4.83,2.87a13.38,13.38,0,0,0-3.22,2.11c.21.21,7.31-3.89,9-5.18,1.37-1.06.7-.91-.94.2m-164.81,1.15c-.9.35-1.33.64-.94.65a6.72,6.72,0,0,0,2.11-.63c1.81-.83,1-.84-1.17,0m75.89.53a3.36,3.36,0,0,0,1.83.45c.28-.29-2-1.23-2.85-1.18-.3,0,.16.35,1,.73m71.34-.06c-.65.37-1,.67-.71.67a5.07,5.07,0,0,0,1.64-.67c.65-.37,1-.67.71-.67a5.07,5.07,0,0,0-1.64.67m-253.67,1.41a5.52,5.52,0,0,0,1.64.67c.26,0-.06-.31-.7-.67a5.07,5.07,0,0,0-1.64-.67c-.26,0,.06.3.7.67m19.93-.3a15.89,15.89,0,0,0,2.58.71c1.13.2,1.35.17.7-.12a14.52,14.52,0,0,0-2.58-.7c-1.12-.21-1.34-.17-.7.11m80.18.31c-1.86.65-1.86.65-.24.38a9.32,9.32,0,0,0,2.35-.67c1-.59,0-.45-2.11.29m85.1-.32a8.93,8.93,0,0,0,2.35.74c1.09.21,1.4.16.93-.13a8.84,8.84,0,0,0-2.34-.74c-1.09-.2-1.41-.16-.94.13m64.94.32c-1.17.57-1.21.63-.24.39,1.33-.32,2.83-1.08,2.12-1.07a7.28,7.28,0,0,0-1.88.68m-247.33,1.08a8.84,8.84,0,0,0,1.87.75c.82.22,1,.18.47-.12a8.54,8.54,0,0,0-1.87-.75c-.82-.22-1-.18-.47.12m114.64.33c-1.18.57-1.22.63-.24.39a4.62,4.62,0,0,0,1.62-.69c.61-.57.27-.5-1.38.3m53.21-.05c2,.8,2.72.91,2.09.32a5.43,5.43,0,0,0-2.09-.7l-1.64-.28,1.64.66m19.23-.25c1,.57,4.2,1.16,3.28.6a9.12,9.12,0,0,0-2.34-.71c-1-.19-1.38-.14-.94.11m-96.82.54c-.66.3-.37.34.93.14a9.39,9.39,0,0,0,2.07-.46c.41-.35-2.1-.09-3,.32m-86.51.85c1.14.68,3.11,1.18,2.58.65a4.9,4.9,0,0,0-1.88-.77c-.92-.19-1.16-.15-.7.12m107,.12c-.84.24-1.52.56-1.52.71,0,.39,2.48-.27,3-.8s.53-.5-1.5.09m60.84.18a5.07,5.07,0,0,0,1.64.67c.26,0-.06-.3-.71-.67a5.07,5.07,0,0,0-1.64-.67c-.26,0,.06.3.71.67m85,.63c-2.91,1.31-4.66,2.42-2.45,1.55,2.88-1.12,5.62-2.4,5.62-2.63s.12-.39-3.17,1.08m-174.54-.4-1.64.35h1.64a14.81,14.81,0,0,0,3.05-.36l1.41-.35h-1.41a19,19,0,0,0-3.05.35m111.83-.07a16.36,16.36,0,0,0,3.28.71c1.58.2,2,.15,1.35-.13a15.45,15.45,0,0,0-3.28-.71c-1.49-.18-2-.13-1.35.13m42.43,0a4.87,4.87,0,0,0-2.05.59c-.5.49,3.42,0,4.4-.51.79-.45.75-.45-2.35-.08M284,403.23a6.18,6.18,0,0,0,2.24.73c.21-.2-3.41-1.73-4-1.67-.19,0,.58.44,1.72.94m-165.94.2a9.89,9.89,0,0,0,2.35.63c.38,0,0-.29-.94-.63a9.43,9.43,0,0,0-2.35-.64c-.38,0,0,.29.94.64m95.42,0c-1.17.57-1.21.63-.24.39,1.33-.32,2.83-1.08,2.11-1.07a7.38,7.38,0,0,0-1.87.68m96.35-.25a41.87,41.87,0,0,0,5.4.66c2.66.18,3.21.13,1.87-.15-2.72-.57-9.37-1-7.27-.51m25.14.05a30.43,30.43,0,0,0-4.22.63c-.85.39,7.84-.3,8.86-.71l.94-.38-.94,0c-.52,0-2.61.21-4.64.43m-212,1.59a7.11,7.11,0,0,0,2.34.66h.94l-.94-.37a16.53,16.53,0,0,0-2.34-.66l-1.41-.28,1.41.66m85.33,0c-1.85.64-1.85.64-.23.37,1.91-.32,3.87-1,2.81-1a12.62,12.62,0,0,0-2.58.66m79.27-.3c.5.45,3.41,1.21,3,.77a7.54,7.54,0,0,0-1.85-.73c-.85-.24-1.36-.26-1.12,0m71,.28c-.91.35-1.33.64-.94.65a6.72,6.72,0,0,0,2.11-.63c1.81-.83,1-.84-1.17,0m-155.44,1.43c-1.85.64-1.85.64-.23.37,1.91-.32,3.87-1,2.81-1a12.26,12.26,0,0,0-2.58.66m151.22,0c-.91.35-1.33.64-.94.64a6.64,6.64,0,0,0,2.11-.62c1.81-.83,1-.85-1.17,0m-225.53.23a8.78,8.78,0,0,0,2.11.39l.93,0-.93-.41a6.48,6.48,0,0,0-2.11-.39l-1.18,0,1.18.37m164.34,0a5.17,5.17,0,0,0,1.64.41c.44,0,.36-.15-.23-.41a5.26,5.26,0,0,0-1.64-.4c-.45,0-.36.15.23.4m-157.78,1.41a9.12,9.12,0,0,0,2.34.37c1.06,0,1-.05-.23-.37-2-.51-3.68-.51-2.11,0m59.32,0-1.41.36h1.41a10,10,0,0,0,2.57-.37l1.18-.38h-1.18a13.26,13.26,0,0,0-2.57.37m103.62,0a15.56,15.56,0,0,0,2.81.65l1.88.27-1.88-.64a12,12,0,0,0-2.81-.64h-.94l.94.37m49.23.28-1.88.64,1.88-.27a15.56,15.56,0,0,0,2.81-.65l.94-.37h-.94a12,12,0,0,0-2.81.64M144,409.29a16.12,16.12,0,0,0,3,.36h1.64l-1.87-.39c-2.53-.52-4.88-.5-2.81,0m40.55,0c-5,.58-5.57.86-1,.55,3.87-.26,8.21-1,5.73-1-.64,0-2.75.19-4.69.41m120,0a10,10,0,0,0,2.58.36h1.4l-1.4-.35a12.72,12.72,0,0,0-2.58-.37h-1.18l1.18.38m36.1.12c-1.42.26-2.37.55-2.1.65a17.24,17.24,0,0,0,3.75-.48c1.8-.36,2.74-.65,2.1-.65a27.54,27.54,0,0,0-3.75.48M150,410.09a7.94,7.94,0,0,0,2.34,0c.58-.11,0-.19-1.29-.19s-1.76.09-1,.2m7.72.47a17.91,17.91,0,0,0,3.28,0c1-.11.29-.19-1.51-.19s-2.6.08-1.77.18m7.86.15c-1.54.18.25.22,4,.09s6.89-.31,7-.4c.32-.28-7.91,0-11,.31m149.11.06c1,.18,5.56.32,10.08.3a70.13,70.13,0,0,0,7.27-.18c-2-.33-19.12-.44-17.35-.12m19.1-.22a4.17,4.17,0,0,0,1.65,0c.45-.12.08-.22-.82-.22s-1.28.1-.83.22"/><path id="path5" class="cls-5" d="M234.45,38.4c-9.39.39-6.93.71,5.47.71,6.4,0,11.54-.11,11.41-.24-.41-.41-11-.71-16.88-.47m-12.58,1.25-2.05.44c-2.65.57-.42.54,2.76,0,1.95-.35,2.78-.63,1.87-.62a15.75,15.75,0,0,0-2.58.21m33.52.11c1.88.59,5.48,1,4.69.58a12.76,12.76,0,0,0-3.28-.68c-1.53-.16-2.1-.12-1.41.1m7.27,1.4c1.67.69,3.79,1.09,3.28.61a6.09,6.09,0,0,0-2.34-.72c-1.19-.18-1.53-.14-.94.11m-49.93.53c-.94.6.24.6,1.64,0l.93-.41-.93,0a3.28,3.28,0,0,0-1.64.43m-5.56,1.47c-.87.25-1.49.55-1.38.66a6.07,6.07,0,0,0,2.28-.45c2.33-.73,1.54-.91-.9-.21m63.23.17c2.14.82,3,.81,1.17,0a6.72,6.72,0,0,0-2.11-.63c-.39,0,0,.3.94.65m-67.29,1a3.41,3.41,0,0,0-1.4.71c-.32.32-.09.36.7.13,2.43-.71,3-1.39.7-.84m71.51.31c.64.38,1.26.6,1.37.49.28-.29-.07-.51-1.37-.86L273.45,44l1.17.68m-75.84,1.1c-.58.11-1.06.39-1.06.61s.63.19,1.41-.08c1.26-.44,2-1,1.05-.8l-1.4.27m33.52.47a14.14,14.14,0,0,0,3,0c.84-.1.15-.18-1.52-.18s-2.37.08-1.53.18m12.9,0a10,10,0,0,0,2.57,0c.71-.11.13-.19-1.29-.19s-2,.08-1.28.19m-20.89.6a12.83,12.83,0,0,0-3,.6c-.4.4,5.6-.2,6.38-.64s.65-.48-3.42,0m28.27-.05a13.87,13.87,0,0,0,3.52.66c3.2.31,1.72-.29-1.88-.75-1.35-.18-2-.14-1.64.09m29.07,1a7.89,7.89,0,0,0,2.11.9c.26,0-.27-.4-1.17-.9a8.26,8.26,0,0,0-2.11-.9c-.26,0,.27.41,1.17.9m-64.91.53c-2.6.61-2.75,1-.24.6,2.13-.32,4.26-1.14,2.79-1.07a20.81,20.81,0,0,0-2.55.47m43.58-.14a6.9,6.9,0,0,0,2.58.73c1.39.17,1.71.14.93-.11-2.46-.81-4-1.08-3.51-.62M191,49c-.45.12-.82.42-.82.67s.45.22,1.05-.1c1.76-.92,1.7-1.07-.23-.57m47,.18c-3.27.19-2.13.26,4.22.27,4.77,0,8-.05,7.26-.13a73,73,0,0,0-11.48-.14m-27.9.9c-.59.26-.68.41-.24.41a4.92,4.92,0,0,0,1.64-.41c.6-.25.68-.4.24-.4a5.13,5.13,0,0,0-1.64.4M252.7,50a3.78,3.78,0,0,0,1.64,0c.45-.12.08-.21-.82-.21s-1.27.09-.82.21m14.42.11a9.59,9.59,0,0,0,2.34.68l1.64.28-1.64-.66c-1.91-.77-3.53-1-2.34-.3m-79.51.71c-.87.66-.87.68.16.42a2.7,2.7,0,0,0,1.31-.68c.4-.64-.46-.49-1.47.26m36.93-.21a5.61,5.61,0,0,0-1.87.7c-.32.31.45.21,5.06-.66l2.11-.4H228a18.11,18.11,0,0,0-3.43.37m32.73-.06c1.63.53,6.1,1,4.92.57a17.37,17.37,0,0,0-3.51-.67c-1.59-.18-2.13-.14-1.41.1M204.75,51.8l-1.17.71,1.17-.31a4.67,4.67,0,0,0,1.62-.72c.72-.67-.31-.46-1.62.32m67.06-.31c0,.39,1.92,1.09,2.2.8.08-.07-.38-.38-1-.67s-1.17-.36-1.17-.13M218.23,52a6.4,6.4,0,0,0-2.11.69c-.39.4,2.92-.14,4.34-.71,1.15-.45.17-.44-2.23,0m47.24.26c2.64.76,3.63.87,2.58.27a10.72,10.72,0,0,0-2.81-.68l-2.11-.27,2.34.68m-64.47,1c-1.53.63-1.55.66-.23.4a4.87,4.87,0,0,0,1.85-.7c.56-.55.4-.52-1.62.3m-19.22.47c-.65.36-.86.65-.47.64a3.36,3.36,0,0,0,1.61-.69c1.13-.86.44-.82-1.14,0m31-.28a5.64,5.64,0,0,0-1.88.71c-.36.38,2.43-.14,3.9-.73,1.18-.48,0-.47-2,0m57.58.24a9.37,9.37,0,0,0,2.34.63c.39,0,0-.28-.93-.63a9.42,9.42,0,0,0-2.35-.63c-.39,0,0,.28.94.63m21.77-.28a4.16,4.16,0,0,0,1.29,1c.69.37.87.37.65,0a4.15,4.15,0,0,0-1.29-1c-.69-.37-.88-.37-.65,0M274.62,55A12.27,12.27,0,0,0,277,56l1.17.3L277,55.59a12.21,12.21,0,0,0-2.34-1l-1.17-.31,1.17.66m-95.91.53c-.51.38-.7.69-.45.69a3.34,3.34,0,0,0,1.38-.69c.5-.38.7-.69.44-.69a3.32,3.32,0,0,0-1.37.69m27.69,0-1.41.66,1.41-.28a8.9,8.9,0,0,0,2.11-.67c1.26-.7-.53-.46-2.11.29m-31.3,2.12c-2.37,1.48-3.14,2.46-.91,1.14,1.57-.93,3.7-2.54,3.37-2.54a18,18,0,0,0-2.46,1.4m28-1.09a3.41,3.41,0,0,0-1.4.71c-.32.32-.09.36.7.13,2.43-.71,3-1.39.7-.84m77.6,1.08A15.89,15.89,0,0,0,283.76,59c.26,0-.69-.61-2.11-1.36a15.89,15.89,0,0,0-3-1.36c-.25,0,.7.61,2.11,1.36m16-1.27a24.73,24.73,0,0,0,2.81,2.36c1.54,1.2,2.8,2,2.79,1.84,0-.49-5.6-4.68-5.6-4.2m-98.23,2.18c-1,.49-1.75.9-1.58.92a11.69,11.69,0,0,0,3.69-1.6c0-.32,0-.32-2.11.68m-11.49,1c-.9.5-1.47.91-1.27.92a8.32,8.32,0,0,0,3.14-1.63c0-.31,0-.3-1.87.71m98,0c1.63,1.1,2.56,1.42,1.41.48a4.49,4.49,0,0,0-1.64-1c-.26,0-.15.21.23.48m-114.52,1c-1,.57-1.75,1.19-1.75,1.39s.83-.2,1.87-.88a9.86,9.86,0,0,0,1.87-1.42c0-.25-.09-.21-2,.91m22.24.18c-1.37.65-2.41,1.27-2.3,1.37a12.22,12.22,0,0,0,3.2-1.19c1.65-.77,2.68-1.39,2.3-1.38a14.35,14.35,0,0,0-3.2,1.2m96.5-.66c0,.35,3.82,3.25,4,3s-.75-.89-1.91-1.72a9.46,9.46,0,0,0-2.11-1.33m13.65,1.39c.12.07,2.52,2.34,5.34,5.05s4.71,4.39,4.2,3.76c-1.67-2.12-8.71-8.92-9.23-8.92-.29,0-.42,0-.31.11M164.3,65a18.61,18.61,0,0,0-3.41,2.86c.19.19,7.29-5,7.29-5.35s-.34-.13-3.88,2.49M290.35,62.7c.24.21,2.58,1.89,5.18,3.73a92.46,92.46,0,0,1,8.56,6.93,25.29,25.29,0,0,0,3.82,3.27c0-.69-9.57-10.08-9.84-9.64-.16.25-1.9-.68-3.91-2.11-3.1-2.2-5.25-3.43-3.81-2.18M178.13,64.5c-1.11.67-1.92,1.31-1.8,1.43s4-2.17,4-2.51-.09-.21-2.24,1.08m5.76.45c-3.53,1.85-3.72,2.37-.23.64,3.28-1.63,3.67-1.87,3-1.87A14.66,14.66,0,0,0,183.89,65m-10.26,2.52c-2.23,1.69-2.7,2.17-1.46,1.5,1.07-.59,3.87-2.87,3.52-2.87a11.91,11.91,0,0,0-2.06,1.37m-18,4.55-4.95,4.33a2.27,2.27,0,0,0-.82,1.15c0,.24,1.21-.71,2.69-2.11s3.85-3.54,5.27-4.76a11.08,11.08,0,0,0,2.26-2.22A45.09,45.09,0,0,0,155.67,72m19.78-2.5c-3.27,1.85-5.39,3.2-5.39,3.42s-.22.37,4.1-2.17a27.5,27.5,0,0,0,3.4-2.18c0-.26-.06-.24-2.11.93m-7.74,2.21c-3.73,2.86-5.32,4.38-4.1,3.92.45-.17.82-.45.82-.63a16.32,16.32,0,0,1,3-2.56c2.58-1.9,4-3.18,3.44-3.09-.08,0-1.52,1.07-3.2,2.36m148.7,4.18c2.69,3.48,3.8,4.67,2.89,3.11s-5.09-6.84-5.43-6.85.94,1.68,2.54,3.74M168.12,74.07c-1.05.91-1.05.93-.08.46a3.89,3.89,0,0,0,1.32-1c.46-.75-.05-.55-1.24.5m-4.88,3.16c-4.51,3.11-5,3.29-2.68,1,2.91-2.82,2.44-2.82-.82,0-4.88,4.25-3,3.92,3.64-.63,3-2.06,3.75-2.69,3.26-2.69-.07,0-1.6,1-3.4,2.25m-18.77,5.52c-4.42,4.83-4.37,5.22.08.65,2-2.05,3.53-3.84,3.4-4s-1.69,1.37-3.48,3.31m178.06,2.07c1.89,3,2.23,3,.53,0a8.17,8.17,0,0,0-1.65-2.34c-.19,0,.32,1,1.12,2.34M139.05,88.7c-.42.58-1.65,2.21-2.74,3.62-1.76,2.3-1.79,2.38-.27.71,2.77-3,4.59-5.4,4.17-5.38-.22,0-.74.48-1.16,1m-7.58,9.84c-1.27,1.72-2.13,3.2-1.43,2.46.87-.91,3-4,2.79-4a6.44,6.44,0,0,0-1.36,1.53M331,102.2c.28.78.59,1.34.69,1.23a4.56,4.56,0,0,0-1-2.67c-.12,0,0,.65.28,1.44m-203.44,2c-.92,1.19-1.23,1.92-.67,1.57s1.66-2.15,1.32-2.15c-.11,0-.4.26-.65.58m204.76,1.74a6.92,6.92,0,0,0,.74,1.84c.44.44-.33-2.46-.78-3-.22-.24-.2.26,0,1.12m1.27,4a9.45,9.45,0,0,0,.66,2.11c.71,1.26.46-.53-.28-2.11l-.66-1.41.28,1.41m-211.08,2.58c-.4.77-.62,1.4-.5,1.4a4,4,0,0,0,1-1.4c.4-.78.62-1.41.49-1.41a4,4,0,0,0-1,1.41m-2.35,4a6.5,6.5,0,0,0-1.05,2.35c.11.11.77-.86,1.48-2.15,1.6-2.94,1.27-3.09-.43-.2m215.26,1c.44,1.79.66,2,.66.49a2.08,2.08,0,0,0-.49-1.52c-.32-.2-.37.16-.17,1M118,120.43c-.6,1.11-.62,1.57-.07,1.23s1.06-2.14.73-2.14c-.1,0-.39.41-.66.91m-2.27,5a24.48,24.48,0,0,0-1.48,3.39,12.8,12.8,0,0,0,1.68-2.87,15.29,15.29,0,0,0,1.47-3.39,12.3,12.3,0,0,0-1.67,2.87m221.09-.88c.43,4.18,1,5.8.75,2a14.87,14.87,0,0,0-.62-3.91c-.2-.21-.26.63-.13,1.88M113.3,130.6A2.67,2.67,0,0,0,113,132c.11.11.42-.45.69-1.23.61-1.75.25-1.92-.41-.2m224.85,15.25c0,7.54.13,13.09.3,12.33.39-1.83.4-23.59,0-25-.17-.6-.31,5.09-.31,12.64M112,134.11a3.68,3.68,0,0,0-.34,1.69c.1.1.42-.5.7-1.33a3.8,3.8,0,0,0,.35-1.69c-.1-.1-.42.5-.71,1.33m6.39,4.28c-2.49,6.05-3.15,8.28-2.76,9.33.34.9.45.78.9-1a5.51,5.51,0,0,0,.25-2.47.55.55,0,0,1,.19-.73c.43-.29,3-7.67,2.74-7.93a15.27,15.27,0,0,0-1.32,2.82m-8-.08a5.51,5.51,0,0,0-.59,2.15c.11.11.55-.68,1-1.76a5.37,5.37,0,0,0,.58-2.15c-.1-.1-.54.69-1,1.76m-1.4,3.77c-.45,1.43-.76,3.23-.55,3.23s1.22-3.42,1-3.68c-.12-.11-.31.09-.42.45m32.16,3.11c-.52,1-1.69,3.11-2.59,4.77s-1.51,3.32-1.36,3.71.07.58-.21.4-.73.24-1,.89c-.39.85-.4,1.1,0,.87s.43,0,.23.79-.11.75.41-.29c4.07-8.25,7.51-16.63,4.56-11.14m-33.8,2.51a7.88,7.88,0,0,0-.49,2c0,.29.34-.3.71-1.31a5.24,5.24,0,0,0,.49-2c-.1-.1-.42.49-.71,1.32m7.28,1.49c-.16.65-.44,1.56-.61,2s-.15.72.26.47.52.09.33,1.45c-.15,1.06,0,.69.45-.92s.54-3,.28-3.46c-.33-.6-.46-.52-.71.45m-8.7,3.46a12.29,12.29,0,0,0-.47,2.74c0,.51.32-.22.67-1.64.71-2.95.55-3.82-.2-1.1m6.6,4.45a8.63,8.63,0,0,0-.37,2.6c.1.11.45-.88.76-2.2a7.61,7.61,0,0,0,.37-2.6c-.11-.12-.46.88-.76,2.2m1.18-.83a24.76,24.76,0,0,0-.51,3.66l-.25,3,.68-3.49c.63-3.31.67-4.66.08-3.13m20.86,1.49c-.68,1.48-.68,1.76,0,1.35.35-.22.42,0,.22.79-.31,1.11-.3,1.11.4-.06.84-1.4.93-2.05.22-1.61-.35.22-.41,0-.2-.67.44-1.38,0-1.25-.61.2m-30.21,1.93a14.8,14.8,0,0,0-.49,2.73l-.26,2.35.64-2.57c.6-2.37.64-3.43.11-2.51m27.6,3.71a10,10,0,0,0-1,2.87,7.48,7.48,0,0,0,1.42-2.48,10,10,0,0,0,1-2.88,7.75,7.75,0,0,0-1.42,2.49m-20.64-.74c-.69,3.6-.77,4.44-.35,3.75s1.2-5.16.85-5.16c-.13,0-.35.63-.5,1.41m22,.5a5.72,5.72,0,0,0-.59,2.15c.11.11.55-.68,1-1.76a5.49,5.49,0,0,0,.59-2.14c-.11-.11-.55.68-1,1.75m-1.63,4.24a3.72,3.72,0,0,0-.34,1.69c.1.1.42-.5.71-1.33a3.72,3.72,0,0,0,.34-1.69c-.1-.1-.42.5-.71,1.33m-19.88.65a35.34,35.34,0,0,0-.26,5.16l.06,3.28L112,172c.44-4.8.33-7-.2-4m-9-.17c-.38,1.85-.84,7.21-.59,7s1.3-7.6,1-7.86-.32.28-.45.9m27,.23c-.31.68-.45,1.34-.32,1.47s.46-.35.73-1.06c.65-1.69.32-2-.41-.41m220.55,1.47c.76.85,6.33,4.34,6.33,4,0-.19-.79-.81-1.76-1.38s-2.49-1.5-3.4-2.07-1.43-.81-1.17-.52m-220.08,1.56a7.93,7.93,0,0,0-.49,2c0,.28.33-.31.7-1.32a5.24,5.24,0,0,0,.49-2c-.1-.1-.41.5-.7,1.32m-2.13.93a5.41,5.41,0,0,0-.58,2.15c.1.11.54-.68,1-1.76a5.49,5.49,0,0,0,.59-2.14c-.11-.11-.55.68-1,1.75m210.51.94a28.41,28.41,0,0,0,3.73,3.35c.51.29-.28-.64-1.76-2.05-2.52-2.4-3.45-3.7-2.11-2.94.43.24.45.18.08-.22a3.46,3.46,0,0,0-1.61-.76c-.9-.17-.58.33,1.67,2.62m-229,.25c0,1.07-.2,2.65-.33,3.52-.23,1.45-.21,1.48.25.43a9.37,9.37,0,0,0,.33-3.52c-.15-2.2-.17-2.23-.25-.43m229.66-1.49a4.07,4.07,0,0,0,1.41,1c.77.4,1.41.62,1.41.49a4.11,4.11,0,0,0-1.41-1c-.77-.4-1.41-.62-1.41-.5m-210.51,3.28a8.12,8.12,0,0,0-.5,2,9.51,9.51,0,0,1-.92,2.67c-1.1,2.27-1.21,3.38-.14,1.41.91-1.68,2.54-6.9,2.25-7.19-.11-.12-.43.36-.69,1.06m228.37-1,2.31,1.69,2.11,1.54-1.88-1.68a8.86,8.86,0,0,0-2.31-1.68c-.23,0-.34.05-.23.13m-230.65,2.18c-.27.79-.4,1.43-.28,1.43a4.54,4.54,0,0,0,1-2.67c-.1-.1-.41.45-.69,1.24m-15.38,10.6c.31,10.68.21,11.44-1.58,12.07-.56.2-.53.26.11.29,2,.09,2.27-1.53,2-12.2-.15-5.52-.4-10.14-.54-10.27a98.64,98.64,0,0,0,.05,10.11M344,177.21c1.63,1.11,2.56,1.43,1.41.49a4.65,4.65,0,0,0-1.64-1c-.26,0-.16.21.23.47m17.82.16a20.16,20.16,0,0,0,2.81,2.4,14.66,14.66,0,0,0,2.82,1.93,19.9,19.9,0,0,0-2.82-2.4,14.45,14.45,0,0,0-2.81-1.93m-12.19.41c.52.6,8.95,6.42,8.69,6a34.4,34.4,0,0,0-3.9-3c-3.58-2.5-5.25-3.55-4.79-3m-224.51,1.73c-.28.79-.4,1.43-.28,1.43a4.67,4.67,0,0,0,1-2.67c-.11-.1-.42.46-.69,1.24m-23.69,1.55a87.6,87.6,0,0,0,.08,14.42c.17,1.16.32-2.17.32-7.39,0-10.6,0-10.43-.4-7m24.41,2.55a9.76,9.76,0,0,0-.51,2l-.29,1.64.7-1.83c.63-1.64.69-2.84.1-1.83m244.65.91c3.34,3.4,11,10.44,8.68,7.95a94.2,94.2,0,0,0-8.7-8.23l-1.38-1.16,1.4,1.44m-261.75,1.81c0,1,.1,1.4.22.82a5.37,5.37,0,0,0,0-1.88c-.12-.44-.21,0-.21,1.06m252.14-.48c0,.29,1.58,1.72,4.17,3.76.65.51,1,.69.85.39-.47-.76-5-4.52-5-4.15m-239,2.1c-.27.79-.4,1.43-.27,1.43a4.59,4.59,0,0,0,1-2.67c-.1-.1-.41.46-.69,1.24m2.36.83c-.75,1.95-1.12,3.41-.87,3.41s1.76-4.32,1.54-4.54-.39.41-.67,1.13m236.22-1.13a9.13,9.13,0,0,0,1.72,1.53c.95.72,1.58,1.07,1.4.78-.38-.6-3.12-2.63-3.12-2.31m-240,3.66a3.72,3.72,0,0,0-.34,1.69c.1.1.42-.5.7-1.33a3.78,3.78,0,0,0,.35-1.68c-.1-.1-.42.49-.71,1.32m250,3.23c5.29,5,5.27,5.84,0,1.14-3.29-2.91-3.06-2.64,1.14,1.38,2.89,2.76,7.19,7.07,9.55,9.57s3.79,3.82,3.18,2.91c-1.86-2.77-6.56-8-7-7.72a.53.53,0,0,1-.69-.24c-.16-.26,0-.48.31-.48.67,0-8.22-9.14-9.66-9.94-.5-.27.92,1.25,3.17,3.38m-248.14,0a5.69,5.69,0,0,0-.39,2.12c.11.1.45-.68.77-1.73a5.36,5.36,0,0,0,.38-2.12c-.1-.11-.45.67-.76,1.73m-3.27.72c-.31.68-.46,1.34-.33,1.48s.47-.35.74-1.07c.64-1.69.32-2-.41-.41m263,.49a8.78,8.78,0,0,0,2,2.29c1.09,1,1.57,1.32,1.06.68-1.59-2-3-3.43-3-3m-261.16,3.44a5.13,5.13,0,0,0-.3,2.2c.13.13.47-.65.77-1.73a5.1,5.1,0,0,0,.29-2.21c-.13-.13-.47.66-.76,1.74m-3.7,1.46a3.8,3.8,0,0,0-.35,1.69c.1.1.42-.5.71-1.33a3.57,3.57,0,0,0,.34-1.69c-.1-.1-.41.5-.7,1.33m258.77-.52c.27.51.42.93.32.93a4.4,4.4,0,0,1-1-.93c-.46-.52-.61-.94-.32-.94s.75.42,1,.94m12.46,3.28a34.25,34.25,0,0,0,2.94,3.4c.41.32-.42-.93-1.83-2.79a19.36,19.36,0,0,0-2.94-3.4c-.21,0,.61,1.24,1.83,2.79m-293-1.14c-1.82,1-1.61,1.33.23.39s2.08-1.13,1.49-1.11a6.9,6.9,0,0,0-1.72.72M379,203.56l1.38,1.53-1.52-1.38a11.48,11.48,0,0,1-1.53-1.52c0-.36.39,0,1.67,1.37m-259.55.83a5.71,5.71,0,0,0-.33,2.17c.12.11.43-.69.71-1.79a6.3,6.3,0,0,0,.33-2.17c-.1-.1-.42.7-.71,1.79m-3.46-.28c-.16.62-.43,1.52-.59,2s-.16.72.18.4c.51-.49,1.29-3.52.91-3.52-.12,0-.35.51-.5,1.13m-26.81,1.43c-.5.38-.7.69-.44.69a3.34,3.34,0,0,0,1.38-.69c.5-.38.7-.68.44-.68a3.29,3.29,0,0,0-1.38.68m28.91,4a20.53,20.53,0,0,0-.47,3.67c0,.7.34-.31.69-2.23.73-4,.56-5.07-.22-1.44m-3.56-.34c-.17.84-.42,1.95-.56,2.46s-.1.78.21.47c.46-.47,1.23-4.45.86-4.45a3.53,3.53,0,0,0-.51,1.52m278.14-.44a53.77,53.77,0,0,0,4.2,5.95c.25,0,.09-.27-2.3-3.87a15.08,15.08,0,0,0-2-2.69c-.13,0-.07.27.14.61m-312,1.81c-2,1.53-2.47,2.08-.88,1.11,2.5-1.53,3.27-2.13,2.75-2.13a5.4,5.4,0,0,0-1.87,1m276,1.22a3.18,3.18,0,0,0,.82,1.82c.45.49.67.68.47.43-.66-.85-.36-1.32.43-.68s.73.55.26-.33c-.9-1.68-2-2.36-2-1.24M72.23,216.69c-5.14,4-7.67,6.25-7.67,6.82a11.9,11.9,0,0,0,2.23-1.83c1.22-1.14,4.28-3.62,6.8-5.53,4.19-3.18,4.91-3.79,4.38-3.79-.1,0-2.69,1.94-5.74,4.33m41.2-1.05c0,.9.1,1.27.22.82a3.78,3.78,0,0,0,0-1.64c-.12-.45-.22-.08-.22.82M359.34,215c.23.6.14.71-.36.42s-.55-.25-.09.25c1,1,2.08,1,1.52,0s-1.47-1.67-1.07-.63M117.26,220.8c0,3.22.07,4.54.16,2.93s.09-4.25,0-5.86-.16-.3-.16,2.93m243.19-3c.3.37.75.54,1,.39.55-.34.14-.8-.82-.94-.57-.09-.6,0-.17.55m38.93,1c1.19,2,1.84,2.81,1.84,2.32a14.72,14.72,0,0,0-2.63-4.07c-.14,0,.21.79.79,1.75m-37.75.06c-.14.23.31,1,1,1.76a5.81,5.81,0,0,1,1.15,1.47c-.22.29,1.34,2.82,2.12,3.42s.82.62,0-.3a3.45,3.45,0,0,1-.82-1.49,25,25,0,0,0-3.09-5.27c-.07,0-.25.19-.39.41M113,221.5c0,1.55.09,2.12.19,1.28a12,12,0,0,0,0-2.81c-.11-.71-.19,0-.19,1.53m288.64.94c.82,1.59,1.44,2.37,1.44,1.81a3.73,3.73,0,0,0-.95-1.64c-.76-.87-.86-.91-.49-.17M60.11,227.28c-1.27,1.13-3.27,3.36-3,3.36a17.27,17.27,0,0,0,2.29-2.11c2.08-2.11,2.47-2.8.71-1.25m57.52,1a13.26,13.26,0,0,0,.6,3.52c.81,2.43.82,1.69,0-2.11-.46-2.23-.63-2.61-.63-1.41m-3.8,2.67c.1,1.21.83,2.25.87,1.23a1.67,1.67,0,0,0-.44-1.32c-.26-.16-.45-.12-.43.09m-59,1.92c-4.72,5.61-9,11.35-8.4,11.35A11.38,11.38,0,0,0,48.22,242a82.83,82.83,0,0,1,6.92-8.66c.89-1,1.52-1.85,1.41-2s-.88.56-1.69,1.51m352.07-.6c.29.64.6,1.11.67,1,.29-.28-.41-2.21-.8-2.21-.22,0-.17.53.13,1.18m-287.62,4.94c.23,3.14.18,3.39-.59,3.09s-.75-.21-.25.39a1.9,1.9,0,0,0,1,.72c.53,0,.52-6.13,0-7-.23-.37-.3.8-.16,2.77m-4.11-2a3.47,3.47,0,0,0,.68,1.32c.66.88.67.88.41-.15s-1.09-1.94-1.09-1.17m294.3,2.36a2.62,2.62,0,0,0,.68,1.31c.64.4.49-.46-.27-1.47s-.67-.87-.41.16m1.13,2.22a5.25,5.25,0,0,0,.67,1.64c.36.64.67,1,.67.7a5.32,5.32,0,0,0-.67-1.64c-.37-.64-.67-1-.67-.7m-366,6.83c-1.37,2.18-2.16,4.08-1.06,2.54,1.26-1.74,2.8-4.45,2.53-4.45a7.45,7.45,0,0,0-1.47,1.91M413,245.88c.3.65.6,1.11.68,1,.28-.29-.42-2.21-.81-2.21-.22,0-.16.53.13,1.17m.87,2.37a5.72,5.72,0,0,0,.72,1.62l.71,1.17-.31-1.17c-.32-1.23-1.15-2.43-1.12-1.62m1.93,4.9a5.13,5.13,0,0,0,.4,1.64c.25.59.4.68.4.23a5.26,5.26,0,0,0-.4-1.64c-.25-.59-.4-.67-.4-.23m1.57,5.63c.56,1.89,1.23,2.78.89,1.17a4.83,4.83,0,0,0-.77-1.88c-.3-.31-.34-.06-.12.71m-380,1.6c-.7,1.83-.56,2.12.27.58.4-.73.61-1.44.47-1.59s-.48.32-.74,1M36,264a3.68,3.68,0,0,0-.34,1.69c.1.1.42-.5.71-1.33a3.88,3.88,0,0,0,.34-1.69c-.1-.1-.42.5-.71,1.33m382.85,0c.52,2.69,1.1,3.71.8,1.39a7,7,0,0,0-.7-2.56c-.24-.27-.28.21-.1,1.17m-7.6.92a18.21,18.21,0,0,1,.3,2.81c0,.91.15,1.38.28,1.06a.49.49,0,0,1,.69-.32c.59.37,0-2-.86-3.55L411,263.7l.25,1.17M34.54,267.71a3.16,3.16,0,0,0-.36,1.75c.08.46.37.06.69-1,.59-1.94.46-2.26-.33-.79m7.09,2.91c-.59,1.87-1.24,3.92-1.46,4.57-.74,2.25-1,4-.47,3.28.36-.52.42-.14.24,1.41s-.12,1.85.2,1.17a7.19,7.19,0,0,0,.48-2.35,58.71,58.71,0,0,1,1.88-9.08c.85-3.33.28-2.68-.87,1m378.66-1.06c.53,2.85,1.1,4.2.79,1.88a10.34,10.34,0,0,0-.69-2.82c-.25-.43-.29-.07-.1.94m-6.78,3.52a9.68,9.68,0,0,0,.37,2.58l.37,1.17v-1.17a13.19,13.19,0,0,0-.36-2.58l-.36-1.41v1.41M33,273a4.74,4.74,0,0,0-.29,1.62c0,.52.18.4.48-.35a3.25,3.25,0,0,0,.29-1.62c-.09-.26-.31-.11-.48.35M412.31,275c.36,2.32.63,2.72.62.9a4.66,4.66,0,0,0-.46-2.07c-.3-.48-.35-.1-.16,1.17m-380.7,4.22a26.57,26.57,0,0,0-.52,3.05c-.24,2-.23,2,.42-.47s.71-4.67.1-2.58m381.54,12c0,11.68,0,12.25.36,6.1.21-3.73.21-9.53,0-12.89-.31-5.25-.36-4.3-.37,6.79m9-10.48c.44,2.39.67,2.57.67.5a3.09,3.09,0,0,0-.49-2c-.35-.21-.4.27-.18,1.5m-6.95,3.45a20.54,20.54,0,0,0,.64,4.68c.45.84,0-5.22-.52-7.26-.22-.84-.27.22-.12,2.58m-376.79-.64c-.65,3.23-.66,3.9-.07,3,.31-.47.48,1.93.52,7.27,0,4.38.2,8.6.37,9.38s.28-3.83.24-10.22c-.07-12.36-.21-13.64-1.06-9.41m384.53,1.81c0,1,.1,1.4.21.81a5.1,5.1,0,0,0,0-1.87c-.12-.45-.21,0-.21,1.06M30.16,288c-.39,1.45-.31,18.68.09,19.68.17.44.32-4,.32-10s0-10.77-.07-10.77a5.3,5.3,0,0,0-.34,1m7.34,4.34c0,1.29.09,1.76.2,1.05a8.32,8.32,0,0,0,0-2.34c-.12-.58-.2,0-.2,1.29m386,8.4c0,5.55.14,9.73.32,9.28.4-1,.39-16.85,0-18.29-.17-.59-.3,3.46-.3,9m-7.08-.43c0,3.87.07,5.39.16,3.38s.09-5.18,0-7-.16-.22-.16,3.65M37.48,303.55c0,1,.11,1.4.22.82a5.14,5.14,0,0,0,0-1.88c-.12-.44-.21,0-.21,1.06m2.28,2a38.08,38.08,0,0,0,1.41,8.07c.29.45.33,0,.13-1.18-.49-3.07-1.49-7.55-1.54-6.89m-1.6,5c.46,3.59,1.06,5.08.75,1.87a13.66,13.66,0,0,0-.66-3.51c-.23-.41-.27.29-.09,1.64M415.59,314c-.44,2.31-.88,7.9-.6,7.63s1.28-8.52,1-8.77c-.1-.1-.29.42-.43,1.14m-384.32.52a2.61,2.61,0,0,0,.46,1.74c.29.18.35-.3.17-1.26-.4-2.07-.63-2.25-.63-.48m380.38.81c0,1,.1,1.39.21.81a5.08,5.08,0,0,0,0-1.87c-.11-.45-.21,0-.2,1.06m-369.8.93a5.92,5.92,0,0,0,.74,2.35c.51.51.11-1.62-.61-3.28-.28-.63-.32-.32-.13.93m-2.09,2.39a9.14,9.14,0,0,0,.71,2.5c.42.4-.32-3.88-.76-4.34-.2-.22-.18.61,0,1.84m382.63.9a21,21,0,0,1-.35,2.57c-.22,1-.18,1.06.27.35a5,5,0,0,0,.35-2.58c-.16-1.51-.2-1.56-.27-.34M43,320.2a6.74,6.74,0,0,0,.67,2.11l.66,1.41-.28-1.41c-.35-1.76-1.06-3.19-1-2.11m-10.31.7a3.28,3.28,0,0,0,.43,1.64c.6.93.6-.24,0-1.64l-.41-.94,0,.94m377.46,2.82c0,.51-.18,1.46-.31,2.11l-.24,1.17.5-1.15a4.14,4.14,0,0,0,.31-2.11c-.18-.94-.19-.94-.26,0m-368.82.7c.55,1.89,1.22,2.79.87,1.17a4.79,4.79,0,0,0-.76-1.87c-.3-.31-.34-.07-.11.7m3.33.4c.36,1.47,2.45,6.16,2.74,6.16s-.25-1.39-1.81-4.69c-.66-1.41-1.09-2.08-.93-1.47m369,1.94a5.29,5.29,0,0,0-.09,2.18c.13.13.38-.64.56-1.71a5.25,5.25,0,0,0,.09-2.17c-.13-.13-.38.64-.56,1.7m-379.5-.93a6.87,6.87,0,0,0,.63,2.11c.83,1.81.84,1,0-1.18-.35-.9-.64-1.32-.65-.93m8.93,3.3c.27.79.59,1.34.69,1.24s-.65-2.67-1-2.67c-.12,0,0,.64.28,1.43m377.44,1a8.57,8.57,0,0,0-.37,2.6c.11.1.45-.89.77-2.21a8.17,8.17,0,0,0,.37-2.6c-.12-.11-.46.88-.77,2.21m-384.76.51a4.7,4.7,0,0,0,.74,1.51c.24.26.2-.22-.1-1.05-.59-1.7-1.14-2.09-.64-.46m372.79.41c-.39,2,0,2.33.41.41a3.44,3.44,0,0,0,.11-1.69c-.12-.12-.35.46-.52,1.28M44.26,332.4c.37,1.39,1,1.57.72.21-.12-.64-.39-1.16-.59-1.16s-.26.43-.13.95m3.63-.13c.37,1.22,2.59,5.28,2.89,5.28a40.61,40.61,0,0,0-3-6.1c-.13-.13-.09.24.09.82m364.45,0a11.53,11.53,0,0,0-.49,2.26l-.27,1.88.67-2.08c.61-1.87.66-3.05.09-2.06m-375.17,2c.35,1.3.57,1.65.86,1.36.11-.1-.11-.72-.49-1.37l-.68-1.17.31,1.18m382.13.82c-.17.71-.43,1.71-.58,2.22s-.11.78.2.47c.48-.48,1.26-4,.89-4-.12,0-.34.58-.51,1.29m-8.72,3.19c-.49,1.3-.61,2.39-.21,2s1.14-3.19.88-3.19a2.81,2.81,0,0,0-.67,1.2m-371.77-.5a5.07,5.07,0,0,0,.67,1.64c.36.65.67,1,.67.71a5.32,5.32,0,0,0-.67-1.64c-.37-.65-.67-1-.67-.71m8.4.59a3.54,3.54,0,0,0,.68,1.32c.66.87.67.87.41-.16s-1.09-1.94-1.09-1.16m3.75.06a1.9,1.9,0,0,0,.71,1,1.93,1.93,0,0,1,.7,1c0,.51,2.8,4.66,3.13,4.66.15,0,0-.48-.43-1.06s-1.37-2.16-2.2-3.51c-1.49-2.42-1.91-2.87-1.91-2.05m367,1.18c-.15.62-.42,1.52-.59,2s-.15.71.19.39c.51-.49,1.29-3.51.91-3.51-.12,0-.35.5-.51,1.12M409,342.35c-.49,1.58-.77,3.37-.49,3.09s1.15-3.67.87-3.67c-.11,0-.28.26-.38.58M50.73,344.58a4.11,4.11,0,0,0,1,1.41c.13,0-.09-.64-.49-1.41a4.27,4.27,0,0,0-1-1.41c-.13,0,.09.64.49,1.41m353.27.77c-.26.68-.38,1.32-.27,1.43s.41-.45.69-1.24c.61-1.75.24-1.92-.42-.19m11.8.69c-.68,2-.35,2.28.42.42.33-.79.48-1.55.35-1.68s-.48.43-.77,1.26m-359.86.07c2.51,4.23,14.91,17.65,20.58,22.25l3.75,3.06a183.79,183.79,0,0,0,21.58,14.91c1.54.86,3.33,1.91,4,2.35a10.51,10.51,0,0,0,2.35,1.13c.64.19-.73-.76-3-2.11-20.3-11.77-36.19-25-46.54-38.77-2.3-3-3.59-4.43-2.64-2.82m351.45,1.07c-.79,1.72-.64,2.09.21.53.4-.74.63-1.42.53-1.53s-.44.34-.74,1m7,2.29c-.7,1.83-.56,2.12.27.58.4-.73.61-1.45.47-1.59s-.48.31-.74,1m-12.13.52c-.79,1.73-.64,2.09.21.53.4-.74.64-1.42.53-1.53s-.44.35-.74,1m3.69.42c-.7,1.83-.56,2.12.27.58.4-.73.61-1.45.47-1.59s-.48.31-.74,1M47.07,352.59a9.83,9.83,0,0,0,1.51,2c.37.3.08-.35-.65-1.44-1.52-2.3-2.11-2.68-.86-.55m366,.19c-.29.65-.35,1.18-.13,1.18.39,0,1.09-1.93.81-2.21-.08-.08-.38.39-.68,1m-9.09,1.76c-1.33,2.49-1.81,3.64-1.53,3.64a15.43,15.43,0,0,0,1.63-2.82c1.61-3.18,1.52-3.87-.1-.82m-346.45-.19a6.13,6.13,0,0,0,1.28,1.52c.51.41.4.09-.29-.86-1.24-1.68-1.7-2-1-.66m-8,1.72c.73,1.39,2.37,3.35,2.37,2.81a7,7,0,0,0-1.43-2.11c-.78-.9-1.2-1.22-.94-.7m10.87,2c.62.71,2.49,2.66,4.14,4.34,2.3,2.34,2.1,2.05-.88-1.28a49.37,49.37,0,0,0-4.13-4.34c-.15,0,.24.58.87,1.28m337.32,1.07c-.4.77-.62,1.4-.49,1.4a4.17,4.17,0,0,0,1-1.4c.4-.78.62-1.41.49-1.41a4,4,0,0,0-1,1.41m12.19,0c-.4.77-.62,1.4-.49,1.4a4.17,4.17,0,0,0,1-1.4c.4-.78.62-1.41.49-1.41a4,4,0,0,0-1,1.41m-9.45,1.75c-.77,1.23-1.77,2.81-2.24,3.52s-.74,1.29-.62,1.29a41.26,41.26,0,0,0,4-6c1-1.86.25-1.12-1.18,1.17m7.88,1.13c-.33.53-.5,1.06-.38,1.19s.48-.23.78-.79.46-1.1.37-1.19-.44.26-.77.79M55,363c.74,1,1.44,1.64,1.57,1.51s-.48-.91-1.34-1.73l-1.57-1.51L55,363m340.32,0c-1.62,2.74-1.72,3-.9,2,1-1.14,1.77-2.58,1.47-2.58-.13,0-.38.26-.57.58M60.11,368.45c5.32,5.57,13.83,13,13.83,12.09A27,27,0,0,0,71,378.06c-1.62-1.26-5.46-4.71-8.56-7.67s-4.15-3.83-2.34-1.94m343.6.91c-1.33,2-3.44,4.85-4.68,6.4s-1.86,2.5-1.38,2.12c1.55-1.23,9.05-11.56,8.67-11.93a18.18,18.18,0,0,0-2.61,3.41m-8.86-.28a100.89,100.89,0,0,1-8.06,9.22,13.2,13.2,0,0,0-2.29,2.7c.35.36,8.57-8.79,11.77-13.09,2.16-2.91,1-2-1.42,1.17m-323.73-.14c1.17,1.06,3.59,3.12,5.4,4.57,4.4,3.54,4.45,3.58,4.45,3.27a27.86,27.86,0,0,0-3.63-3,48.07,48.07,0,0,1-4.57-3.82,14.26,14.26,0,0,0-2.35-2c-.89-.59-.63-.22.7,1m311.55,9.65c-3.63,3.69-5.84,6.12-4.92,5.38,2.3-1.86,12.39-12.31,11.71-12.14-.11,0-3.17,3.07-6.79,6.76m-299.35-.08a10.88,10.88,0,0,0,2,1.44l2,1.26-1.64-1.42c-1.48-1.28-2.34-1.75-2.34-1.28m308.05,5.6a109.84,109.84,0,0,1-8.21,7.37c-1.54,1.15-2.92,2.21-3,2.35-.44.48-7.73,5-10.48,6.48-23,12.48-57.32,14.27-82.13,4.28-6.52-2.62-11.95-4.68-12.33-4.68a5.4,5.4,0,0,1-1.85-1.14,8,8,0,0,0-2.73-1.47,7,7,0,0,1-2.55-1.37,8,8,0,0,0-2-1.33c-.65-.23-11.5-7.31-13.7-8.94-.37-.28-1.75.34-4,1.82A96.63,96.63,0,0,1,237.05,394c-3.26,1.7-7,3.53-8.4,4.07s-3.39,1.39-4.49,1.89a11.87,11.87,0,0,1-2.51.92,3.56,3.56,0,0,0-1.31.45C215.61,404,194,409,183.42,410c-13.35,1.18-32.59,1-38.38-.46-.55-.13-2.9-.54-5.23-.89a148.79,148.79,0,0,1-15-3.23l-4.92-1.4c-10.27-2.87-26.34-10.21-35.24-16.09-4.86-3.22-5-3.29-4-2.19.82.93.8.95-1.64,1.24-9.56,1.14-26.38,5.7-33.9,9.19-20.35,9.43-1.4,19.67,50,27,18.4,2.61,38,4.36,71,6.34C208.81,432,289,431.32,329,428.05c13.69-1.12,17.36-1.43,21.8-1.86,89.87-8.72,111.52-26.31,47.23-38.39-8.79-1.65-8.5-1.28-4.31-5.49a35.76,35.76,0,0,0,3.25-3.49c-.12,0-2.65,2.39-5.61,5.29M75.63,382.17c2.08,1.57,2.48,1.7.91.29a6.12,6.12,0,0,0-1.84-1.29c-.23,0,.19.44.93,1m306.1.75c-1,1-2.63,2.34-3.52,3.07-1.39,1.14-1.31,1.12.57-.16s5.59-4.69,5.06-4.67a15.29,15.29,0,0,0-2.11,1.76m-288.1,2.16c.65.38,1.26.6,1.37.49.29-.29-.06-.51-1.37-.86l-1.17-.31,1.17.68m2.61,1.45a3.34,3.34,0,0,0,1.38.69c.25,0,.06-.31-.45-.69a3.37,3.37,0,0,0-1.37-.69c-.26,0-.06.31.44.69m275,2.16-1.62,1.44,1.75-1.26c1.56-1.12,2.06-1.62,1.63-1.62a15.11,15.11,0,0,0-1.76,1.44m1.94.66c-3.69,2.58-4.17,3.06-1.59,1.6,1.92-1.09,5.3-3.67,4.82-3.68a28.85,28.85,0,0,0-3.23,2.08m-270.38.5c1,.75,1.86.91,1.47.27a2.59,2.59,0,0,0-1.32-.68c-1-.26-1-.25-.15.41m6.83.57c0,.4,8.42,4.5,8.69,4.23a25,25,0,0,0-4.26-2.38c-2.44-1.21-4.43-2-4.43-1.85m258.23.38c-1.76.95-1.65,1.35.12.43a3.92,3.92,0,0,0,1.4-1c0-.3-.05-.28-1.52.52m-262,.4c1.31.79,2.34,1,1.62.32a4.76,4.76,0,0,0-1.62-.72l-1.17-.31,1.17.71m109.56,2.51c-3.06,1.2-5.36,2.25-5.12,2.33a29.33,29.33,0,0,0,5.19-1.75c4.94-2,8.12-2.59,5.72-1.14l-1.18.7,1.18-.31c1.39-.38,3.75-1.53,3.75-1.85,0-.87-4.75.13-9.54,2m152.08-.79c-.78.63-.86.79-.24.47,1.53-.79,2.38-1.44,1.88-1.43a4.34,4.34,0,0,0-1.64,1m-257.63-.1a4.58,4.58,0,0,0,1.62.72l1.17.31-1.17-.7c-1.31-.79-2.33-1-1.62-.33m3.49,1.4c1.15.68,3.12,1.17,2.58.64a5,5,0,0,0-1.87-.76c-.92-.19-1.16-.15-.71.12m104.33.31c-1.17.57-1.21.63-.23.39,1.32-.32,2.82-1.08,2.11-1.07a7.28,7.28,0,0,0-1.88.68m146.73,0c-.5.38-.69.7-.41.71a3.29,3.29,0,0,0,1.4-.68c.5-.38.69-.69.42-.7a3.1,3.1,0,0,0-1.41.67m-245.15.79c.23.38-.07.45-1,.25l-1.36-.28,1.41.64c.83.38,1.51.46,1.68.19s.76-.25,1.55.05,1.15.7,1,.95c-.27.44,0,.53,2.18.66a2.09,2.09,0,0,1,1.13.4,2.88,2.88,0,0,0,1.57.33c1.1,0,1.05-.08-.43-.63-.9-.33-3-1.16-4.56-1.85-3.27-1.4-3.61-1.48-3.13-.71m94.55.41c-1.57.63-1.28.95.35.39a3.84,3.84,0,0,0,1.41-.68c0-.28-.57-.18-1.76.29m147.79.2c-.88.65-.88.67.15.41a2.66,2.66,0,0,0,1.32-.68c.39-.64-.46-.48-1.47.27m-154.4.8c-.87.25-1.49.54-1.39.64s3.66-.67,3.66-1-.37-.22-2.27.33m149.74.16-1.41.67,1.41-.26c1.08-.19,1.24-.13.7.25-.88.62,0,.66.94,0,.51-.33.53-.45.09-.46s-.49-.21-.33-.47c.36-.59.32-.58-1.4.23m-148.87.7c-.93.61.24.61,1.64,0l.94-.4-.94,0a3.28,3.28,0,0,0-1.64.42m-6.57,1c-1.41.49-2,.77-1.25.64.89-.16,1.23-.08,1,.26s.11.4,1,.18c2.06-.5,3.32-1.05,2.5-1.1-.62,0-.62-.08,0-.49,1.15-.74-.29-.51-3.28.51m151.3.17c-.37.38-.76.64-.86.59s-.05.07.09.26,1,.12,1.82-.18c1.12-.39,1.36-.64.9-.93-.87-.56-1.16-.52-2,.26m-157.63,1.37c-1.11.34-1.65.7-1.33.9.74.46,5.4-.57,5.06-1.11s-1.39-.5-3.73.21m153.44-.1c-1.47.54-1.78,1.54-.35,1.13l1.88-.53c.52-.15.83-.47.68-.7-.32-.52-.52-.51-2.21.1m-158.71,1.21c-.84.1-1.53.35-1.53.56,0,.41,3.61-.13,4.09-.61.16-.16,0-.26-.37-.22l-2.19.27m154.61.13-1.17.37,1.29.05c.71,0,1.29-.17,1.29-.42s-.05-.45-.12-.43-.65.22-1.29.43m-160.24,1.26a4.12,4.12,0,0,0,1.64,0c.45-.12.08-.22-.82-.22s-1.27.1-.82.22"/><path id="path6" class="cls-6" d="M290.65,160.37c-3.7,1.07-.88,7.41,7.62,17.16,2.08,2.38,5.25,6.12,7.06,8.32s3.61,4.37,4,4.82c1.42,1.59,6.85,8.84,9.42,12.54l4.78,6.92a39.9,39.9,0,0,1,2.19,3.36c0,.11,1,1.8,2.34,3.74s2.34,3.64,2.34,3.75,3.15,5.77,5.16,9.19c1.33,2.27,5.18,10.53,6.34,13.6.43,1.16,1.06,2.75,1.38,3.52,1.72,4.08,1.22,5.89-.67,2.46-5.37-9.72-22-31.68-35.07-46.3-18-20.09-29.61-29.15-40.95-31.87-8-1.92-10.34-.61-8.09,4.54a27.72,27.72,0,0,0,5.79,9.24c4.5,5,7.59,8.6,10.15,11.75,1.25,1.55,2.67,3.24,3.14,3.75,1.56,1.72,11.81,15.41,14.41,19.26,3.32,4.93,3.79,5.66,7.14,11.23a7.23,7.23,0,0,0,.84,1.17,25.64,25.64,0,0,1,1.69,2.81c.77,1.42,1.83,3.32,2.34,4.22,1.27,2.23,5.53,10.63,6.42,12.66,1.5,3.4,6.39,17.18,6.39,18s-2.26-1.68-2.54-2.79c-1.92-7.62-24.48-37.88-42.84-57.43l-8.92-9.5c-5.16-5.56-14.29-9.56-17.43-7.62-.83.51-.53,6.82.46,9.62a20,20,0,0,1,.92,3.2c0,.93,7.29,15.22,8.62,17a17,17,0,0,1,1.12,1.76c.33.58.85,1.53,1.18,2.11a7.91,7.91,0,0,0,.84,1.29c.31.29,8.39,14,9.94,16.88.62,1.16,1.83,3.37,2.68,4.92s2.41,4.5,3.48,6.56a29.23,29.23,0,0,0,2.77,4.6c.46.46.71,1,.56,1.28s0,1,.43,1.74c.91,1.66,3.11,6.54,4.7,10.44.69,1.68,1.44,3.47,1.68,4s.76,1.89,1.16,3l3.13,9.14c2.68,7.84,3.54,11.11,4.22,15.95.25,1.8.78,4.81,1.18,6.67,1.66,7.77-2.42,15.18-11.69,21.24l-3.17,2.07,1.66,1c7.21,4.35,8.1,12.23,2.37,21-2,3.06-8.42,9.71-9.37,9.71a25.26,25.26,0,0,0-2.7,1.65,59.15,59.15,0,0,1-6,3.33c-4.8,2.28-5.13,2.41-7.27,3-4.36,1.13-4,1.87,3.36,6.83,3.05,2.05,5.66,3.84,5.79,4a67.19,67.19,0,0,0,6.8,3.62c1.8.9,3.59,1.82,4,2.05,4.16,2.42,13.61,6.07,20.16,7.78,22.07,5.75,40,4.8,58.14-3.1,20.22-8.79,38.53-27.87,46.61-48.56.71-1.81,1.56-3.92,1.9-4.69,7.43-17,10.39-50.39,6.82-76.9a66.06,66.06,0,0,0-4-15.47c-.32-.78-1.17-2.89-1.88-4.69-3-7.75-10.72-22.13-15.17-28.37-.83-1.16-1.86-2.63-2.29-3.28-8.72-13-32.76-32.8-49.47-40.67-2.9-1.36-2.94-1.46,2.14,5.18,8.11,10.61,12.79,17.69,20.93,31.74,4,6.82,10.19,21.28,9.75,22.61-.2.62-.43.3-3.6-5-2.49-4.21-8.55-13-11.65-16.88l-3.92-4.93c-5.27-6.64-18-21.29-23.7-27.18-2.1-2.2-4.32-4.54-4.92-5.21-8.53-9.51-25.12-16.73-33.12-14.43"/><path d="M478.5,91.5V376.25c0,6.43,10,6.45,10,0V91.5c0-6.43-10-6.45-10,0Z"/><text class="cls-7" transform="translate(517 222.79)">Knotters<tspan x="0" y="90.53">Community</tspan></text></svg>