<svg id="Layer_1" data-name="Layer 1" xmlns="http://www.w3.org/2000/svg" viewBox="0 0 500 500"><defs><style>.cls-1{fill:#c4d600;}.cls-1,.cls-2,.cls-3,.cls-4,.cls-5,.cls-6{fill-rule:evenodd;}.cls-2{fill:#4ec1e0;}.cls-3{fill:#1f1e1d;}.cls-4{fill:#bd8944;}.cls-5{fill:#e5e5e5;}.cls-6{fill:#ffce00;}</style></defs><path id="path0" class="cls-1" d="M249.41,39.68c-.74.14-3.78.63-6.75,1.1-8.39,1.31-24.57,5.77-30.2,8.31-.59.27-3.72,1.6-7,3a192.57,192.57,0,0,0-33.76,18.36c-3.11,2.12-6.87,4.46-8.36,5.21-3.5,1.78-7,4.94-10.61,9.45-1.57,2-4.07,5.1-5.56,6.9a134.5,134.5,0,0,0-8.89,11.56A154.49,154.49,0,0,0,110.49,198c.35,10.76.29,10.55,1.88,6.53.67-1.7,1.95-4.83,2.85-7s1.44-4.17,1.22-4.54-.19-.52.12-.33,1.33-1.42,2.31-3.56c7.07-15.45,17.43-33.61,24.63-43.18s9.84-11.72,5.65-4.55c-2,3.49-2.76,4.93-6.69,13.37A292.75,292.75,0,0,0,131,183.36c-1.25,3.71-3.42,10-4.81,14-6.74,19.41-8.93,28.88-8.93,38.64,0,11.71,4.48,25,8.42,25,2.33,0,9.38-9.88,9.38-13.15a1.39,1.39,0,0,1,.48-1.1,4.82,4.82,0,0,0,.84-2.25,20.82,20.82,0,0,1,1.1-3.64c.41-.94,2-5.22,3.54-9.52,2.49-6.93,3.67-10,5.37-13.75.26-.6,1.45-3.4,2.63-6.22,6.16-14.76,18.38-36.64,26.2-46.92,6.35-8.34,11.42-13.06,7.88-7.34-3.37,5.46-11,22.2-16.51,36.07-4.52,11.43-5.79,14.87-8,21.59-10.46,31.69-13,46.45-10.35,59.45,3.65,17.72,10.29,14.91,17.83-7.55,1.69-5.05,3.38-9.9,3.76-10.79s1.24-3.08,1.91-4.85c2.1-5.59,3.91-10.17,4.94-12.51a19.39,19.39,0,0,0,1-2.56c0-1.49,11.22-23.6,16.77-33,8-13.53,22-31.63,23.49-30.18.17.17-.92,2.25-2.44,4.61s-4.4,7.54-6.42,11.49c-3.43,6.74-4.39,8.78-8,16.89-5.56,12.57-12.87,32.11-15.24,40.72-.28,1-1.41,4.92-2.51,8.63-5.42,18.35-5.88,24.35-2.28,29.72,2.17,3.22,6.2,1.77,11.81-4.25,2.27-2.43,3.06-3.54,8.7-12.31,2.24-3.48,8.82-14.94,11.27-19.63.54-1,1.21-2.25,1.49-2.7,2.92-4.68,7.57-13.12,7.57-13.73a1.41,1.41,0,0,1,.55-1.1,48.83,48.83,0,0,0,4.84-7c0-.22,7.09-10.77,11-16.42,8.26-11.85,24.45-29.87,31.84-35.47,1.78-1.35,4-3.13,4.86-4,5.19-4.83,15.74-5.4,24-1.29a60.19,60.19,0,0,0,6.66,3c.19,0,.35-1,.35-2.14,0-12.77,15.5-18,32.89-11A67.7,67.7,0,0,1,354,165.8c6.93,5.7,6.45,5.4,7.34,4.52,3.28-3.28,2-38.69-2-53.64-.62-2.33-1.36-5.21-1.66-6.4a28.08,28.08,0,0,0-1-3.24c-2.27-5.34-2.68-6.42-2.68-7,0-1.28-7.29-15.09-10.51-19.93-12.21-18.3-36.41-33.89-59.88-38.56-1.78-.36-4.2-.89-5.39-1.19-2.19-.55-26.39-1.11-28.85-.67M263.06,207.9c0,1.78.1,2.44.22,1.47a14.52,14.52,0,0,0,0-3.23c-.13-.81-.22,0-.22,1.76"/><path id="path1" class="cls-2" d="M100.53,220.16c-20.77,9.43-35.93,20.5-49.89,36.41-6.56,7.48-16.83,24.1-17.59,28.45a2.67,2.67,0,0,1-.58,1.38c-.39.29-1.2,3.72-2.85,12.11-.47,2.37-1.14,5.65-1.5,7.28-1.15,5.27-.77,24.55.63,31.51,6.34,31.66,23.41,56,55.41,78.89,13.14,9.42,36.63,22,44.3,23.74.66.15,1,.53.86.84s.08.45.81.25,1.3-.08,1.47.19a1.76,1.76,0,0,0,1.34.49c.58,0,1.05.22,1.05.49s1.76.77,3.91,1.12,5,.86,6.34,1.13c13.36,2.71,48.1,3.41,49,1,.1-.27,1.37-.49,2.83-.49s2.65-.24,2.65-.54.55-.53,1.22-.53c1.5,0,14.33-3.26,19.81-5,9.63-3.11,22.1-8.53,29-12.61a47.19,47.19,0,0,1,4.18-2.32,86,86,0,0,0,8.32-5.74c1-.92-.24-1-5.06-.22-21.07,3.29-55,3.87-69.08,1.16-4.35-.83-4.92-1-3-1.08,20-.4,72-9.23,89.26-15.15,13.43-4.62,28.31-17.42,28.31-24.36,0-3.17-9.43-3.83-21.57-1.51-18.42,3.53-19.53,3.72-25.09,4.29-3,.3-6.72.78-8.35,1.06s-7.46.76-12.94,1.07-11.93.69-14.31.84c-8.16.49-26.35-.82-36.39-2.61l-4-.72,4-.33,11.59-.89A451.9,451.9,0,0,0,250,371.55c13.73-3,14.62-3.21,16.76-4.3a8.79,8.79,0,0,1,3.59-1c2.38.15,10.38-2.32,16.21-5,1.87-.86,3.51-1.56,3.65-1.56,4.12,0,18.57-14.4,18.57-18.5,0-2.5-9.57-4-16.72-2.61-1.63.31-5.87,1.16-9.43,1.88-9.19,1.87-15.56,3-20.23,3.58-2.22.28-5.86.75-8.09,1.05-20.38,2.74-60.69,2.59-65.27-.24a47.37,47.37,0,0,0-5.15-.79c-10.42-1.27-9-1.88,4.49-2,20.92-.13,55.57-4.77,74-9.92,1-.29,4.56-1.16,7.82-1.93,17.25-4.1,23.85-8,24.62-14.52.18-1.53,0-1.72-3.79-3.55-7.09-3.46-15.78-4.2-43.75-3.73-40,.68-76.57-3.67-94.74-11.25-2-.85-5-2-6.62-2.56-7.4-2.57-12.93-12.95-13-24.34,0-3.91.18-3.81-3.72-1.9-15.71,7.69-29.19-16.74-23.87-43.25a31.69,31.69,0,0,0,.85-5.73c-.59-1-2.49-.73-5.65.71"/><path id="path3" class="cls-3" d="M244,28a130.84,130.84,0,0,0-19.41,3.59c-4.43,1.22-14.76,4.61-15.37,5A25.22,25.22,0,0,1,206,38c-4.58,1.67-18.13,8.55-21.84,11.09l-5.66,3.77C145.56,74.64,120,109.4,107.22,149.65a169.92,169.92,0,0,0-7.67,53.64l.19,8.88-1.35.66-8.55,4.23c-55.39,27.32-84.44,85.36-68.55,137,11.16,36.26,36.08,64,74.41,82.9,5.55,2.74,15.73,6.9,16.87,6.9a2,2,0,0,1,1.22.48c.54.5,13.61,4.27,19.66,5.67,21.08,4.85,50.92,5.68,69.84,1.93,1.49-.29,4.64-.89,7-1.32,17.06-3.12,42.37-13.12,55.25-21.84,6.2-4.2,5.74-4.16,10.6-.76,2.34,1.63,6.56,4.34,9.38,6a39.44,39.44,0,0,1,5.52,3.67,4.14,4.14,0,0,0,2.21,1,6.46,6.46,0,0,1,3,1.63,6.83,6.83,0,0,0,3.18,1.65,8.74,8.74,0,0,1,2.52.79c2.19,1.67,18.46,7.17,26.16,8.85,12.45,2.71,12.83,2.74,27,2.76,14.38,0,16.21-.18,27.92-3a121.37,121.37,0,0,0,15.77-5.11,119.15,119.15,0,0,0,24-14.17c17.09-13.6,30.16-32.23,37.88-54a105.42,105.42,0,0,0,4.17-13.88c9.82-40.89,2-86.75-21.47-126.3A106.71,106.71,0,0,0,437,228a6.4,6.4,0,0,1-1.49-2.08c0-1.69-11.08-14.83-20-23.7a163.51,163.51,0,0,0-39.07-29.14l-5.93-3.13.06-3.4c0-1.87.24-7.76.46-13.1a137.63,137.63,0,0,0-3-33.71c-.63-2.82-1.35-6.1-1.6-7.29-.62-3-4-13-4.68-13.85a7.63,7.63,0,0,1-.94-2.32c-.6-2.52-6.84-14.64-10-19.42C327,41,287.23,22.77,244,28m29.48,7.53a123.07,123.07,0,0,1,17.18,3.8c33.8,9.62,61.68,41.93,70.05,81.18,4.17,19.54,4,50.84-.25,51a10.62,10.62,0,0,1-2.16-1.67c-21.61-19.53-49.9-21.35-51.54-3.31-.41,4.59,0,4.44-5.65,1.82-10.69-4.92-18.54-5.21-24.16-.88l-6.06,4.65c-11.82,9.05-37.29,40.28-45.62,55.94a21.15,21.15,0,0,1-2,2.87,6.18,6.18,0,0,0-1.36,2.22,35.88,35.88,0,0,1-2.89,5.49c-1.59,2.68-5,8.76-7.63,13.5C198.64,275.37,193,282.8,184.6,287.19c-13.11,6.89-16.51-4.05-8.48-27.24,1.18-3.42,2.76-8,3.52-10.25,6.94-20.41,22-51.71,33.7-69.85,3.54-5.51,3.57-5.62.76-3-7.84,7.42-18,22.75-27.47,41.26-5.5,10.8-13.27,28.29-13.27,29.88a15.22,15.22,0,0,1-1.29,3.5c-.71,1.52-2.79,7.24-4.63,12.73-6,17.91-9.86,23.19-16.91,23.19-6.63,0-10.62-9.88-9.83-24.27.42-7.56.45-7.73,4.44-20.92A401.37,401.37,0,0,1,174.41,172c8.74-16.05,9.11-17.4,2.45-8.9-12.23,15.63-25.47,41.15-35.41,68.23-1.47,4-3.16,8.74-3.75,10.52-3.16,9.55-5.14,13.61-8.22,16.9-12.28,13.07-22.93-15.85-14.87-40.36,2.77-8.41,10.94-30.06,13.74-36.41.39-.89,1.73-4,3-7a315.15,315.15,0,0,1,14-28.32c4.46-7.78,4.52-8.24.35-3-7.91,10-27.36,44-27.36,47.86a4.1,4.1,0,0,1-.73,1.77,66.17,66.17,0,0,0-3,6.73c-4.71,11.71-6.57,14.22-7.29,9.87-1.06-6.34.1-30.36,1.84-38.18.27-1.19,1-4.59,1.65-7.56,5.26-24.43,18.72-51.7,35.53-71.91,2.54-3.06,5.74-6.94,7.11-8.63,2.41-3,6.11-6.42,16.75-15.56,28.46-24.47,70-37.58,103.28-32.56m60.05,127.88c12,4.21,21.63,12.44,36.73,31.53,18.28,23.1,27.65,36,31.54,43.28a25.46,25.46,0,0,0,2.07,3.34,25.36,25.36,0,0,1,2.11,3.53c1.45,2.83,2,2,.67-1-.42-.94-1.29-2.92-1.94-4.4-6.14-14.2-17.86-33.22-31.54-51.24-9.64-12.67-9.62-13.93.11-8.82,31.9,16.74,61.94,50.43,75.18,84.33.23.59.92,2.26,1.53,3.71a18.36,18.36,0,0,1,1.12,3.15,9.33,9.33,0,0,0,.76,2.23c1.81,4.06,5.09,16,7.34,26.77,4.49,21.49,2.51,54.57-4.36,72.81-.61,1.64-1.44,3.94-1.83,5.13-8.21,25-30,49.24-54.49,60.38-14.92,6.8-27.59,9.19-46.39,8.76-13.41-.31-18-1.06-32.9-5.4a110.42,110.42,0,0,1-13.85-5.3l-8.1-4.09c-5.52-2.78-19-11.36-21.33-13.6-2-1.94-1.58-2.93,1.89-4.06,28.47-9.3,44.77-36.43,26.45-44-2.12-.88-1.94-1.24,1.86-3.8,8.51-5.74,13.84-13.06,14-19.21.22-9-6.09-33.41-11.95-46.25-.27-.59-1.51-3.5-2.75-6.47s-2.83-6.54-3.54-7.94a12.06,12.06,0,0,1-1.29-3.58,1.45,1.45,0,0,0-.71-1.31c-.4-.15-1.85-2.55-3.23-5.32-4.3-8.65-9.45-17.73-19.68-34.7-5.39-8.93-11.72-21.34-12.26-24a16,16,0,0,0-1.16-3.42c-1.2-2.33-1.19-12.5,0-14.78,3.79-7.21,17.94-1,26.62,11.73a11.92,11.92,0,0,0,1.56,1.88c.6.52,5.07,5.67,10.77,12.42,5.14,6.08,16.63,22,23,31.81,1.92,3,4,6.1,4.53,7s1.54,2.44,2.16,3.5c5.81,10,7.45,12.89,9.86,17.52,3.33,6.43,3.42,6.16.61-2-8.5-24.59-25.32-51.16-51.46-81.29-12.9-14.88-15.74-21.56-11.52-27.1,5.25-6.88,25.24.49,37.22,13.73,2.15,2.38,5,5.45,6.27,6.82,11.84,12.52,34.83,42.36,38.6,50.09.61,1.26,1.37,2.29,1.68,2.29s1.6,1.76,2.85,3.91c2.25,3.85,6.06,10.15,7.1,11.73.29.44,1,1.74,1.65,2.88,1.84,3.4,1.81,1.84-.06-3.24-7.44-20.25-26.13-48.73-49.7-75.73-8.15-9.35-11.22-14.61-11.21-19.26,0-2.64,1.71-5.38,3.62-5.81a19.12,19.12,0,0,0,2-.54c1.59-.64,10.54.28,13.75,1.41m-62.33,22.3c.88,2.94,1,2.82-3.95,3.2l-3.44.27L267,186a22.55,22.55,0,0,1,3.31-3,22,22,0,0,1,.94,2.72M255.15,207.3c.12,11,2.91,17.66,18.25,43.48,11.66,19.62,18.54,32.36,23.74,44,6,13.43,7.26,17.56,4.42,14.72-1.88-1.88-9.18-5.53-13.59-6.8-5.92-1.7-9.42-1.87-41-2-30.94-.12-41.21-.59-55.42-2.51-8.29-1.13-9.83-1.61-7.2-2.27,9-2.27,19.72-14.34,31.06-35.1,2.27-4.16,6.36-11.48,9.08-16.27s4.95-8.94,4.95-9.22a3.12,3.12,0,0,1,1.05-1.46,13.29,13.29,0,0,0,2.16-3.32c.61-1.31,1.35-2.37,1.64-2.37s1.12-1.17,1.84-2.6a14,14,0,0,1,2.17-3.3,2.28,2.28,0,0,0,.85-1.33,13.43,13.43,0,0,1,2-3.37l5.94-8.12c3.34-4.59,7.55-9.87,7.86-9.87.05,0,.13,3.49.17,7.76m-149,12.15a31.69,31.69,0,0,1-.85,5.73c-5.32,26.51,8.16,50.94,23.87,43.25,3.9-1.91,3.71-2,3.72,1.9,0,11.39,5.57,21.77,13,24.34,1.61.56,4.59,1.71,6.62,2.56,18.17,7.58,54.76,11.93,94.74,11.25,28.4-.48,36.4.23,44,3.87,8.53,4.08,10.54,7.73,7.08,12.88s-9.25,7.21-35.46,12.06c-20.71,3.84-50.42,6.14-70.57,5.48-7.59-.25-10.86-.19-10.62.2a1.67,1.67,0,0,0,1.29.57,28.15,28.15,0,0,1,4.15.84c13.21,3.45,44.4,3.79,67.12.74,2.23-.3,5.87-.77,8.09-1.05,4.67-.59,11-1.71,20.23-3.58,3.56-.72,7.8-1.57,9.43-1.88,4.73-.92,13.29-.34,16.07,1.09,6.18,3.18,5.73,11.9-.82,16.08a10.29,10.29,0,0,0-2.17,1.86c-1.08,1.46-5.52,4.51-9.3,6.37-1.93,1-4.13,2.07-4.89,2.47-1.54.82-16.47,4.81-22.35,6-10.83,2.15-22.69,3.87-42.33,6.14-6.86.79-21.51,1.68-34.25,2.07l-11.33.35,4.59.93c13.24,2.66,46.7,2.88,61.48.39,1.63-.27,5.39-.75,8.35-1a166.35,166.35,0,0,0,16.73-2.69l8.36-1.59c19.48-3.71,27.2-.06,22.19,10.49-6.6,13.89-23.67,21.21-61,26.17L231.07,415a288.27,288.27,0,0,1-35.33,2.78l-14,.33,5.39,1c7.53,1.38,25,2,39.64,1.45,11.48-.46,15.62-.84,31.91-3,9.19-1.2,11-.36,6,2.76A173,173,0,0,1,247,430.47c-22.8,11.27-45.25,16.28-73.08,16.28-13.86,0-15.41-.14-33.44-2.91-7.11-1.1-25.87-6.39-30.47-8.6-.59-.29-2.41-1-4-1.66a199,199,0,0,1-20-10.16c-12.37-7.78-18.42-12.5-27-21.07-30.92-30.86-42-71.47-29.6-108.43a82.34,82.34,0,0,1,6-14.29c12.94-25.75,34.77-45.68,65.14-59.47,3.16-1.44,5.06-1.68,5.65-.71m60.13,69.78a13.62,13.62,0,0,0,1.92,3c1.7,2,1.39,2.09-3.63.8l-3.63-.93,2-2c2.32-2.38,2.71-2.47,3.35-.8m143,38.69c1.1,4,1.14,3.93-1.24,3.48-3.29-.62-3.55-1-2.18-3.46a9.41,9.41,0,0,0,1.21-3c0-2,1.33-.22,2.21,3"/><path id="path4" class="cls-4" d="M247.93,27.34a9.75,9.75,0,0,0,2.7,0c.66-.13,0-.23-1.49-.23s-2,.11-1.21.23m18.61,0a5.94,5.94,0,0,0,2.15,0c.52-.14,0-.24-1.22-.24s-1.6.12-.93.25M240,28c-3.14.57.19.59,3.78,0,2.55-.4,2.58-.42.53-.42A31.38,31.38,0,0,0,240,28m30.52-.34a20.05,20.05,0,0,0,3.46.5c2,.18,2.72.13,1.88-.15-1.33-.43-5.78-.73-5.34-.35m-39.69,2c-1.45.37-1.48.42-.27.42a10.18,10.18,0,0,0,2.7-.42c1.81-.58-.15-.58-2.43,0m51.78,0a5.8,5.8,0,0,0,1.88.47c.51,0,.41-.18-.27-.47a6,6,0,0,0-1.88-.46c-.51,0-.41.17.27.46m-58.25,1.62c-.68.29-.78.46-.27.46a5.87,5.87,0,0,0,1.89-.46c.68-.29.78-.46.27-.46a5.75,5.75,0,0,0-1.89.46m64.72,0a5.75,5.75,0,0,0,1.89.46c.51,0,.41-.17-.27-.46a5.87,5.87,0,0,0-1.89-.46c-.51,0-.41.17.27.46m5.12,1.54a10.49,10.49,0,0,0,2.43.82c1,.23,1.32.18.81-.12a10.93,10.93,0,0,0-2.43-.83c-1-.22-1.33-.18-.81.13M245.9,35c-1.19.2.88.26,4.59.11a68.79,68.79,0,0,0,7-.45c.39-.34-9.29-.06-11.55.34m13.8-.34a58.91,58.91,0,0,0,6.42.47c3.88.17,5.3.11,3.78-.15-2.43-.43-10.62-.69-10.2-.32M207.61,37c-1.35.66-1.4.73-.27.46a5.1,5.1,0,0,0,1.86-.81c.7-.65.32-.57-1.59.35m27.5-.29c-1.46.38-1.49.42-.27.44a7,7,0,0,0,2.43-.44c1.33-.57.09-.57-2.16,0m43.42,0a9.59,9.59,0,0,0,2.43.43c.85,0,.8-.09-.27-.43a10.14,10.14,0,0,0-2.43-.43c-.85,0-.8.09.27.43m-51.16,1.7c-1,.29-1.71.63-1.58.76a7.24,7.24,0,0,0,2.62-.52c2.68-.84,1.78-1.05-1-.24m-6.82,2.08c-.68.29-.78.46-.27.46a6,6,0,0,0,1.89-.46c.68-.29.78-.46.27-.46a5.87,5.87,0,0,0-1.89.46M196,42.06c-1,.57-1.64,1-1.35,1a9.1,9.1,0,0,0,2.43-1c1-.57,1.65-1,1.35-1a9.39,9.39,0,0,0-2.43,1m19.15.28c-1.35.66-1.39.73-.27.45,1.53-.37,3.25-1.25,2.43-1.23a8.6,8.6,0,0,0-2.16.78M296.87,42a9.48,9.48,0,0,0,2.16.87c.93.25,1.1.21.53-.14a9.15,9.15,0,0,0-2.15-.86c-.94-.26-1.1-.21-.54.13m-90.07,3.6c-.74.43-1.11.77-.81.77a5.76,5.76,0,0,0,1.89-.77c.74-.42,1.1-.77.81-.77a6,6,0,0,0-1.89.77M202,47.72c-.75.42-1.11.77-.81.77a6.07,6.07,0,0,0,1.88-.77c.75-.43,1.11-.77.81-.77a5.82,5.82,0,0,0-1.88.77m-3.37,1.66c-2,1.09-1.9,1.55.13.5a4.67,4.67,0,0,0,1.62-1.1c0-.34-.06-.32-1.75.6m129.69,2.13c.8.85,1.56,1.44,1.68,1.31s-.54-.83-1.47-1.55L326.8,50l1.47,1.54M176.73,53.44a11.07,11.07,0,0,0-2.29,1.89,8.64,8.64,0,0,0,2.43-1.41A13.43,13.43,0,0,0,179.29,52c0-.37-.1-.32-2.56,1.43m159.78,5.88c3.25,3.26,6,5.93,6.18,5.93s-2.39-2.67-5.64-5.93-6-5.94-6.19-5.94,2.4,2.67,5.65,5.94M320.6,55.14a15,15,0,0,0,2.29,2c1.26,1,1.95,1.4,1.53.88-.79-1-3.82-3.3-3.82-2.92M167.16,60.72,165,62.65l2.3-1.71c2-1.48,2.68-2.19,2.15-2.16-.07,0-1.1.88-2.29,1.94m11.67.72a36.64,36.64,0,0,0-3.5,2.77c-.68.75,4.83-3,6.1-4.18,1.45-1.31.32-.7-2.6,1.41M330.6,64.2c2.66,2.83,4.94,5.07,5.08,5s-2-2.42-4.83-5.16l-5.08-5,4.83,5.16m-167.79.1-1.58,1.76L163,64.47a13.84,13.84,0,0,0,1.75-1.75c0-.42-.44,0-1.92,1.58m8.65,2.88-2.68,2.46,2.83-2.28c2.54-2,3.15-2.65,2.68-2.65-.08,0-1.35,1.11-2.83,2.47m-14.82,2.54C152.47,73.72,144.5,82,144.82,82c.13,0,3.73-3.52,8-7.83,8-8.07,10-10.3,3.8-4.42m9.77,1.49c-.71.59-1.18,1.19-1,1.33s.83-.35,1.52-1.09c1.52-1.61,1.3-1.72-.48-.24m169.83-.6c0,.31.2.57.43.57a16.92,16.92,0,0,1,3,3.51c2.28,3.1,3.79,4.69,2.7,2.83-1.91-3.25-6.14-8-6.14-6.91m13.19,4.21a12.09,12.09,0,0,0,1.74,2.29c.39,0-1.67-3.28-2.48-4-.43-.35-.09.4.74,1.66M159,78.06c-2.69,2.59-3.78,3.72-2.42,2.51s3.14-2.71,4-3.34c1.35-1,4-3.9,3.52-3.89-.1,0-2.38,2.13-5.07,4.72M343.2,79.72a4.6,4.6,0,0,0,1.19,1.47c.42.26.42,0,0-.75A4.6,4.6,0,0,0,343.19,79c-.42-.27-.42,0,0,.75M142.93,84l-1,1.46,1.44-1.3c1.51-1.38,1.7-1.68,1-1.65-.22,0-.87.68-1.44,1.49m4.48,7c-2.14,2.6-4.39,5.3-5,6s-.85,1.19-.52,1.08a32.22,32.22,0,0,0,4-4.48c1.89-2.35,4-5,4.7-5.8s1.12-1.53,1-1.53A48,48,0,0,0,147.41,91m201.06-2.77c.56,1.45,3.39,6.44,3.4,6s-3.18-6.86-3.49-6.86c-.13,0-.09.39.09.87M135.82,92.89c-1.41,1.85-2.78,3.67-3.06,4s-.4.68-.25.68a33.81,33.81,0,0,0,3.32-4,28.62,28.62,0,0,0,2.79-4,24.94,24.94,0,0,0-2.8,3.37m223.11-1.48a5.82,5.82,0,0,0,.77,1.88c.42.74.77,1.11.77.81a6.1,6.1,0,0,0-.77-1.89c-.43-.74-.77-1.1-.77-.8m1.87,4.85A6.4,6.4,0,0,0,362,98.69c.59.62.56.3-.12-1.35-1.14-2.75-1.51-3.14-1-1.08m-7.06,3a47.52,47.52,0,0,0,3.13,7.81c.26.3-.29-1.51-1.21-4-1.64-4.44-2.68-6.51-1.92-3.78m-213.13.13c-1.05,1.36-1.41,2.2-.77,1.81s1.91-2.48,1.52-2.48c-.13,0-.46.3-.75.67m222.37,2a9.72,9.72,0,0,0,.85,2.16c.35.56.39.4.14-.54a9.9,9.9,0,0,0-.86-2.16c-.34-.56-.39-.39-.13.54m-226.26,3.91c-1.56,2.3-1.77,2.77-.66,1.49a28.55,28.55,0,0,0,2.51-3.38c1.58-2.67.48-1.55-1.85,1.89m-5.33,8.09c-2.95,4.93-4.56,8-4.22,8a45.24,45.24,0,0,0,3.06-5c1.56-2.75,3.19-5.53,3.63-6.2s.66-1.22.5-1.22a30,30,0,0,0-3,4.45m226.25-3.1a10.25,10.25,0,0,0,.77,2.43c.81,1.45.53-.61-.33-2.43l-.76-1.62.32,1.62m8.84,2.47a7.45,7.45,0,0,0,.53,2.39c.34.75.38.42.16-1.08-.38-2.51-.75-3.19-.69-1.31M359,114.6c0,1.14,1.38,5.76,1.46,4.85a18.87,18.87,0,0,0-.7-3.24c-.42-1.48-.76-2.21-.76-1.61m-239.85,4.63a4.12,4.12,0,0,0-.65,1.88c.12.12.62-.63,1.11-1.67,1.11-2.32.73-2.5-.46-.21m249,.76a9.67,9.67,0,0,0,.43,2.43c.34,1.06.43,1.12.43.27a9.59,9.59,0,0,0-.43-2.43c-.34-1.07-.43-1.12-.43-.27m-7,4.58a15.3,15.3,0,0,0,.43,3l.41,1.62v-1.62a11.63,11.63,0,0,0-.42-3l-.44-1.34v1.34m-236.88,1.62c-.34.65-.5,1.29-.35,1.44s.55-.25.89-.9.51-1.29.36-1.44-.55.26-.9.9m-1.86,4.19c-1.61,3.33-2.48,5.52-2.19,5.52s3.58-7.12,3.35-7.36-.62.73-1.16,1.84m247.64,1.74a21.59,21.59,0,0,0,.5,3.73c.36.41.07-4-.36-5.61-.28-1-.33-.32-.14,1.88M113.58,130.8c-.9,2-.73,2.4.25.6.46-.84.73-1.63.61-1.75s-.51.39-.86,1.15m248.67.25c0,1,.11,1.46.25.94a4.63,4.63,0,0,0,0-1.89c-.14-.52-.25-.09-.25,1m.69,18.87c0,8.46.15,14,.35,12.41.46-3.89.46-21.62,0-25.08-.19-1.48-.35,4.22-.35,12.67m-244-11.8a4.7,4.7,0,0,0-.41,1.93c.11.11.51-.54.89-1.45s.56-1.78.4-1.94-.55.5-.88,1.46m252,.48c0,1.33.11,1.88.24,1.21a7.62,7.62,0,0,0,0-2.43c-.13-.66-.24-.12-.24,1.22M149,139c-1,1.12-3,3.61-4.44,5.54-2.79,3.75-1.56,2.56,2.21-2.14,2.13-2.66,3.2-3.21,1.57-.81s-3.71,6.4-2.93,5.64c1.17-1.12,6-9.66,5.69-10-.14-.15-1.09.65-2.1,1.77m-38.71.21a4.22,4.22,0,0,0-.39,1.94c.11.11.48-.57.81-1.53a4.22,4.22,0,0,0,.39-1.94c-.11-.11-.48.57-.81,1.53m7,2.93c-.9,2-.73,2.4.25.6.45-.84.72-1.63.6-1.76s-.51.4-.85,1.16m21.28,10.62c-3.51,5.43-5.92,9.58-5.57,9.58a26.78,26.78,0,0,0,2.58-3.91c1.27-2.16,3.07-5,4-6.34,2.23-3.21,2.56-3.78,2.18-3.78a31,31,0,0,0-3.19,4.45m4.55-2.34a6.56,6.56,0,0,0-.9,2.21c.4,0,2.54-3.91,2.28-4.17s-.76.74-1.38,2m-29.38,2a3.24,3.24,0,0,0-.14,1.66c.13.13.4-.41.6-1.2a3.23,3.23,0,0,0,.13-1.67c-.13-.13-.4.42-.59,1.21m-8.63,2.15a3.11,3.11,0,0,0-.13,1.67c.12.13.39-.41.59-1.2a3.11,3.11,0,0,0,.13-1.67c-.13-.13-.4.41-.59,1.2M317,154.3c-2,.59-2.4,1.2-.4.7.74-.19,2.62-.53,4.18-.75l2.83-.42-2.43,0a17.77,17.77,0,0,0-4.18.49m11.73.21a35.56,35.56,0,0,0,4.74.56c.37-.37-4.9-1.37-7-1.32-1.77,0-1.22.23,2.26.76m-147.81,3c-3.4,3.93-8.19,10-8.79,11.25-.44.87.81-.62,5.77-6.9,5.13-6.5,4.28-4-3.44,10.13a443.61,443.61,0,0,0-22.54,50c-3.21,8.56-9.89,29.86-10.54,33.6-2.49,14.32,1,30.12,7.06,31.63,2.07.52,6.12-.14,7.09-1.16s.81-.9-.25-.35c-3.9,2-7.87-9.58-7.92-23.11,0-10.81,7-37.88,15.46-59.72,7.84-20.13,10.42-26.14,16.86-39.16,3.12-6.32,3.2-6.55,2.27-6-.39.24-.48.15-.23-.24a.67.67,0,0,1,.86-.34c.56.34,1.77-1.7,1.49-2.52-.1-.31-1.52,1-3.15,2.86m130.1-.3a16.16,16.16,0,0,0-2.85,3c-.32.61.47,0,1.76-1.26a26.42,26.42,0,0,1,3.43-3c.59-.35.82-.66.5-.67a9.38,9.38,0,0,0-2.84,1.9m25.18-1.1a10.26,10.26,0,0,0,2.16.76c.7,0-2.38-1.56-3.16-1.55-.45,0,0,.35,1,.79m-224,1.86a4.08,4.08,0,0,0-.13,2c.14.13.41-.53.6-1.48.45-2.24,0-2.68-.47-.47M340,157.7c1.51.91,2.69,1.14,1.86.37a5.44,5.44,0,0,0-1.86-.83l-1.34-.35,1.34.81m30.9,2.74c0,1.48.11,2,.23,1.2a9.29,9.29,0,0,0,0-2.69c-.12-.67-.22,0-.22,1.49m-267.86,3c-.45,2.25,0,2.69.47.47a4,4,0,0,0,.12-1.94c-.14-.14-.4.53-.59,1.47M319.79,162a19.12,19.12,0,0,1-2,.54c-4.24.94-4.62,9.49-.66,14.63.45.58.17-.38-.61-2.13-2.43-5.44-2.39-7.67.14-8.37,9.2-2.55,28.1,5.74,37.86,16.62.69.77,3.24,3.46,5.67,6,4.08,4.26,7,7.53,18.74,21,2.44,2.81,6.26,7.42,8.49,10.25s4.17,5.26,4.31,5.41.36-.05.49-.43c.21-.57.41-.57,1.09,0,1.87,1.55-8.75-12.57-23-30.58-15.1-19.09-24.68-27.32-36.73-31.53-3.21-1.13-12.16-2.05-13.75-1.41m30.74,1.48c.89.69,3,2.33,4.58,3.65s2.62,2,2.19,1.43a51.6,51.6,0,0,0-7.58-5.93c-.44-.22-.08.16.81.85m-44.15,1.1a16.81,16.81,0,0,0-.34,3.29c0,1.88-.11,2-1.22,1.72-.95-.27-1-.22-.4.22,1.57,1.11,2,.59,2.31-2.78.32-3.57.2-4.48-.35-2.45m63.94,1.89c-.09,3,0,3.41,1.11,3.94s1.11.5.3-.16c-.62-.5-1-1.76-1.11-3.94l-.2-3.2-.1,3.36m-84.64-2.16a12.21,12.21,0,0,0,3,0c.82-.12.15-.22-1.48-.22s-2.3.1-1.48.22m6.6.69a5.92,5.92,0,0,0,1.89.47c.51,0,.41-.17-.27-.47a6,6,0,0,0-1.89-.46c-.51,0-.41.17.27.46m-181.95.81c0,.6-.21,1.69-.36,2.43l-.28,1.35.58-1.32a4.88,4.88,0,0,0,.36-2.43c-.22-1.08-.22-1.08-.3,0M130,167.18c-.47.89-.72,1.62-.57,1.62a4.63,4.63,0,0,0,1.11-1.62c.46-.89.71-1.62.56-1.62a4.82,4.82,0,0,0-1.1,1.62m147.08-.4c-6.21,4.53-13.6,10.82-13.6,11.58,0,.21,1.15-.72,2.56-2.06a53,53,0,0,1,4.72-4c1.19-.85,3-2.29,4.05-3.2s2.5-2.07,3.24-2.58,1.19-.92,1-.94a8,8,0,0,0-2,1.19m85.14,1.55c-.06,1.9-1.36,3-2.47,2.09-.47-.39-.81-.44-.81-.13,0,.74,1.43,1.24,2.43.86s1.6-2.46,1.17-3.54c-.15-.39-.3-.06-.32.72m-228.63,1.3c-.9,2-.73,2.41.25.61.45-.85.72-1.64.6-1.76s-.51.39-.85,1.15m-32.09,1.27a16,16,0,0,0-.3,2.95c0,.63.27.06.54-1.28a10.79,10.79,0,0,0,.3-2.95c-.1-.3-.34.28-.54,1.28m25,2.75a22.27,22.27,0,0,0-1.9,4.32,26.84,26.84,0,0,0,2.44-4.32,22.36,22.36,0,0,0,1.9-4.31,26.47,26.47,0,0,0-2.44,4.31m42.2.41c-2.66,4.17-4.35,7.14-3.72,6.57.25-.23,3.21-4.84,6.64-10.35.13-.22.14-.4,0-.4a32.47,32.47,0,0,0-2.92,4.18m114.59-1.37c-2.79.74-4.68,3.31-4.92,6.7-.1,1.44-.09,2.11,0,1.48,1-4.76,15.31-1.43,27.45,6.37,2.41,1.56,7.75,6.36,14.62,13.17,13.13,13,17.12,17.4,29.43,32.4,8.51,10.38,23,30.43,25.71,35.64.35.68.87,1.09,1.15.92s.37,0,.22.44a1.45,1.45,0,0,0,.54,1.44c1,.82,1,.26.23-2.11-.41-1.17-.75-1.53-1-1.08s-.78,0-1.55-1.43c-.63-1.15-1.38-2.47-1.67-2.91-1-1.58-4.85-7.88-7.1-11.73-1.25-2.15-2.54-3.91-2.85-3.91s-1.07-1-1.68-2.29c-3.77-7.73-26.76-37.57-38.6-50.09-1.29-1.37-4.12-4.44-6.27-6.82-9.43-10.42-25.82-18.29-33.72-16.19m-66.82.56a52.31,52.31,0,0,0-4,4.45l-3.11,3.77L213,178c3.95-3.79,4-3.75.34,1.88-11.66,18.14-26.76,49.44-33.7,69.85-.76,2.22-2.34,6.83-3.52,10.25-6.56,19-5.72,29.23,2.42,29.23,2.78,0,6.86-1.85,5-2.28a5.48,5.48,0,0,1-2.52-2.12c-3.59-5.33-3.13-11.36,2.29-29.69,1.1-3.71,2.23-7.59,2.51-8.63,2.37-8.61,9.68-28.15,15.24-40.72,3.6-8.11,4.56-10.15,8-16.89,2-3.95,4.88-9.08,6.36-11.38a42.22,42.22,0,0,0,2.69-4.55c0-.55-.81-.4-1.72.33m-108,2.89a11.89,11.89,0,0,0-.13,3.3c.14.13.41-1.13.62-2.8a10.56,10.56,0,0,0,.12-3.3c-.14-.14-.42,1.12-.61,2.8m257.46,1.33a19.82,19.82,0,0,0,3.28,5.65c.27.16.33-.1.14-.59-.29-.76,0-.72,1.88.24,3.3,1.68,3.31,1.42.1-1.84-1.71-1.72-2.6-3-2.14-3s.39-.21-.29-.5c-1.53-.66-3-.64-3,0m-45.56,4.23a41.46,41.46,0,0,0,3.66,4.18c.63.54-.15-.59-1.73-2.51a35.39,35.39,0,0,1-3.14-4.18,1,1,0,0,0-.78-.68c-.29,0,.61,1.43,2,3.19m-198.43.88c-1.89,4.14-1.73,4.48.28.59a11.25,11.25,0,0,0,1.38-3.4c-.14-.14-.89,1.12-1.66,2.81m-22.09.09a35.08,35.08,0,0,0-.27,5c.06,2.38.16,2,.5-1.87.45-5.09.34-6.58-.23-3.13m158.42.83c-5.81,6-18.47,21.43-19.83,24.13-.58,1.15.27.13,4.51-5.41,4-5.24,12.48-15.23,16.11-19a13,13,0,0,0,2.2-2.56,25.1,25.1,0,0,0-3,2.84m116.83-2.59a7.41,7.41,0,0,0,2.16,1.37c1.18.61,2.15,1,2.15.83a7.69,7.69,0,0,0-2.15-1.37c-1.19-.6-2.16-1-2.16-.83m-247,1.72a3,3,0,0,0-.32,1.64c.12.12.48-.52.8-1.42.7-2,.27-2.21-.48-.22m-20.34.73c0,1,.11,1.46.25.94a4.58,4.58,0,0,0,0-1.88c-.14-.52-.25-.1-.25.94m284.93-.63c1.8,1.58,12.09,9.26,12.41,9.26a59.79,59.79,0,0,0-6-4.85c-3.49-2.67-6.48-4.86-6.65-4.86s-.08.2.2.45M267,186l-3.14,3.17,3.44-.27c5-.38,4.83-.26,3.95-3.2a22,22,0,0,0-.94-2.72,22.55,22.55,0,0,0-3.31,3m11.88-1.59c.52,2,1.28,3.24,1.27,2.16a5.67,5.67,0,0,0-.81-2.16l-.81-1.35.35,1.35m-117.07,1.08c-.46.89-.72,1.62-.57,1.62a4.63,4.63,0,0,0,1.11-1.62c.45-.89.71-1.62.56-1.62a4.82,4.82,0,0,0-1.1,1.62m211.17,2.69a39.21,39.21,0,0,0,3.61,4.32c.29,0,0-.45-3.64-5.33a15.82,15.82,0,0,0-2.86-3.29c-.24,0,1.06,1.93,2.89,4.3m-167-2.56a12.72,12.72,0,0,0-1.52,2c-.46.86-.34.75,1.85-1.75.71-.81,1.18-1.48,1-1.48a5.16,5.16,0,0,0-1.36,1.21m-79.37.7c-.9,2-.73,2.41.25.6.45-.84.72-1.63.6-1.75s-.51.39-.85,1.15m198.92,1a49.11,49.11,0,0,0,4,5.07c5.81,6.85,8.51,9.7,4.55,4.78-1.88-2.32-3.9-4.87-4.49-5.66-1.5-2-4.05-4.63-4.05-4.19m-218.52,5c-.14,2.6-.1,7.64.09,11.19.29,5.66.34,5.07.36-4.71,0-12.25-.06-13.65-.45-6.48M124.64,191a7,7,0,0,0-.69,2.46c.11.1.6-.82,1.1-2.05a6.92,6.92,0,0,0,.69-2.46c-.12-.12-.61.81-1.1,2.05m157.18-.1a18.06,18.06,0,0,0,2.84,3.64L286.3,196l-1.72-2a25.14,25.14,0,0,1-2.55-3.65,4.35,4.35,0,0,0-1.12-1.61c-.16,0,.25,1,.91,2.15m-164.45,1.37c-.38.81-.57,1.59-.43,1.72.37.37,1.51-2,1.29-2.63-.11-.31-.49.09-.86.91m40.08,1.34a8.68,8.68,0,0,0-1.1,2.69,11.08,11.08,0,0,0,1.64-2.69,8.48,8.48,0,0,0,1.1-2.7,11,11,0,0,0-1.64,2.7M99.12,195.5c0,2.37.1,3.27.21,2a28.17,28.17,0,0,0,0-4.31c-.12-1.11-.21-.07-.21,2.31m293.75-3.33a11.28,11.28,0,0,0,2.16,2,7.39,7.39,0,0,0,2.15,1.44,11.41,11.41,0,0,0-2.15-2c-1.19-.94-2.16-1.59-2.16-1.44m12.94.45c0,.11,3.58,3.58,8,7.7s6.74,6.23,5.26,4.67c-2.92-3.07-13.22-12.71-13.22-12.37m-283.09,3.2a4.42,4.42,0,0,0-.39,2c.12.11.48-.57.81-1.53a4.29,4.29,0,0,0,.4-1.94c-.12-.11-.48.57-.82,1.52M198.06,197c-1.92,2.9-3.53,5.77-2.94,5.22.28-.25,3.58-5.25,4.86-7.38,1.18-1.95-.3-.28-1.92,2.16m-82.32-.92c-.9,2-.73,2.4.25.6.45-.84.73-1.63.6-1.76s-.5.4-.85,1.16m265.83,3.75c1.83,2.67,4.16,6.13,5.17,7.68a15.12,15.12,0,0,0,2.13,2.84c.52,0-6.88-11-9.25-13.76-.76-.89.11.57,1.95,3.24M266,197.15c-2,1.08-2.93,3.1-3.24,7-.14,1.78-.16,2.71,0,2.07,1-5.49,13.7-1.51,21.3,6.69l10.26,10.93c18.35,19.54,37.53,44.36,46,59.49,1.13,2,2.14,3.57,2.26,3.46.38-.38-8.78-16.8-12.43-22.29-.57-.86-2.61-4-4.53-7-6.36-9.82-17.85-25.73-23-31.81-5.7-6.75-10.17-11.9-10.77-12.42a11.92,11.92,0,0,1-1.56-1.88c-6.94-10.16-18.86-17.17-24.23-14.26m26.87,7c3.75,4.31,6.93,7.82,7.06,7.82.54,0-12.88-15.56-13.46-15.6-.23,0,2.65,3.48,6.4,7.78m-138.3-4.83c-.9,2-.73,2.41.25.61.45-.85.73-1.63.6-1.76s-.5.4-.85,1.15m247.2.06c4.78,4.8,14,13.33,10.78,10-2.07-2.16-5.71-5.65-8.09-7.76s-3.58-3.1-2.69-2.21M114,200.08c-.38.91-.56,1.78-.41,1.93s.55-.5.89-1.45a4.44,4.44,0,0,0,.4-1.93c-.11-.11-.51.54-.88,1.45m7.09-.25c-.9,2-.73,2.41.25.61.46-.85.73-1.64.61-1.76s-.51.4-.86,1.15m131.82,2c-1.06,1.24-3.68,4.67-5.83,7.62l-5.94,8.12a13.43,13.43,0,0,0-2,3.37,2.28,2.28,0,0,1-.85,1.33,14,14,0,0,0-2.17,3.3c-.72,1.43-1.55,2.6-1.84,2.6s-1,1.06-1.64,2.37a13.29,13.29,0,0,1-2.16,3.32,3.12,3.12,0,0,0-1.05,1.46c0,.28-2.23,4.43-4.95,9.22s-6.81,12.11-9.08,16.27c-11.34,20.76-22,32.83-31.06,35.1-2.63.66-1.09,1.14,7.2,2.27,14.21,1.92,24.48,2.39,55.42,2.51,31.57.13,35.07.3,41,2,4.41,1.27,11.71,4.92,13.59,6.8,2.84,2.84,1.6-1.29-4.42-14.72-5.2-11.59-12.08-24.33-23.74-44-15.34-25.82-18.13-32.46-18.25-43.48,0-4.27-.12-7.76-.17-7.76s-1,1-2,2.25m-153.85,1c0,1.63.1,2.3.22,1.48a11.36,11.36,0,0,0,0-3c-.12-.81-.22-.15-.22,1.49m240.65,2a29.38,29.38,0,0,0,2.81,3.37c.38,0-3.22-4.81-4.34-5.8-.59-.52.1.57,1.53,2.43M191.47,208a8.94,8.94,0,0,0-1.21,2.7,8.6,8.6,0,0,0,1.65-2.51,9.27,9.27,0,0,0,1.22-2.7,11.08,11.08,0,0,0-1.66,2.51m-91.9,1.43c-.09,2.42-.22,2.64-2,3.38-2.29,1-2.52,1.47-.31.7s2.83-1.7,2.59-4.34l-.21-2.33-.09,2.59m50.15.13c-.91,2-.73,2.41.24.6.46-.84.73-1.63.61-1.75s-.51.39-.85,1.15m274.12,1.33q5.52,6.21,2.61,2.42a36.29,36.29,0,0,0-3.45-3.77c-1-.94-.69-.38.84,1.35m-306.51-.48a4.22,4.22,0,0,0-.39,1.94c.11.11.48-.57.81-1.52a4.27,4.27,0,0,0,.39-1.95c-.11-.11-.47.57-.81,1.53m118.2,1.15c-1.05,1.36-1.41,2.2-.77,1.81s1.91-2.48,1.52-2.48c-.12,0-.46.3-.75.67m27.42.4a6.35,6.35,0,0,0,.75,2.7c1,1.71,1,1.41,0-1.62-.55-1.72-.77-2-.78-1.08m82.87.81c.87,1.19,3.48,4.95,5.79,8.36,3.91,5.76,5.94,8.48,4.84,6.47-1.23-2.23-9.05-13.45-10.53-15.1l-1.69-1.88,1.59,2.15m-40.9,5.94c4.9,6.35,6.6,8.37,5.69,6.77s-8.82-11.71-9.74-12.47c-.52-.42,1.3,2.14,4.05,5.7m86.72-3.51c.59,1,1.75,3,2.56,4.45a11.21,11.21,0,0,0,1.74,2.56c.42,0-3.62-7.2-4.55-8.09-.56-.54-.48-.18.25,1.08m24.42-1.45a13.84,13.84,0,0,0,1.75,1.75l1.75,1.59L418,215.31c-1.48-1.63-1.92-2-1.92-1.58M231.78,217.2c-2.6,3.76-3,4.45-2.65,4.45a16.62,16.62,0,0,0,2.33-3.1c2.9-4.42,2.92-4.45,2.68-4.45a23.2,23.2,0,0,0-2.36,3.1M187,216.12c-.18.52-.43,1.19-.56,1.49s.16.07.62-.51c.85-1,1.11-1.92.57-1.92-.16,0-.44.43-.63.94m77.83,2a10.18,10.18,0,0,0,.83,2.42c.3.52.35.23.12-.8a10.16,10.16,0,0,0-.82-2.43c-.31-.52-.35-.23-.13.81m-178.45,0c-2,1.09-1.89,1.55.14.5a4.82,4.82,0,0,0,1.62-1.1c0-.34-.06-.32-1.76.6m59.44.57a3,3,0,0,0-.32,1.65c.12.12.48-.52.8-1.43.7-2,.27-2.2-.48-.22m275.08.47a7.77,7.77,0,0,0,1.47,1.34c.45,0-1.78-2.66-2.23-2.68-.28,0,.07.59.76,1.34m-235.66.23c-.69,1.28-.72,1.81-.09,1.42.48-.29,1.22-2.46.84-2.46-.11,0-.45.47-.75,1m246.18.58c2.55,3,2.59,3,2,1.88a10.64,10.64,0,0,0-2.09-2.42l-1.53-1.35,1.62,1.89m-317.62.84a3.28,3.28,0,0,0-.14,1.67c.13.13.4-.42.6-1.2a3.23,3.23,0,0,0,.13-1.67c-.13-.13-.4.41-.59,1.2m30.4,1.66a3,3,0,0,0-.32,1.64c.12.12.48-.52.8-1.42.7-2,.27-2.21-.48-.22m122.53.71a5,5,0,0,0,1,1.93c.25.16.2-.45-.11-1.35a5.14,5.14,0,0,0-1-1.93c-.25-.16-.2.45.11,1.35m156.66-1c1.09,1.92,4.18,5.87,4.42,5.64s-.67-1.42-1.8-2.83c-2.52-3.16-3.27-4-2.62-2.81m-345.9,1.1c-1.84,1.18-2.44,2-.81,1.08,1.24-.68,3.17-2.18,2.83-2.19a10.34,10.34,0,0,0-2,1.11m105.74.34c-.19.52-.44,1.19-.56,1.49s.15.07.62-.51c.85-1,1.1-1.92.56-1.92-.16,0-.44.43-.62.94m214.06,1.22c.75,1.33,2.26,4.21,3.36,6.39s2.1,3.85,2.24,3.71c.3-.3-5.5-11.16-6.39-12-.32-.3,0,.55.79,1.89m-254.62,1.68a4.22,4.22,0,0,0-.39,1.94c.11.11.48-.57.81-1.52a4.27,4.27,0,0,0,.39-2c-.11-.11-.48.57-.81,1.53M435.47,226a2.42,2.42,0,0,0,1.22,1.51l1.21.75L436.83,227c-.59-.71-1.14-1.39-1.21-1.52s-.15.12-.15.55m-253.93,1.32c-.9,2-.73,2.4.24.6.46-.84.73-1.63.61-1.75s-.51.39-.85,1.15m86.74-1.19c0,.41,3.22,6,3.23,5.6,0-.59-2.65-5.78-3-5.78-.14,0-.26.08-.26.18m-156.06,2a20.8,20.8,0,0,0-.27,3.93c0,1.65.18,1.24.51-1.54.46-4,.33-5.25-.24-2.39m199.27-1.38c.34.89,9.18,13.74,9.46,13.74s0-.56-4.05-6.47c-3.74-5.47-5.75-8.17-5.41-7.27m-87.87,2.82a10.5,10.5,0,0,0-1.62,2.56,9.52,9.52,0,0,0,2-2.22,9.18,9.18,0,0,0,1.62-2.57c-.12-.1-1,.9-2,2.23m133.6,0a4.77,4.77,0,0,0,1.19,1.48c.42.26.42.05,0-.75a4.53,4.53,0,0,0-1.18-1.48c-.43-.26-.43-.05,0,.75m71.79.09c.88,1.73,6,9.17,6.3,9.17s-.09-.65-3.26-5.39c-3-4.52-4.06-5.8-3-3.78M140.52,232.5a4.24,4.24,0,0,0-.39,1.94c.11.12.48-.57.81-1.52a4.49,4.49,0,0,0,.4-1.94c-.12-.12-.49.57-.82,1.52m131.81,1.56a4.82,4.82,0,0,0,1.1,1.62c.15,0-.1-.73-.56-1.62a4.63,4.63,0,0,0-1.11-1.62c-.15,0,.11.73.57,1.62M178,235.18a6.28,6.28,0,0,0-.67,2.47c.12.13.63-.78,1.12-2a6.09,6.09,0,0,0,.67-2.47c-.12-.12-.62.78-1.12,2m42.56,0c-.46.89-.71,1.61-.56,1.61a4.72,4.72,0,0,0,1.1-1.61c.46-.9.72-1.62.57-1.62a4.52,4.52,0,0,0-1.11,1.62M53.89,241.92l-7,6.79L54,242.07c6.6-6.14,7.41-6.93,7-6.93-.08,0-3.29,3.05-7.14,6.78m85-5.11a4.42,4.42,0,0,0-.39,1.95c.12.11.48-.57.81-1.53a4.31,4.31,0,0,0,.4-1.94c-.12-.12-.48.57-.82,1.52m264.22-1a24.92,24.92,0,0,0,1.26,3.21c.7,1.57,1.44,3.31,1.64,3.87s.5.88.67.7-.19-1.38-.82-2.67a16.39,16.39,0,0,1-1.16-2.86c0-.58-1.59-2.79-1.59-2.25m-40.18,3.09a4.53,4.53,0,0,0,1.1,1.62c.15,0-.11-.73-.57-1.62a4.67,4.67,0,0,0-1.1-1.62c-.15,0,.11.73.57,1.62M176,239.8a3,3,0,0,0-.32,1.64c.12.12.48-.52.8-1.42.7-2,.27-2.21-.48-.22m226.05-.46a6.14,6.14,0,0,0,1.17,2.43l1.35,1.95c.07.12.26.09.43-.07s-.29-1-1-1.84a11.88,11.88,0,0,1-1.6-2.36c-.2-.54-.32-.57-.35-.11m42.83,1.19a4.63,4.63,0,0,0,1.11,1.62c.15,0-.11-.73-.57-1.62a4.82,4.82,0,0,0-1.1-1.62c-.15,0,.1.73.56,1.62m-9.44-.86c0,.42,6.57,11.64,6.82,11.64s-1-2.41-4.62-8.76c-1.56-2.75-2.2-3.58-2.2-2.88m-323.55,2.79a13.58,13.58,0,0,0,.48,3.73c.26.63.32-.37.16-2.43-.35-4.23-.7-4.95-.64-1.3m25.31-.85c-.38.91-.56,1.78-.41,1.93s.56-.5.89-1.45a4.47,4.47,0,0,0,.4-1.94c-.11-.11-.51.55-.88,1.46m184.4.44a4.65,4.65,0,0,0,1.18,1.48c.43.26.42.05,0-.75a4.79,4.79,0,0,0-1.19-1.48c-.42-.26-.42-.05,0,.75m44.06,1.74c.79,1.49,1.54,2.6,1.68,2.47s-2.47-5.19-2.87-5.19a10.26,10.26,0,0,0,1.19,2.72m-191.16-.27c-.9,2-.73,2.41.24.6.46-.84.73-1.63.61-1.75s-.51.39-.85,1.15m230.77,1c-.05.87,3.43,6.95,3.63,6.36s-1.38-6.56-1.77-6.56c-.13,0-.12.79,0,1.76l.29,1.75-1.09-1.89c-.6-1-1.09-1.68-1.1-1.42m-191.82,2.79c-.49.75-.79,1.46-.68,1.58s.63-.49,1.13-1.37c1.11-1.93.78-2.09-.45-.21m-40.58.34a9.13,9.13,0,0,1-.43,1.89c-.26.76-.19.85.32.37a2.26,2.26,0,0,0,.42-1.88c-.13-.7-.27-.88-.31-.38m196.53,3.2c1.06,2.1,2.17,4.44,2.45,5.2s.65,1.24.81,1.08c.31-.31-4.46-10.11-4.91-10.11a17.09,17.09,0,0,0,1.65,3.83m-87.27-.35c.8,1.32,1.54,2.31,1.65,2.21.29-.29-2.24-4.6-2.7-4.61-.22,0,.26,1.08,1.05,2.4M45,251.18l-1.85,2,2-1.86c1.88-1.73,2.27-2.18,1.85-2.18a20.56,20.56,0,0,0-2,2m282-.67c.9,1.76,1.65,2.73,1.65,2.15a5.27,5.27,0,0,0-1.11-1.88q-1.1-1.35-.54-.27m-193.48,1.32c-.31.9-.46,1.64-.32,1.64.37,0,1.39-2.8,1.12-3.07-.12-.12-.48.52-.8,1.43m309,.29a23.76,23.76,0,0,0,1.83,4.05c1,1.93,1.84,3.26,1.84,3a24.18,24.18,0,0,0-1.84-4c-1-1.93-1.83-3.26-1.83-3m-233.31,3a8.38,8.38,0,0,0-1.1,2.7,11.63,11.63,0,0,0,1.64-2.7,8.2,8.2,0,0,0,1.09-2.69,11.59,11.59,0,0,0-1.63,2.69m242.46-1.89a6,6,0,0,0,.77,1.89c.43.74.77,1.11.77.81a5.76,5.76,0,0,0-.77-1.89c-.42-.74-.77-1.1-.77-.81M120,256.84c0,3.46-.45,3.8-2.14,1.62-.74-.94-1-1.07-.61-.35,2.38,4.95,8.1,5.14,12.46.42,1.87-2,1.87-2-.66.22-3.59,3.2-4.39,2.93-7.62-2.58L120,253.74v3.1m-79.62,0c-1.59,1.82-2.52,3.11-2.25,3.11a12.46,12.46,0,0,0,2-2.16c1.86-2.31,2-3,.27-1m129.1-.3a10.57,10.57,0,0,0-.58,2.06c-.32,1.61-.31,1.61.5-.2.7-1.57.77-3.08.08-1.86m204.09,2.89c.32.91.68,1.55.8,1.43.27-.27-.75-3.07-1.12-3.07-.14,0,0,.74.32,1.64m-167.08.65c-.49,1-1.25,2.36-1.69,3.1-.75,1.29-.74,1.31.13.27,1.06-1.26,3.12-5.12,2.73-5.12a5.56,5.56,0,0,0-1.17,1.75m81.51.4a4.63,4.63,0,0,0,1.11,1.62c.14,0-.11-.73-.57-1.62a4.75,4.75,0,0,0-1.11-1.62c-.15,0,.11.74.57,1.62m158.89.95c.61,1.83,1,2.25,1,1a3.88,3.88,0,0,0-.8-1.75c-.74-1-.76-.9-.22.71m8.34-.41a9.5,9.5,0,0,0,.86,2.16c.35.56.39.4.14-.54a10.42,10.42,0,0,0-.86-2.16c-.35-.56-.39-.39-.14.54m-287.72,1.41a5.57,5.57,0,0,0-.34,2.25c.11.12.47-.7.77-1.82a5.73,5.73,0,0,0,.35-2.26c-.12-.12-.47.7-.78,1.83m167,1.55c.49,1,1,1.79,1.11,1.67s-1.39-3.55-1.76-3.55c-.14,0,.15.85.65,1.88m40.88.28c.64,2.18,1.41,3.2,1,1.35a5.66,5.66,0,0,0-.88-2.16c-.35-.35-.39-.08-.14.81m73.17,1.1c.31.91.67,1.55.8,1.43.26-.27-.75-3.07-1.12-3.07-.14,0,0,.74.32,1.64m-157,1.26a33.14,33.14,0,0,0,3,5.19c.32,0-.4-1.7-1.53-3.64-.92-1.56-1.47-2.14-1.47-1.55M165.54,268a2.15,2.15,0,0,0-.1,1.43c.15.15.44-.25.64-.89s.25-1.28.1-1.42-.43.25-.64.88m35.16,1.49c-1.87,3-2.22,3.8-1,2.33,1.38-1.7,2.95-4.35,2.57-4.35a7.28,7.28,0,0,0-1.55,2m249.11-.95c.57,2.08,1.25,3.78,1.52,3.78s-.56-3-1.27-4.14c-.53-.85-.56-.8-.25.36m-111.69,3c.5,1.19,1.28,3.08,1.74,4.2s.93,1.94,1.06,1.81c.3-.29-2.45-6.91-3.16-7.63-.3-.29-.14.43.36,1.62m120.63-1.62a11.9,11.9,0,0,0,.73,2.43c.4,1,.73,1.52.74,1.08a7.64,7.64,0,0,0-.73-2.43c-.4-.89-.74-1.37-.74-1.08M30.17,272.35c-.46.89-.71,1.62-.57,1.62a4.63,4.63,0,0,0,1.11-1.62c.46-.89.71-1.62.57-1.62a4.63,4.63,0,0,0-1.11,1.62m133.54,1.14c-.78,2.25-.41,2.62.48.48.38-.91.56-1.78.41-1.93s-.55.49-.89,1.45m132.48,2c1.89,4.14,3.37,6.61,4,6.61.26,0,.49.54.51,1.21a11.31,11.31,0,0,0,1.32,3.64c1.57,2.93,1.8,2.46.27-.54a9.79,9.79,0,0,1-1.08-3.19,1.88,1.88,0,0,0-.74-1.5,21.72,21.72,0,0,1-3-4.88c-2.55-5.09-3.4-6-1.28-1.35m155.74-.94c.64,2.17,1.41,3.2,1,1.35a5.44,5.44,0,0,0-.88-2.16c-.35-.36-.39-.08-.13.81m-425.18,4.6c-.9,2-.73,2.41.25.61.46-.84.73-1.63.6-1.76s-.5.4-.85,1.15m314.41-.29a7.57,7.57,0,0,0,.72,2.43c.41.89.75,1.25.76.81a7.57,7.57,0,0,0-.72-2.43c-.41-.89-.75-1.25-.76-.81m112.49,1.08a6.63,6.63,0,0,0,.77,2.4c.72.79.53-.83-.33-2.67l-.74-1.62.3,1.89m-261.41,1.35a11.92,11.92,0,0,0-2.11,2.43,19.72,19.72,0,0,0,2.65-2.43,12.24,12.24,0,0,0,2.11-2.43,18.36,18.36,0,0,0-2.65,2.43m-33.35,1.21c-2.13,2.84-2.16,2.92-.35,1s3.25-4.05,2.83-4.05a31.73,31.73,0,0,0-2.48,3.1m303.88.41c.44,2,.75,2.41.74,1a3.85,3.85,0,0,0-.55-1.84c-.4-.59-.45-.38-.19.81m-120,.32a32.37,32.37,0,0,0,1.06,3.45c1.24,3.6,1.4,5.16.27,2.56-.41-1-.89-1.75-1.06-1.75s.07.91.54,2c.85,2.07,2.95,4.61,2.95,3.59,0-1.29-3.7-11-3.76-9.87m112.75,2.37a3.8,3.8,0,0,0,.49,1.89c.69,1.07.69-.27,0-1.89l-.47-1.08,0,1.08M23,288.59a4.24,4.24,0,0,0-.39,1.94c.11.12.48-.57.81-1.52a4.25,4.25,0,0,0,.39-1.94c-.11-.12-.48.56-.81,1.52M163,290l-2,2,3.63.93c5,1.29,5.33,1.22,3.63-.8a13.62,13.62,0,0,1-1.92-3c-.64-1.67-1-1.58-3.35.8m301.75.39a9.59,9.59,0,0,0,.43,2.42c.34,1.07.43,1.13.43.27a10.06,10.06,0,0,0-.43-2.42c-.34-1.07-.43-1.13-.43-.27M30,291.82a4.27,4.27,0,0,0-.39,1.95c.11.11.48-.57.81-1.53a4.22,4.22,0,0,0,.39-1.94c-.11-.11-.48.57-.81,1.52M303.9,291a6.08,6.08,0,0,0,.83,1.86l.81,1.35-.35-1.35c-.37-1.4-1.33-2.78-1.29-1.86m153.24.79c0,1.4.88,3.7.89,2.42a6.35,6.35,0,0,0-.44-2.15c-.29-.67-.46-.77-.45-.27m-151,4.34c.31.9.67,1.54.79,1.42s-.75-3.07-1.11-3.07c-.14,0,0,.74.32,1.65m159.92.77a28.89,28.89,0,0,0,.76,4c.28.86.32.36.12-1.32a30.07,30.07,0,0,0-.77-4.05c-.28-.85-.32-.36-.11,1.33m-437.71.06A5.73,5.73,0,0,0,28,299.2c.12.12.47-.7.78-1.83a5.9,5.9,0,0,0,.35-2.25c-.12-.12-.47.7-.78,1.82m279,2.38a5.54,5.54,0,0,0,.93,1.88q.54.54.15-.81a5.2,5.2,0,0,0-.93-1.88q-.54-.54-.15.81M19.45,300.46c-.45,2.25,0,2.68.47.47A3.85,3.85,0,0,0,20,299c-.13-.14-.4.52-.59,1.47m439.6,1.28a30.57,30.57,0,0,0,.75,4.05c.25.78.29.11.11-1.62a23.14,23.14,0,0,0-.75-4.05c-.25-.61-.29.09-.11,1.62m-432,.1c-.7,3.54-1,5.82-.73,5.56s1.53-6.59,1.25-6.87c-.12-.11-.35.47-.52,1.31m282.05,1.25a25.93,25.93,0,0,0,1.07,3l.72,1.61-.32-1.61a12.06,12.06,0,0,0-1.07-3l-.76-1.35.36,1.35M17.84,308.53a17.76,17.76,0,0,0-.28,3.39c0,1,.26.39.54-1.51.49-3.4.31-4.73-.26-1.88m450.12.76a44.86,44.86,0,0,0,.39,5.13c.35,2.56.41,2.67.43.81a42.49,42.49,0,0,0-.38-5.13c-.36-2.56-.42-2.67-.44-.81M311.2,309a10.42,10.42,0,0,0,.86,2.16c.35.56.39.4.14-.54a10.42,10.42,0,0,0-.86-2.16c-.35-.56-.39-.39-.14.54m149.21,2.16c0,1,.11,1.46.25.95a4.63,4.63,0,0,0,0-1.89c-.14-.52-.25-.1-.25.94M24.86,315.09a148,148,0,0,0,.1,20.09c.2,1.48.36-3.07.36-10.11,0-14.22,0-13.92-.46-10m288-1.21a9.6,9.6,0,0,0,.86,2.15c.35.57.39.4.14-.53a10,10,0,0,0-.86-2.16c-.35-.56-.39-.4-.14.54m148.27,14.56c0,8.92.14,13,.35,10.25a174.29,174.29,0,0,0,0-21.58c-.19-1.92-.35,3.17-.35,11.33m-444-11.87c0,1.34.11,1.88.24,1.22a7.62,7.62,0,0,0,0-2.43c-.13-.67-.24-.12-.24,1.21M295,315.05c-.12.39-.37,1.39-.55,2.21-1.15,5.24-7.65,8.85-22.68,12.57-4.15,1-8.4,2.1-9.44,2.39-15.13,4.15-51.18,9.52-65.53,9.77-7.78.13-6.92.89,1.08.94a395.33,395.33,0,0,0,65-5.64c30-5.56,37.23-8.76,37.21-16.51,0-2.32-4.54-7.43-5.08-5.73m19.72,4.54a10.83,10.83,0,0,0,.85,2.38c.48.46-.47-3.48-1-4-.26-.27-.21.45.11,1.62m154.39,8.31c0,4.89.08,6.9.18,4.45s.1-6.45,0-8.9-.18-.44-.18,4.45m-152.51-2.7a17.77,17.77,0,0,0,.81,3c.33.74.37.49.14-.81a17,17,0,0,0-.82-3c-.32-.74-.36-.48-.13.81m-9.51-.28a9.41,9.41,0,0,1-1.21,3c-1.37,2.42-1.11,2.84,2.18,3.46,2.38.45,2.34.56,1.24-3.48-.88-3.22-2.21-5-2.21-3m-290,7.56c0,1.19.12,1.61.25.94a6,6,0,0,0,0-2.16c-.14-.51-.24,0-.24,1.22M318.18,332c1.15,6.07,1.31,6.55,1,3a11.56,11.56,0,0,0-.81-4c-.32-.33-.4.07-.21,1.08M17.56,337.65a18.85,18.85,0,0,0,.5,3.46c.29,1.07.34.51.14-1.62-.33-3.56-.74-4.74-.64-1.84m450.9,4.27c0,1.34-.21,3.4-.35,4.59l-.26,2.15.55-2.15a16.49,16.49,0,0,0,.36-4.59l-.19-2.43-.11,2.43m-159.73-.56c0,4-14.55,18.36-18.57,18.36-.14,0-1.78.7-3.65,1.56-5.83,2.66-13.83,5.13-16.21,5a8.79,8.79,0,0,0-3.59,1c-2.14,1.09-3,1.32-16.76,4.3a433,433,0,0,1-55.78,8.14c-11.38.74-10.56,1.28,1.3.86a453.53,453.53,0,0,0,56.09-5.2c15.42-2.27,35.39-6.77,39.34-8.87.76-.4,3-1.51,4.89-2.47,3.78-1.86,8.22-4.91,9.3-6.37a10.29,10.29,0,0,1,2.17-1.86c4.72-3,6.67-9.44,4-13.33-1.48-2.19-2.56-2.65-2.56-1.09m11.2,1.1a27.48,27.48,0,0,1-.14,8.63c-.23,1-.17,1.15.23.54,1-1.51,1.17-6.1.33-8.9l-.81-2.7.39,2.43m-142.79-.12c0,.77,1,1.06,4.63,1.39,1.75.15,2.58.15,1.84,0a5.6,5.6,0,0,1-1.89-.72c-.89-.73-4.58-1.26-4.58-.66m-150.93.93c0,1.15,1.39,5.77,1.47,4.86a19.09,19.09,0,0,0-.71-3.24c-.41-1.48-.75-2.21-.76-1.62m-7,3.78a10.06,10.06,0,0,0,.43,2.42c.35,1.07.43,1.13.43.27a9.59,9.59,0,0,0-.43-2.42c-.34-1.07-.43-1.13-.43-.27M459,354.38a7,7,0,0,0-.13,2.48c.13.13.41-.77.62-2a6.48,6.48,0,0,0,.12-2.49c-.14-.13-.41.76-.61,2m-140.55-.59c-.34.64-.5,1.29-.36,1.44s.56-.26.9-.9.5-1.29.36-1.44-.56.25-.9.9m-297.38.81c.45,2,.75,2.41.74,1a3.85,3.85,0,0,0-.55-1.84c-.4-.59-.45-.37-.19.81m445.45,1.64a8,8,0,0,0-.13,2.75c.13.13.41-.89.62-2.26a7.73,7.73,0,0,0,.13-2.75c-.13-.13-.41.88-.62,2.26m-152.92,4a57.45,57.45,0,0,1-7.42,6.44c-3.8,2.56-4,2.92-1.86,3.8,6.44,2.67,8.57,8.78,6.23,17.85-.11.44.2-.05.7-1.09a14.45,14.45,0,0,0,.93-5.42c0-5.24-1.56-7.65-7.92-12-.88-.6-.62-.91,2.71-3.18a42.32,42.32,0,0,0,9.77-8.91c1.74-2.45,1.44-2.21-3.14,2.52M30.21,358.1a10.42,10.42,0,0,0,.86,2.16c.35.56.39.4.14-.54a9.9,9.9,0,0,0-.86-2.16c-.35-.56-.39-.39-.14.54m-7.55,1.62a10.42,10.42,0,0,0,.86,2.16c.35.56.39.39.14-.54a10.2,10.2,0,0,0-.86-2.16c-.35-.56-.39-.4-.14.54m434.66,2.7a3.85,3.85,0,0,0-.12,1.94c.13.14.4-.52.59-1.47.45-2.25,0-2.68-.47-.47m7.08,3.3c-.45,2.25,0,2.68.47.47a4,4,0,0,0,.12-1.94c-.14-.14-.41.52-.59,1.47m-8.86,3.55c-.8,2.6-.41,3,.43.43a5,5,0,0,0,.41-2.2c-.13-.12-.51.67-.84,1.77m-429.38-.65a6.1,6.1,0,0,0,.77,1.89c.43.74.77,1.1.77.8a5.82,5.82,0,0,0-.77-1.88c-.42-.74-.77-1.11-.77-.81m427.4,6.15a5.58,5.58,0,0,0-.66,2.84c.19.47.3.39.33-.25a8.22,8.22,0,0,1,.89-2.62c.47-.9.75-1.74.62-1.86s-.65.72-1.18,1.89M39.34,377.52a4.63,4.63,0,0,0,1.11,1.62c.14,0-.11-.73-.57-1.62a4.63,4.63,0,0,0-1.11-1.62c-.15,0,.11.73.57,1.62m421.54.06a4.24,4.24,0,0,0-.39,1.94c.11.11.48-.57.81-1.52a4.51,4.51,0,0,0,.4-1.95c-.12-.11-.49.57-.82,1.53M300,382.34c-4,8.27-14.49,16.37-26.58,20.53C259.27,407.74,220,415,194.66,417.38c-4.7.45-4.09.48,4.86.29A275.78,275.78,0,0,0,231.07,415l10.25-1.37c32.44-4.31,47.45-9.61,56.91-20.08,4.76-5.28,7.1-12.5,4.7-14.56-.87-.75-1.09-.51-2.94,3.31m159.3-.53c-.31.9-.45,1.64-.31,1.64.36,0,1.38-2.8,1.11-3.07-.12-.12-.48.52-.8,1.43m-426.22.29a13.87,13.87,0,0,0,1.4,2.16l.88,1.08-.53-1.08a13.87,13.87,0,0,0-1.4-2.16L32.54,381l.53,1.08m11.13,3a112.9,112.9,0,0,0,7.84,10c.31.18-1.3-2.05-3.57-5-4.36-5.6-5-6.34-4.27-5m413.36.88a3,3,0,0,0-.32,1.65c.12.12.48-.52.79-1.43.71-2,.28-2.2-.47-.22m-9.84,3.18a10.34,10.34,0,0,0-1.19,2.95c.36,0,3.08-5.46,2.84-5.7a9.45,9.45,0,0,0-1.65,2.75M308.19,393c0,1.18-7.13,8.82-10.74,11.5-3.41,2.54-5,4-3.14,2.9,5.09-3,15.32-13.52,14.21-14.62-.18-.18-.33-.08-.33.22m136.18,2.33c-.46.89-.71,1.61-.56,1.61a4.58,4.58,0,0,0,1.1-1.61c.46-.9.72-1.62.57-1.62a4.52,4.52,0,0,0-1.11,1.62m7.55,2.15c-.46.89-.71,1.62-.56,1.62a4.67,4.67,0,0,0,1.1-1.62c.46-.89.72-1.61.57-1.61a4.54,4.54,0,0,0-1.11,1.61m-393.7,4.32a53,53,0,0,0,4.56,4.31,45.32,45.32,0,0,0-4-4.31,56.49,56.49,0,0,0-4.55-4.32,43.42,43.42,0,0,0,4,4.32m380.89,1.75a89,89,0,0,1-5.76,7.5,23.33,23.33,0,0,0-2.73,3.4c0,1,7.8-8.78,11-13.87,2.13-3.34.27-1.17-2.55,3m11-2.67c-.41.65-1.09,1.73-1.53,2.4s-.67,1.21-.52,1.21c.38,0,3.21-4.38,3-4.6s-.53.33-.93,1M52.82,407.18c3.25,3.26,6,5.93,6.19,5.93s-2.4-2.67-5.65-5.93-6-5.93-6.18-5.93,2.39,2.67,5.64,5.93m10.82-.13c.28.22,1.48,1.25,2.66,2.29l2.16,1.88-2.13-2.29a9.61,9.61,0,0,0-2.67-2.29c-.33,0-.34.16,0,.41m226.08,2.32c-2.9,1.5-4.27,2.58-2.16,1.7,1.81-.76,5.53-2.83,5.53-3.09s.1-.4-3.37,1.39m-221,1.76a11.28,11.28,0,0,0,2.16,2c1.19.94,2.16,1.59,2.16,1.44a11.64,11.64,0,0,0-2.16-2,7.5,7.5,0,0,0-2.16-1.44m370.08,5.36a125.8,125.8,0,0,1-16.05,15.58c-3.57,2.69-3.89,3.38-.43.9,3.72-2.66,14.31-12.93,17.44-16.91,3.73-4.75,3-4.42-1,.43m-159.2-2.72c-1,.31-1.61.66-1.27.79a5,5,0,0,0,2.42-.57c2.11-.92,1.56-1-1.15-.22M74.93,416.06c1.63,1.43,3.51,2.65,3.51,2.29a16.6,16.6,0,0,0-2.56-2c-1.94-1.33-2.17-1.41-.95-.34m199.83.25c0,1.46,3,4,9.84,8.38,2.39,1.53,1.7.58-.81-1.11-6.08-4.09-8.59-6.29-8.32-7.3.14-.55,0-1-.23-1s-.48.47-.48,1m150.47,3.33a113.54,113.54,0,0,1-9,7.56c-5.17,3.77-6,4.88-1.11,1.45,4.32-3,16.06-13.53,14.9-13.35-.09,0-2.23,2-4.75,4.34m-163.69-1.77a76.77,76.77,0,0,1-8.6,6,27.15,27.15,0,0,0-3.11,1.71c-1.56.94-5.16,2.87-8,4.29-5.06,2.53-5.1,2.57-3,2.62s2.09.09,1.11.84c-.58.43-.92.79-.76.79.74,0,14.67-7.17,18.53-9.53,9-5.49,9.46-5.85,9.31-6.65-.24-1.29-4.21-1.36-5.54-.1m-182.2,1.22c.67.81,4,2.88,4,2.49A11.92,11.92,0,0,0,81,419.83c-1.26-.83-2-1.16-1.66-.74m5.57,3.33c0,.34,4.18,3.1,4.7,3.1.22,0-.08-.33-.67-.73-2.57-1.75-4-2.61-4-2.37m182.24,5.31c-3.36,2.16-5.87,4.18-3.18,2.57a77,77,0,0,0,7-4.6c0-.37-.45-.13-3.83,2m5.45-2c0,.28,5.79,4.44,8.36,6,2.78,1.7.73,0-3.91-3.18a32.55,32.55,0,0,0-4.45-2.81m14.26.25a4.73,4.73,0,0,0,1.47,1.19c.8.42,1,.43.75,0A4.53,4.53,0,0,0,287.6,426c-.79-.43-1-.43-.74,0m-209,1.34c0,.29,7.84,5.06,10.65,6.49,3.28,1.66,1.77.42-2.16-1.77-2.14-1.2-4.94-2.81-6.2-3.58s-2.29-1.29-2.29-1.14m212,.58c0,.33,8.88,5.15,9.49,5.15.27,0-1.68-1.22-4.32-2.7-4.9-2.74-5.17-2.88-5.17-2.45m-29.26,3.84c-2,1.09-1.9,1.55.13.5a4.87,4.87,0,0,0,1.62-1.09c0-.35-.06-.33-1.75.59m-157.89.5a6,6,0,0,0,1.89.77c.29,0-.07-.35-.81-.77a6,6,0,0,0-1.89-.77c-.3,0,.07.35.81.77m180.13.44c0,.36,5.12,3.61,5.7,3.61s-.49-.73-3.67-2.65c-1.11-.67-2-1.1-2-1m123.92.68c-2,1.09-1.9,1.55.13.5a4.67,4.67,0,0,0,1.62-1.1c0-.34-.06-.32-1.75.6m-301.35-.13a4.48,4.48,0,0,0,1.74.86c.95.33,1.5.38,1.21.11-.61-.57-3-1.34-3-1m196.37,1c1.93,1.3,8.11,4.18,8.91,4.16a111,111,0,0,0-10.52-5.38,7.38,7.38,0,0,0,1.61,1.22M109.72,435c0,.36,2.8,1.38,3.07,1.11.12-.12-.52-.48-1.42-.79s-1.65-.46-1.65-.32m-14.86,2.13a3.54,3.54,0,0,0,1.62.77c.31,0,.1-.37-.48-.8a3.62,3.62,0,0,0-1.62-.78c-.31,0-.1.38.48.81m151.45,1.76a32.85,32.85,0,0,0-5.32,2.66c.27.27,10.07-4,10.76-4.68s.84-.79-5.44,2m44-1.33a6.48,6.48,0,0,0,2.93,1.66,7.9,7.9,0,0,1,3.06,1.54l1.38,1.21-1.3-1.48a6.55,6.55,0,0,0-3.15-1.82,3.3,3.3,0,0,1-2.11-1,2.18,2.18,0,0,0-1.16-1c-.62-.24-.51.05.35,1m124.94-.15c-.89.61-3.39,2.09-5.56,3.3s-3.83,2.3-3.7,2.43,8.41-4.48,10.34-6c1.57-1.21.81-1-1.08.24m-189.57,1.32c-1,.4-1.53.73-1.08.74a7.71,7.71,0,0,0,2.43-.72c2.08-.95,1.11-1-1.35,0m87.3.61c1,.44,1.94.67,2.09.51.33-.32-2.32-1.41-3.27-1.34-.35,0,.18.4,1.18.83m82-.07c-.75.43-1.11.77-.81.77a5.82,5.82,0,0,0,1.88-.77c.74-.42,1.11-.77.81-.77a6.07,6.07,0,0,0-1.88.77m-291.78,1.62a6,6,0,0,0,1.89.77c.29,0-.07-.35-.81-.77a6,6,0,0,0-1.89-.77c-.3,0,.07.35.81.77m22.92-.34a17.1,17.1,0,0,0,3,.81c1.29.24,1.55.2.81-.13a16.25,16.25,0,0,0-3-.81c-1.3-.24-1.55-.2-.81.13m92.23.36c-2.14.74-2.14.74-.27.43a10.31,10.31,0,0,0,2.69-.77c1.19-.67,0-.51-2.42.34m97.88-.38a10.32,10.32,0,0,0,2.7.86q1.89.36,1.08-.15a10.37,10.37,0,0,0-2.7-.85c-1.25-.24-1.62-.19-1.08.14m74.7.38c-1.35.65-1.39.72-.27.45,1.53-.38,3.25-1.25,2.43-1.24a8.76,8.76,0,0,0-2.16.79m-284.49,1.24a10.1,10.1,0,0,0,2.15.86c.94.25,1.11.2.54-.14A9.15,9.15,0,0,0,107,442c-.94-.25-1.11-.21-.54.14m131.86.37c-1.36.66-1.4.73-.27.46a5.29,5.29,0,0,0,1.86-.8c.7-.66.32-.57-1.59.34m61.21,0c2.26.91,3.13,1,2.4.36a6.52,6.52,0,0,0-2.4-.8l-1.88-.32,1.88.76m22.12-.29c1.12.65,4.83,1.33,3.77.69a10.43,10.43,0,0,0-2.69-.82c-1.18-.21-1.59-.16-1.08.13m-111.37.62c-.76.34-.43.39,1.07.16a12.17,12.17,0,0,0,2.39-.52c.46-.41-2.43-.11-3.46.36m-99.51,1c1.31.78,3.58,1.35,3,.74a5.68,5.68,0,0,0-2.16-.87c-1.06-.23-1.34-.18-.81.13m123.1.14c-1,.28-1.75.65-1.75.82,0,.44,2.86-.32,3.48-.92s.61-.58-1.73.1m70,.2a5.85,5.85,0,0,0,1.89.78c.29,0-.07-.35-.81-.78a6,6,0,0,0-1.89-.77c-.3,0,.07.35.81.77m97.76.73c-3.36,1.5-5.37,2.78-2.83,1.79,3.32-1.29,6.46-2.77,6.46-3s.14-.44-3.63,1.25m-200.77-.46-1.89.4h1.89a16.87,16.87,0,0,0,3.5-.41L206,444h-1.62a21.6,21.6,0,0,0-3.5.4m128.63-.08a18.23,18.23,0,0,0,3.77.81c1.82.23,2.33.18,1.56-.15a18.78,18.78,0,0,0-3.78-.81c-1.71-.21-2.25-.16-1.55.15m48.81-.06a5.69,5.69,0,0,0-2.36.68c-.58.56,3.93,0,5.05-.59.91-.51.87-.51-2.69-.09m-69.63,1.81a7.13,7.13,0,0,0,2.58.84c.23-.23-3.92-2-4.56-1.93-.22,0,.67.51,2,1.09m-190.87.22a10.91,10.91,0,0,0,2.7.73c.44,0,0-.33-1.08-.73a10.91,10.91,0,0,0-2.7-.73c-.44,0,0,.33,1.08.73m109.75,0c-1.34.65-1.39.72-.27.45,1.53-.37,3.25-1.25,2.43-1.24a8.76,8.76,0,0,0-2.16.79M338.4,446a48.15,48.15,0,0,0,6.2.76c3.07.2,3.69.15,2.15-.17-3.12-.66-10.78-1.2-8.35-.59m28.9.06a35.28,35.28,0,0,0-4.85.72c-1,.46,9-.34,10.19-.82l1.08-.43-1.08,0c-.59,0-3,.24-5.34.49M123.47,447.9a7.81,7.81,0,0,0,2.7.75h1.08l-1.08-.43a20.29,20.29,0,0,0-2.7-.75l-1.61-.33,1.61.77m98.16,0c-2.12.74-2.13.74-.27.43,2.2-.37,4.45-1.19,3.24-1.18a13.92,13.92,0,0,0-3,.75m91.18-.35c.58.53,3.92,1.4,3.41.9a8,8,0,0,0-2.12-.85c-1-.28-1.56-.3-1.29-.05m81.67.33c-1,.4-1.52.73-1.07.74a7.6,7.6,0,0,0,2.42-.72c2.09-.95,1.12-1-1.35,0M215.7,449.54c-2.13.73-2.13.74-.27.43,2.2-.37,4.45-1.2,3.24-1.18a13.92,13.92,0,0,0-3,.75m173.93,0c-1,.4-1.52.73-1.08.74a7.57,7.57,0,0,0,2.43-.72c2.08-1,1.11-1-1.35,0m-259.42.27a10.87,10.87,0,0,0,2.43.45h1.08l-1.08-.46a7,7,0,0,0-2.43-.45l-1.34,0,1.34.43m189,0a6,6,0,0,0,1.89.46c.51,0,.41-.17-.27-.46a5.85,5.85,0,0,0-1.89-.47c-.51,0-.41.18.27.47m-181.48,1.62a10.91,10.91,0,0,0,2.69.42c1.21,0,1.19-.05-.27-.42-2.28-.59-4.24-.59-2.42,0m68.22,0-1.62.41H206a12.16,12.16,0,0,0,3-.42l1.35-.44H209a15.2,15.2,0,0,0-3,.43m119.19-.05a19,19,0,0,0,3.24.75l2.16.31-2.16-.74a14.51,14.51,0,0,0-3.24-.74H324.1l1.08.43m56.63.32-2.15.74,2.15-.31a19,19,0,0,0,3.24-.75l1.08-.43h-1.08a14.51,14.51,0,0,0-3.24.74M147.74,453a17.66,17.66,0,0,0,3.51.42h1.89L151,453c-2.91-.6-5.62-.57-3.24,0m46.66.07c-5.8.66-6.42,1-1.21.63,4.46-.3,9.45-1.14,6.6-1.11-.74,0-3.17.22-5.39.48M332.46,453a11.21,11.21,0,0,0,3,.42h1.62l-1.62-.41a16,16,0,0,0-3-.42h-1.34l1.34.43m41.53.14c-1.63.31-2.72.64-2.42.75a19.63,19.63,0,0,0,4.32-.55c2.07-.41,3.16-.75,2.42-.75a33.11,33.11,0,0,0-4.32.55M154.63,454a9.65,9.65,0,0,0,2.69,0c.67-.13,0-.23-1.49-.22s-2,.1-1.2.23m8.88.54a20.58,20.58,0,0,0,3.77,0c1.12-.12.34-.22-1.74-.22s-3,.09-2,.21m9,.17c-1.78.2.29.25,4.59.1s7.92-.35,8-.46c.36-.32-9.1-.05-12.63.36m171.51.07c1.18.21,6.4.37,11.59.35s9-.12,8.36-.22c-2.31-.37-22-.5-19.95-.13m22-.26a4.3,4.3,0,0,0,1.89,0c.51-.13.09-.24-.95-.24s-1.46.11-.94.24"/><path id="path5" class="cls-5" d="M251.74,26.42c-10.8.44-8,.8,6.3.8,7.36,0,13.27-.12,13.12-.26-.48-.48-12.66-.82-19.42-.54m-14.47,1.43-2.35.5c-3,.66-.49.63,3.17,0,2.24-.4,3.2-.72,2.15-.71a17.76,17.76,0,0,0-3,.24m38.56.12c2.17.69,6.31,1.2,5.4.67a15,15,0,0,0-3.78-.78c-1.75-.18-2.41-.14-1.62.11m8.36,1.61c1.93.8,4.36,1.26,3.78.71a7.17,7.17,0,0,0-2.7-.83c-1.37-.21-1.76-.16-1.08.12m-57.44.61c-1.07.7.28.7,1.89,0l1.08-.46-1.08,0a3.85,3.85,0,0,0-1.89.49m-6.39,1.7c-1,.29-1.71.62-1.58.75a6.89,6.89,0,0,0,2.62-.51c2.68-.84,1.78-1.05-1-.24m72.73.19c2.47,1,3.43.93,1.35,0a7.91,7.91,0,0,0-2.43-.73c-.44,0,0,.35,1.08.75M215.7,33.27a4.17,4.17,0,0,0-1.62.81c-.36.37-.1.42.81.15,2.79-.82,3.45-1.59.81-1m82.24.36c.75.43,1.46.69,1.58.56.33-.33-.07-.59-1.57-1l-1.35-.36,1.34.79m-87.23,1.26c-.67.13-1.21.44-1.21.7s.72.23,1.62-.09c1.45-.5,2.24-1.11,1.21-.92l-1.62.31m38.56.55a18.71,18.71,0,0,0,3.51,0c1-.12.17-.22-1.76-.22s-2.71.1-1.75.22m14.83,0a12.3,12.3,0,0,0,3,0c.82-.12.15-.22-1.48-.22s-2.3.1-1.49.22m-24,.7a14,14,0,0,0-3.41.69c-.46.46,6.44-.24,7.34-.75s.75-.54-3.93.06m32.52-.07a16.22,16.22,0,0,0,4,.77c3.69.34,2-.35-2.16-.88-1.55-.19-2.35-.15-1.88.11M306,37.2a9.38,9.38,0,0,0,2.42,1c.3,0-.31-.47-1.35-1a9.09,9.09,0,0,0-2.42-1c-.3,0,.31.46,1.35,1m-74.67.61c-3,.7-3.16,1.13-.28.69,2.46-.37,4.9-1.31,3.21-1.23a25.12,25.12,0,0,0-2.93.54m50.13-.16a7.73,7.73,0,0,0,3,.84c1.61.2,2,.16,1.08-.13-2.84-.93-4.59-1.24-4-.71m-79.69,1c-.52.14-.94.48-.94.77s.51.25,1.21-.12c2-1,1.95-1.23-.27-.65m54.07.2c-3.75.22-2.45.31,4.85.32,5.49,0,9.25-.06,8.36-.15a85,85,0,0,0-13.21-.17m-32.09,1c-.68.29-.78.46-.27.46a6.15,6.15,0,0,0,1.89-.46c.68-.29.78-.46.27-.46a6,6,0,0,0-1.89.46m48.94-.17a4.31,4.31,0,0,0,1.89,0c.52-.13.1-.24-.94-.24s-1.47.11-.95.24m16.59.12a10.6,10.6,0,0,0,2.69.79l1.89.33L292,40.21c-2.19-.89-4.06-1.13-2.69-.36m-91.45.83c-1,.76-1,.77.17.48a3,3,0,0,0,1.52-.79c.46-.73-.53-.55-1.69.31m42.48-.25a6.76,6.76,0,0,0-2.16.8c-.36.37.52.26,5.82-.75l2.43-.46h-2.16a20.86,20.86,0,0,0-3.93.42M278,40.36c1.88.62,7,1.21,5.66.66a20.73,20.73,0,0,0-4-.77c-1.82-.2-2.45-.16-1.62.11m-60.4,1.47-1.35.81,1.35-.35a5.73,5.73,0,0,0,1.86-.83c.82-.77-.36-.54-1.86.37m77.12-.36c0,.45,2.21,1.25,2.54.92.09-.09-.45-.44-1.19-.77s-1.35-.41-1.35-.15M233.09,42a7.32,7.32,0,0,0-2.43.8c-.45.46,3.36-.16,5-.82,1.32-.52.19-.51-2.56,0m54.34.3c3,.88,4.17,1,3,.31a12.43,12.43,0,0,0-3.23-.78l-2.43-.32,2.7.79m-74.16,1.12c-1.76.73-1.78.75-.27.46a5.47,5.47,0,0,0,2.13-.81c.65-.63.46-.6-1.86.35M191.16,44c-.75.42-1,.74-.54.74a4.1,4.1,0,0,0,1.86-.8c1.3-1,.49-1-1.32.06m35.7-.32a6.52,6.52,0,0,0-2.15.81c-.42.45,2.79-.16,4.47-.84,1.37-.55.06-.54-2.32,0m66.23.27a10.91,10.91,0,0,0,2.7.73c.44,0,0-.33-1.08-.73a10.79,10.79,0,0,0-2.7-.72c-.44,0,0,.32,1.08.72m25.05-.32a4.59,4.59,0,0,0,1.47,1.18c.8.43,1,.43.75,0a4.68,4.68,0,0,0-1.48-1.19c-.79-.42-1-.43-.74,0M298,45.48a13.91,13.91,0,0,0,2.69,1.11L302,47l-1.35-.76A14,14,0,0,0,298,45.07l-1.35-.36,1.35.77m-110.33.6c-.57.44-.8.8-.51.8a3.87,3.87,0,0,0,1.59-.8c.58-.43.81-.79.51-.79a4,4,0,0,0-1.59.79m31.86,0-1.62.77,1.62-.32a10.58,10.58,0,0,0,2.42-.78c1.45-.8-.61-.52-2.42.33m-36,2.44c-2.72,1.71-3.61,2.83-1,1.31,1.8-1.06,4.26-2.92,3.87-2.92a21.24,21.24,0,0,0-2.83,1.61m32.23-1.25a4.17,4.17,0,0,0-1.62.81c-.36.37-.1.42.81.15,2.79-.81,3.45-1.59.81-1M305,48.53a18.85,18.85,0,0,0,3.5,1.57c.3,0-.79-.71-2.42-1.57A18.82,18.82,0,0,0,302.53,47c-.3,0,.8.71,2.43,1.57m18.33-1.46a29.58,29.58,0,0,0,3.24,2.72c1.78,1.38,3.23,2.33,3.21,2.11,0-.57-6.45-5.38-6.45-4.83m-113,2.51c-1.19.56-2,1-1.82,1.06.52.07,4.24-1.55,4.24-1.85s0-.36-2.42.79m-13.22,1.11c-1,.56-1.69,1-1.45,1.05.57,0,3.61-1.55,3.61-1.88s0-.34-2.16.83m112.72,0c1.87,1.27,2.94,1.64,1.62.56a5.13,5.13,0,0,0-1.89-1.1c-.29,0-.17.24.27.54M178.09,51.92a5.85,5.85,0,0,0-2,1.61c0,.22,1-.24,2.16-1a11.71,11.71,0,0,0,2.15-1.63c0-.29-.1-.25-2.28,1m25.57.21c-1.58.75-2.77,1.46-2.65,1.58a14,14,0,0,0,3.68-1.38c1.9-.88,3.1-1.59,2.65-1.57a16.15,16.15,0,0,0-3.68,1.37m111-.76c0,.41,4.39,3.74,4.62,3.51s-.85-1-2.19-2a10.8,10.8,0,0,0-2.43-1.53M330.37,53c.13.07,2.89,2.68,6.13,5.8s5.42,5.06,4.84,4.32c-1.92-2.44-10-10.26-10.62-10.26-.33,0-.49.06-.35.14M171.06,57c-2.28,1.69-4.05,3.16-3.93,3.28s8.39-5.77,8.39-6.14-.39-.16-4.46,2.86m145-2.62c.28.24,3,2.17,6,4.28a109.43,109.43,0,0,1,9.85,8c2.41,2.27,4.39,4,4.39,3.77,0-.8-11-11.59-11.31-11.1-.19.3-2.19-.78-4.5-2.42-3.57-2.52-6.05-3.94-4.39-2.5M187,56.44c-1.27.76-2.21,1.5-2.07,1.64s4.65-2.5,4.65-2.88-.11-.25-2.58,1.24m6.62.51c-4.06,2.13-4.28,2.73-.26.74,3.78-1.88,4.22-2.15,3.45-2.15A17.15,17.15,0,0,0,193.58,57m-11.8,2.9c-2.56,1.94-3.1,2.5-1.68,1.72,1.24-.67,4.45-3.29,4.05-3.3a14.56,14.56,0,0,0-2.37,1.58m-20.65,5.24-5.7,5a2.73,2.73,0,0,0-1,1.32c0,.28,1.4-.81,3.11-2.42s4.43-4.07,6-5.47,2.8-2.56,2.6-2.56a50.06,50.06,0,0,0-5.11,4.16m22.75-2.89c-3.77,2.14-6.2,3.69-6.2,3.94s-.25.42,4.72-2.49a32.25,32.25,0,0,0,3.9-2.51c0-.3-.06-.27-2.42,1.06M175,64.75c-4.29,3.29-6.12,5-4.72,4.51.52-.19.94-.52.94-.73a19.13,19.13,0,0,1,3.5-2.94c3-2.18,4.6-3.65,4-3.55-.09,0-1.74,1.23-3.67,2.71m171,4.81c3.1,4,4.38,5.37,3.33,3.57s-5.86-7.86-6.25-7.87c-.23,0,1.08,1.93,2.92,4.3M175.44,67.44c-1.2,1-1.21,1.07-.09.53a4.34,4.34,0,0,0,1.52-1.11c.53-.85-.05-.62-1.43.58m-5.6,3.63c-5.2,3.58-5.73,3.79-3.08,1.22,3.34-3.25,2.8-3.24-.95,0-5.62,4.89-3.42,4.51,4.18-.72,3.44-2.37,4.32-3.1,3.76-3.1-.09,0-1.85,1.17-3.91,2.59m-21.59,6.36c-5.09,5.55-5,6,.09.74,2.29-2.36,4-4.41,3.91-4.55s-1.95,1.57-4,3.81m204.81,2.38c2.17,3.48,2.56,3.48.6,0a9.35,9.35,0,0,0-1.89-2.7c-.21,0,.37,1.22,1.29,2.7M142,84.28c-.48.65-1.9,2.53-3.15,4.16-2,2.64-2.06,2.73-.32.81,3.19-3.51,5.28-6.21,4.8-6.19-.25,0-.85.56-1.33,1.22m-8.72,11.31c-1.46,2-2.45,3.68-1.64,2.83,1-1,3.47-4.59,3.2-4.59a7.5,7.5,0,0,0-1.56,1.76m229.47,4.2c.31.91.67,1.55.79,1.43s-.75-3.07-1.11-3.07c-.14,0,0,.74.32,1.64m-234,2.27c-1.06,1.36-1.42,2.2-.78,1.8s1.92-2.48,1.52-2.48c-.12,0-.45.31-.74.68m235.53,2a7.91,7.91,0,0,0,.84,2.12c.51.51-.37-2.83-.9-3.4-.25-.28-.23.3.06,1.28m1.45,4.61a10.1,10.1,0,0,0,.77,2.43c.8,1.45.53-.61-.33-2.43l-.76-1.62.32,1.62m-242.79,3c-.47.89-.72,1.62-.57,1.62a4.67,4.67,0,0,0,1.1-1.62c.46-.89.72-1.62.57-1.62a4.53,4.53,0,0,0-1.1,1.62m-2.7,4.63A7.85,7.85,0,0,0,119,119c.13.12.9-1,1.71-2.47,1.84-3.39,1.46-3.56-.49-.23m247.6,1.12c.5,2.07.76,2.26.76.57a2.44,2.44,0,0,0-.56-1.75c-.37-.23-.44.18-.2,1.18m-250,3.38c-.68,1.28-.71,1.82-.08,1.43.47-.3,1.21-2.47.84-2.47-.11,0-.45.47-.76,1m-2.61,5.73a26.69,26.69,0,0,0-1.7,3.89c0,.22.88-1.27,1.92-3.3a17.35,17.35,0,0,0,1.7-3.89,13.67,13.67,0,0,0-1.92,3.3m254.31-1c.5,4.81,1.18,6.67.86,2.34a16.78,16.78,0,0,0-.72-4.5c-.22-.25-.29.73-.14,2.16m-257.14,7a3,3,0,0,0-.32,1.64c.12.13.48-.51.8-1.42.7-2,.28-2.21-.48-.22M371,150c0,8.68.16,15.06.34,14.19.46-2.11.46-27.13,0-28.73-.19-.68-.35,5.86-.35,14.54M110.86,136.5a4.24,4.24,0,0,0-.39,1.94c.11.12.48-.57.81-1.52a4.25,4.25,0,0,0,.39-1.94c-.11-.12-.48.57-.81,1.52m7.35,4.92c-2.86,7-3.62,9.53-3.17,10.74.38,1,.51.89,1-1.17a6.49,6.49,0,0,0,.29-2.85.63.63,0,0,1,.22-.84c.49-.33,3.43-8.82,3.15-9.12a17.94,17.94,0,0,0-1.52,3.24m-9.25-.08a6.35,6.35,0,0,0-.68,2.47c.13.12.63-.79,1.13-2a6.47,6.47,0,0,0,.67-2.48c-.12-.12-.63.79-1.12,2m-1.61,4.32c-.52,1.65-.87,3.72-.63,3.72s1.4-3.93,1.11-4.22c-.13-.14-.35.09-.48.5m37,3.59-3,5.48c-1,1.9-1.74,3.83-1.57,4.27s.08.66-.24.47-.84.27-1.18,1c-.44,1-.45,1.26,0,1s.49,0,.27.9-.13.86.47-.33c4.69-9.48,8.63-19.13,5.24-12.81m-38.87,2.88a9.6,9.6,0,0,0-.57,2.32c0,.33.39-.35.82-1.52a6.18,6.18,0,0,0,.56-2.32c-.11-.11-.48.57-.81,1.52m8.37,1.72c-.19.75-.5,1.79-.7,2.31-.26.67-.17.83.3.54s.59.1.38,1.66c-.17,1.23,0,.8.51-1.05s.62-3.46.33-4c-.39-.69-.54-.6-.82.52m-10,4a13.71,13.71,0,0,0-.53,3.15c0,.59.36-.26.76-1.89.82-3.39.64-4.39-.23-1.26m7.59,5.12a9.86,9.86,0,0,0-.42,3c.12.12.52-1,.88-2.53a9.19,9.19,0,0,0,.42-3c-.13-.13-.53,1-.88,2.54m1.36-.95a27.17,27.17,0,0,0-.58,4.2l-.29,3.41.78-4c.73-3.8.77-5.36.09-3.59m24,1.7c-.78,1.71-.78,2,0,1.56.41-.25.49,0,.25.91-.35,1.28-.35,1.28.46-.07,1-1.61,1.08-2.36.26-1.85q-.6.38-.24-.78c.51-1.58.06-1.44-.7.23M102,165.93a16.56,16.56,0,0,0-.56,3.14l-.3,2.7.74-3c.69-2.72.74-3.95.12-2.88m31.75,4.27a11.24,11.24,0,0,0-1.19,3.3c.12.12.86-1.17,1.63-2.86a11.25,11.25,0,0,0,1.19-3.31c-.12-.12-.85,1.17-1.63,2.87M110,169.34c-.8,4.14-.89,5.11-.4,4.31s1.38-5.93,1-5.93c-.15,0-.41.73-.58,1.62m25.35.58a6.48,6.48,0,0,0-.67,2.47c.12.13.63-.78,1.12-2a6.39,6.39,0,0,0,.68-2.47c-.13-.12-.63.79-1.13,2m-1.87,4.87a4.24,4.24,0,0,0-.39,1.94c.11.12.48-.57.81-1.52a4.47,4.47,0,0,0,.4-1.94c-.12-.12-.49.57-.82,1.52m-22.86.75a39.34,39.34,0,0,0-.31,5.93l.07,3.78.47-5.13c.5-5.53.37-8.07-.23-4.58m-10.31-.2c-.44,2.13-1,8.3-.68,8s1.49-8.75,1.19-9.05c-.13-.13-.36.33-.51,1m31,.27c-.36.78-.52,1.54-.37,1.69s.53-.4.84-1.22c.74-2,.37-2.32-.47-.47m253.69,1.69c.87,1,7.28,5,7.27,4.57,0-.22-.91-.93-2-1.59s-2.87-1.73-3.9-2.39-1.65-.92-1.35-.59M131.9,179.1a9.49,9.49,0,0,0-.57,2.32c0,.32.39-.36.81-1.52a6.07,6.07,0,0,0,.57-2.32c-.12-.11-.48.57-.81,1.52m-2.45,1.07a6.24,6.24,0,0,0-.67,2.47c.12.12.63-.79,1.12-2a6.09,6.09,0,0,0,.67-2.47c-.12-.13-.62.78-1.12,2m242.14,1.08a33.47,33.47,0,0,0,4.28,3.85c.59.33-.32-.73-2-2.36-2.9-2.76-4-4.25-2.42-3.38.49.28.52.21.09-.25a4,4,0,0,0-1.86-.88c-1-.2-.66.38,1.93,3m-263.39.29c0,1.22-.22,3-.38,4-.26,1.67-.24,1.71.29.5a11.11,11.11,0,0,0,.39-4.05c-.18-2.53-.2-2.56-.3-.49m264.17-1.71a4.67,4.67,0,0,0,1.62,1.1c.89.46,1.62.72,1.62.57a4.63,4.63,0,0,0-1.62-1.11c-.89-.46-1.62-.71-1.62-.56m-242.14,3.76a9.28,9.28,0,0,0-.57,2.37A11,11,0,0,1,128.6,189c-1.26,2.62-1.39,3.89-.16,1.62,1-1.93,2.92-7.93,2.58-8.27-.13-.13-.48.42-.79,1.22m262.68-1.14,2.66,1.94,2.42,1.77-2.16-1.93a10.29,10.29,0,0,0-2.65-1.94c-.27,0-.39.07-.27.16M127.61,185c-.32.91-.46,1.65-.32,1.65.36,0,1.38-2.8,1.11-3.07-.12-.12-.48.52-.79,1.42m-17.7,12.2c.36,12.28.24,13.15-1.81,13.88-.64.23-.62.3.13.33,2.3.11,2.61-1.76,2.26-14-.18-6.35-.46-11.66-.63-11.81s-.13,5.08,0,11.63m267.86-11.07c1.87,1.27,2.93,1.64,1.61.56a5.19,5.19,0,0,0-1.88-1.1c-.3,0-.18.24.27.54m20.49.18A23,23,0,0,0,401.5,189a16.86,16.86,0,0,0,3.23,2.22,22.58,22.58,0,0,0-3.23-2.76,17.31,17.31,0,0,0-3.24-2.22m-14,.47c.6.69,10.29,7.39,10,6.91a37.37,37.37,0,0,0-4.48-3.42c-4.12-2.88-6-4.09-5.51-3.49m-258.25,2c-.32.9-.46,1.64-.32,1.64.37,0,1.39-2.8,1.12-3.07s-.48.52-.8,1.43m-27.24,1.78a100.54,100.54,0,0,0,.09,16.58c.2,1.34.36-2.49.36-8.49,0-12.19,0-12-.45-8.09m28.08,2.93a10.89,10.89,0,0,0-.59,2.32l-.34,1.89.81-2.11c.73-1.88.8-3.26.12-2.1m281.41,1c3.84,3.92,12.67,12,10,9.15a108.05,108.05,0,0,0-10-9.47l-1.59-1.33,1.62,1.65m-301.08,2.09c0,1.19.12,1.61.25.94a6.23,6.23,0,0,0,0-2.16c-.14-.51-.25,0-.24,1.22m290-.55c0,.34,1.82,2,4.8,4.32.74.59,1.18.79,1,.45-.54-.87-5.77-5.2-5.77-4.77m-275,2.41c-.32.91-.46,1.65-.32,1.65.36,0,1.38-2.8,1.11-3.07-.12-.12-.48.52-.79,1.42m2.71,1c-.86,2.24-1.29,3.92-1,3.92s2-5,1.77-5.23c-.1-.11-.45.48-.77,1.31m271.71-1.3a9.93,9.93,0,0,0,2,1.75c1.09.83,1.81,1.24,1.6.9-.42-.69-3.58-3-3.58-2.65M120.57,202.3a4.45,4.45,0,0,0-.4,1.94c.12.11.49-.57.82-1.52a4.27,4.27,0,0,0,.39-1.95c-.11-.11-.48.57-.81,1.53M408.14,206c6.08,5.79,6.06,6.72,0,1.32-3.78-3.36-3.51-3,1.32,1.58,3.33,3.17,8.27,8.13,11,11s4.36,4.39,3.67,3.35c-2.14-3.19-7.55-9.18-8-8.89a.6.6,0,0,1-.79-.27c-.18-.3,0-.55.36-.55.77,0-9.45-10.52-11.11-11.43-.58-.32,1.06,1.43,3.64,3.88m-285.43.05a6.5,6.5,0,0,0-.44,2.43c.12.13.52-.77.89-2a6.47,6.47,0,0,0,.44-2.43c-.12-.12-.52.77-.89,2m-3.75.83c-.36.78-.53,1.54-.38,1.69s.54-.4.85-1.22c.74-1.94.37-2.32-.47-.47m302.49.56a10.1,10.1,0,0,0,2.28,2.63c1.25,1.17,1.8,1.53,1.21.79-1.82-2.32-3.49-4-3.49-3.42m-300.4,4a5.74,5.74,0,0,0-.34,2.53c.14.15.54-.75.88-2a5.91,5.91,0,0,0,.34-2.53c-.15-.15-.55.75-.88,2m-4.26,1.67a4.27,4.27,0,0,0-.39,1.95c.11.11.48-.57.81-1.53a4.45,4.45,0,0,0,.4-1.94c-.12-.11-.49.57-.82,1.52m297.65-.6c.32.6.48,1.08.37,1.08a5,5,0,0,1-1.18-1.08c-.54-.59-.7-1.07-.37-1.07s.86.48,1.18,1.07m14.34,3.78a38.38,38.38,0,0,0,3.38,3.91c.47.37-.48-1.07-2.1-3.21a22.45,22.45,0,0,0-3.39-3.91c-.24,0,.71,1.43,2.11,3.21M91.79,215c-2.09,1.13-1.86,1.52.27.44s2.39-1.3,1.71-1.27a8,8,0,0,0-2,.83M418,216.39l1.58,1.76-1.75-1.59a13.84,13.84,0,0,1-1.75-1.75c0-.42.44-.05,1.92,1.58m-298.55,1a6.37,6.37,0,0,0-.38,2.5c.13.13.5-.8.82-2.06a7.44,7.44,0,0,0,.38-2.5c-.12-.12-.49.81-.82,2.06m-4-.32c-.17.71-.48,1.74-.67,2.29s-.18.82.21.46c.59-.57,1.49-4.05,1-4.05-.15,0-.41.58-.59,1.3m-30.83,1.65c-.58.43-.8.79-.51.79a4,4,0,0,0,1.59-.79c.58-.44.8-.79.51-.79a3.81,3.81,0,0,0-1.59.79m33.25,4.59a22.94,22.94,0,0,0-.53,4.22c0,.8.39-.36.79-2.56.84-4.58.64-5.84-.26-1.66m-4.09-.39c-.2,1-.48,2.24-.64,2.83s-.11.89.24.54c.53-.55,1.42-5.13,1-5.13a4.18,4.18,0,0,0-.58,1.76m319.93-.51a64,64,0,0,0,4.83,6.84c.28,0,.1-.3-2.65-4.45a17.35,17.35,0,0,0-2.34-3.1c-.15,0-.08.32.16.71M74.87,224.44c-2.33,1.76-2.84,2.39-1,1.27,2.87-1.76,3.75-2.44,3.16-2.44a6.17,6.17,0,0,0-2.15,1.17m317.46,1.4a3.67,3.67,0,0,0,.94,2.1c.52.56.77.78.54.49-.75-1-.41-1.52.49-.78s.84.63.3-.38c-1-1.93-2.27-2.71-2.27-1.43M65.15,231.49c-5.91,4.6-8.82,7.19-8.82,7.84a12.84,12.84,0,0,0,2.56-2.1c1.41-1.31,4.93-4.16,7.82-6.36,4.83-3.65,5.65-4.36,5-4.36-.11,0-3.09,2.24-6.6,5m47.39-1.21c0,1,.11,1.46.25.94a4.26,4.26,0,0,0,0-1.88c-.14-.52-.25-.1-.25.94m282.85-.75c.27.7.17.82-.41.49s-.63-.3-.1.29c1.1,1.18,2.39,1.15,1.75-.05s-1.69-1.92-1.24-.73m-278.45,6.68c0,3.71.09,5.23.19,3.37s.11-4.88,0-6.74-.19-.33-.19,3.37m279.74-3.47c.34.42.86.62,1.14.45.63-.39.16-.92-.95-1.08-.65-.1-.69,0-.19.63m44.77,1.18c1.37,2.29,2.12,3.23,2.12,2.66s-2.66-4.68-3-4.68c-.17,0,.23.91.9,2M398,234c-.16.26.36,1.17,1.15,2a7.27,7.27,0,0,1,1.33,1.69c-.26.33,1.54,3.24,2.43,3.94s.95.71,0-.35a3.93,3.93,0,0,1-.94-1.71c0-.57-3.23-6.06-3.56-6.06-.08,0-.29.21-.45.47m-286,3c0,1.78.11,2.45.23,1.48a14,14,0,0,0,0-3.24c-.12-.81-.22,0-.22,1.76m332,1.08c.94,1.83,1.65,2.73,1.66,2.08a4.4,4.4,0,0,0-1.1-1.88c-.87-1-1-1-.56-.2M51.2,243.68c-1.46,1.29-3.75,3.86-3.44,3.86a18.79,18.79,0,0,0,2.63-2.43c2.39-2.43,2.84-3.22.81-1.43m66.17,1.16a15.32,15.32,0,0,0,.7,4c.92,2.8.93,1.94,0-2.43-.53-2.56-.73-3-.73-1.62M113,247.91c.12,1.4,1,2.59,1,1.42a2,2,0,0,0-.5-1.52c-.3-.18-.53-.14-.5.1m-67.83,2.22c-5.43,6.45-10.33,13.05-9.66,13.05a12.94,12.94,0,0,0,2-2.56,94.76,94.76,0,0,1,8-10c1-1.11,1.76-2.12,1.62-2.26s-1,.64-1.94,1.74m405-.7c.34.74.69,1.28.78,1.19.33-.33-.48-2.54-.92-2.54-.26,0-.19.61.14,1.35m-330.82,5.69c.26,3.61.2,3.89-.69,3.55s-.86-.24-.28.45a2.17,2.17,0,0,0,1.16.83c.6,0,.6-7,0-8-.27-.42-.35.92-.18,3.19m-4.73-2.32a3.89,3.89,0,0,0,.78,1.51c.75,1,.77,1,.47-.17s-1.25-2.23-1.25-1.34m338.52,2.7a3,3,0,0,0,.78,1.52c.74.45.56-.53-.31-1.69s-.77-1-.47.17m1.29,2.56a6.19,6.19,0,0,0,.77,1.89c.42.74.77,1.1.77.8a6.19,6.19,0,0,0-.77-1.89c-.42-.74-.77-1.1-.77-.8m-421,7.86c-1.58,2.5-2.49,4.68-1.22,2.92,1.46-2,3.22-5.12,2.92-5.12a8.31,8.31,0,0,0-1.7,2.2m423.77-.85c.34.74.68,1.28.77,1.19.33-.33-.48-2.54-.92-2.54-.26,0-.19.61.15,1.35m1,2.72a6.57,6.57,0,0,0,.84,1.86l.81,1.35-.35-1.35c-.37-1.4-1.33-2.79-1.3-1.86m2.22,5.64a6.15,6.15,0,0,0,.46,1.89c.29.67.47.78.47.26a5.8,5.8,0,0,0-.47-1.88c-.29-.68-.46-.78-.46-.27m1.82,6.47c.63,2.18,1.41,3.2,1,1.35a5.66,5.66,0,0,0-.88-2.16c-.35-.35-.39-.08-.13.81M25.06,281.75c-.8,2.1-.64,2.44.32.66.46-.84.7-1.66.53-1.82s-.54.36-.85,1.16m-1.57,4.14a4.51,4.51,0,0,0-.4,1.95c.12.11.49-.58.82-1.53a4.24,4.24,0,0,0,.39-1.94c-.11-.12-.48.57-.81,1.52m440.37,0c.6,3.1,1.27,4.27.92,1.6a8.4,8.4,0,0,0-.8-2.95c-.28-.31-.33.24-.12,1.35m-8.74,1.06a20.69,20.69,0,0,1,.34,3.24c0,1,.18,1.58.33,1.21s.5-.54.79-.36c.67.42,0-2.33-1-4.09l-.76-1.35.29,1.35M21.8,290.18a3.57,3.57,0,0,0-.42,2c.1.53.43.07.79-1.11.69-2.23.53-2.6-.37-.9M30,293.52l-1.67,5.26c-.86,2.59-1.16,4.65-.55,3.77.42-.59.49-.16.28,1.62s-.14,2.13.23,1.35a8.07,8.07,0,0,0,.55-2.7c.05-1.52.78-5,2.16-10.45,1-3.83.32-3.08-1,1.15m435.56-1.22c.6,3.28,1.25,4.83.9,2.16a12,12,0,0,0-.79-3.23c-.29-.51-.33-.09-.11,1.07m-7.81,4.05a11.63,11.63,0,0,0,.43,3l.43,1.34v-1.34a16,16,0,0,0-.42-3l-.42-1.62v1.62M20,296.29a5.62,5.62,0,0,0-.33,1.86c0,.59.21.45.55-.41a3.76,3.76,0,0,0,.34-1.86c-.11-.3-.35-.12-.56.41m436.31,2.22c.41,2.66.72,3.12.71,1a5.56,5.56,0,0,0-.52-2.38c-.36-.55-.41-.12-.19,1.35m-437.9,4.85a30.3,30.3,0,0,0-.6,3.51c-.28,2.36-.26,2.34.49-.54s.81-5.37.11-3m438.86,13.75c0,13.44,0,14.1.42,7,.24-4.3.24-11,0-14.84-.36-6-.42-4.95-.43,7.81m10.31-12.05c.5,2.75.77,3,.77.58a3.48,3.48,0,0,0-.57-2.3c-.39-.24-.45.31-.2,1.72m-8,4a25.65,25.65,0,0,0,.73,5.4c.53.95,0-6-.59-8.36-.25-1-.31.25-.14,3m-433.4-.73c-.74,3.72-.76,4.49-.08,3.43.35-.54.55,2.22.6,8.36,0,5,.23,9.9.43,10.79s.31-4.4.27-11.75c-.07-14.22-.24-15.69-1.22-10.83m442.31,2.08c0,1.19.12,1.61.24.94a5.78,5.78,0,0,0,0-2.16c-.13-.51-.24,0-.23,1.22m-451.75,3.1c-.45,1.66-.36,21.48.1,22.63.2.51.37-4.64.37-11.45s0-12.39-.08-12.39a6.58,6.58,0,0,0-.39,1.21m8.44,5c0,1.48.11,2,.23,1.21a9.75,9.75,0,0,0,0-2.7c-.13-.66-.23,0-.23,1.49m444,9.66c0,6.39.17,11.19.37,10.68.47-1.17.45-19.38,0-21-.19-.68-.35,4-.35,10.36m-8.14-.49c0,4.45.08,6.2.18,3.89s.11-6,0-8.09-.18-.25-.18,4.2M25.18,331.41c0,1.18.12,1.6.25.93a5.94,5.94,0,0,0,0-2.15c-.14-.52-.24,0-.24,1.22m2.62,2.32c-.11,1.37,1.14,8.47,1.63,9.27.32.53.37.05.15-1.35-.57-3.54-1.72-8.68-1.78-7.92M26,339.49c.52,4.14,1.22,5.85.87,2.16a16.35,16.35,0,0,0-.76-4c-.27-.47-.31.33-.11,1.88m434.14,3.88c-.51,2.65-1,9.08-.7,8.77s1.48-9.8,1.19-10.09c-.11-.11-.33.48-.49,1.32M18,344a2.92,2.92,0,0,0,.53,2c.33.21.4-.34.19-1.45-.46-2.38-.72-2.59-.72-.55m437.53.93c0,1.18.11,1.61.24.94a5.77,5.77,0,0,0,0-2.16c-.13-.52-.24,0-.23,1.22M30.2,346a6.66,6.66,0,0,0,.86,2.69c.58.59.12-1.86-.71-3.77-.31-.72-.36-.37-.15,1.08m-2.39,2.74a10.27,10.27,0,0,0,.81,2.88c.48.46-.37-4.46-.87-5-.23-.25-.21.7.06,2.11m440.11,1a25.12,25.12,0,0,1-.4,3c-.26,1.16-.21,1.21.31.39a5.79,5.79,0,0,0,.4-3c-.19-1.74-.23-1.79-.31-.4m-436.36.81a7.94,7.94,0,0,0,.77,2.43l.76,1.62L32.77,353c-.4-2-1.22-3.67-1.21-2.43m-11.86.81a4,4,0,0,0,.49,1.89c.7,1.07.7-.28,0-1.89l-.46-1.08,0,1.08m434.18,3.24c-.05.59-.21,1.68-.36,2.42l-.28,1.35.58-1.32a4.88,4.88,0,0,0,.36-2.43c-.22-1.07-.22-1.08-.3,0m-424.24.8c.63,2.18,1.4,3.21,1,1.35a5.53,5.53,0,0,0-.88-2.15c-.35-.36-.39-.08-.13.8m3.83.46c.42,1.7,2.82,7.09,3.15,7.09s-.28-1.59-2.07-5.39c-.77-1.63-1.26-2.39-1.08-1.7m424.39,2.24a6,6,0,0,0-.11,2.5c.15.15.44-.73.65-2a6.15,6.15,0,0,0,.1-2.5c-.14-.15-.44.74-.64,2M21.34,357a7.57,7.57,0,0,0,.72,2.43c1,2.08,1,1.11,0-1.35-.4-1-.73-1.52-.74-1.08m10.27,3.81c.31.9.67,1.54.8,1.42s-.75-3.07-1.12-3.07c-.14,0,0,.74.32,1.65M465.76,362a9.86,9.86,0,0,0-.42,3c.12.12.51-1,.88-2.53a9.19,9.19,0,0,0,.42-3c-.13-.13-.53,1-.88,2.54m-442.58.59a5.61,5.61,0,0,0,.86,1.74c.27.29.22-.25-.11-1.21-.68-2-1.31-2.41-.75-.53M452,363c-.45,2.25,0,2.69.47.48a4.07,4.07,0,0,0,.13-1.95c-.14-.14-.41.53-.6,1.47M33,364.58c.42,1.6,1.12,1.81.82.25-.14-.74-.44-1.33-.68-1.33s-.29.49-.14,1.08m4.17-.15c.43,1.41,3,6.08,3.32,6.08s-2.95-6.55-3.42-7c-.15-.15-.1.27.1.93m419.21,0a13.07,13.07,0,0,0-.56,2.6l-.31,2.16.77-2.39c.7-2.15.76-3.5.1-2.37M24.82,366.73c.4,1.5.66,1.91,1,1.57.13-.12-.13-.83-.56-1.57l-.79-1.35.36,1.35m439.54.95c-.19.81-.49,2-.66,2.56s-.12.89.23.54c.55-.56,1.45-4.59,1-4.59-.13,0-.39.67-.59,1.49m-10,3.67c-.57,1.5-.7,2.75-.24,2.29s1.3-3.67,1-3.67c-.13,0-.48.62-.77,1.38M26.7,370.78a6.07,6.07,0,0,0,.77,1.88c.43.75.78,1.11.78.81a5.91,5.91,0,0,0-.78-1.88c-.42-.75-.77-1.11-.77-.81m9.67.67a4,4,0,0,0,.78,1.52c.76,1,.78,1,.48-.18s-1.26-2.23-1.26-1.34m4.32.07a2.1,2.1,0,0,0,.81,1.14,2.24,2.24,0,0,1,.81,1.12c0,.58,3.21,5.36,3.6,5.36.16,0-.06-.55-.5-1.22s-1.58-2.48-2.53-4c-1.72-2.79-2.19-3.3-2.19-2.36m422.08,1.36c-.18.72-.48,1.75-.68,2.3s-.17.82.21.45c.59-.56,1.49-4,1.05-4-.14,0-.4.58-.58,1.29M452.49,376c-.56,1.81-.88,3.87-.56,3.55s1.33-4.22,1-4.22c-.13,0-.32.3-.44.67M40.42,378.6a4.72,4.72,0,0,0,1.1,1.61c.15,0-.1-.72-.56-1.61A4.63,4.63,0,0,0,39.85,377c-.15,0,.11.73.57,1.62m406.35.88a3,3,0,0,0-.32,1.64c.13.13.48-.51.8-1.42.7-2,.28-2.21-.48-.22m13.57.8c-.78,2.25-.41,2.62.48.47.38-.9.56-1.78.41-1.93s-.55.5-.89,1.46m-413.92.07c2.88,4.87,17.15,20.31,23.66,25.6l4.32,3.52a210.55,210.55,0,0,0,24.82,17.15c1.77,1,3.83,2.2,4.57,2.7a11.7,11.7,0,0,0,2.7,1.3c.74.21-.84-.88-3.51-2.43-23.35-13.54-41.62-28.76-53.53-44.59-2.64-3.5-4.13-5.1-3-3.25m404.24,1.24c-.9,2-.73,2.4.25.6.46-.84.73-1.63.61-1.76s-.51.4-.86,1.16m8,2.63c-.8,2.11-.64,2.44.32.67.46-.85.69-1.67.53-1.83s-.54.36-.85,1.16m-13.95.6c-.9,2-.73,2.41.25.6.45-.84.73-1.63.6-1.75s-.5.4-.85,1.15m4.24.48c-.8,2.11-.64,2.44.32.67.46-.85.7-1.67.53-1.83s-.54.36-.85,1.16M36.21,387.81A10.83,10.83,0,0,0,38,390.1c.42.35.08-.4-.75-1.66-1.74-2.65-2.43-3.09-1-.63m420.94.22c-.34.74-.41,1.35-.15,1.35.44,0,1.25-2.21.92-2.54-.09-.08-.43.45-.77,1.19m-10.47,2c-1.52,2.86-2.07,4.18-1.76,4.18A17,17,0,0,0,446.8,391c1.85-3.66,1.75-4.46-.12-.94m-398.49-.23a7,7,0,0,0,1.47,1.76c.58.47.45.09-.34-1-1.42-1.94-2-2.3-1.13-.77m-9.17,2c.83,1.61,2.72,3.86,2.72,3.24a8,8,0,0,0-1.64-2.43c-.9-1-1.39-1.4-1.08-.81m12.49,2.28c.72.81,2.87,3.06,4.77,5,2.65,2.7,2.41,2.36-1-1.47a54.3,54.3,0,0,0-4.76-5c-.17,0,.29.66,1,1.47m388,1.23c-.46.89-.72,1.61-.57,1.61a4.54,4.54,0,0,0,1.11-1.61c.46-.9.71-1.62.56-1.62a4.7,4.7,0,0,0-1.1,1.62m14,0c-.46.89-.71,1.61-.56,1.61a4.72,4.72,0,0,0,1.1-1.61c.46-.9.72-1.62.57-1.62a4.52,4.52,0,0,0-1.11,1.62m-10.87,2c-.88,1.41-2,3.23-2.57,4s-.86,1.49-.72,1.49S443,397.93,444,396c1.15-2.15.29-1.29-1.36,1.35m9.06,1.29c-.38.61-.57,1.22-.43,1.37s.55-.27.89-.91.54-1.26.43-1.37-.51.3-.89.91M45.31,399.74c.85,1.1,1.66,1.88,1.8,1.74s-.55-1.05-1.54-2l-1.8-1.74,1.54,2m391.45,0c-1.86,3.15-2,3.42-1,2.3,1.09-1.31,2-3,1.68-3-.14,0-.43.3-.65.67M51.2,406.05C57.33,412.46,67.11,421,67.11,420a32.39,32.39,0,0,0-3.37-2.85c-1.85-1.45-6.28-5.42-9.84-8.82s-4.77-4.4-2.7-2.23m395.24,1c-1.54,2.28-4,5.59-5.39,7.37s-2.14,2.88-1.58,2.44c1.78-1.42,10.41-13.3,10-13.73a21.11,21.11,0,0,0-3,3.92m-10.2-.31a116.27,116.27,0,0,1-9.26,10.6,15.35,15.35,0,0,0-2.64,3.11c.4.41,9.85-10.11,13.53-15.06,2.49-3.34,1.2-2.28-1.63,1.35m-372.36-.17c1.33,1.23,4.12,3.6,6.2,5.27,5.06,4.06,5.13,4.11,5.13,3.75a32.8,32.8,0,0,0-4.18-3.5,58.89,58.89,0,0,1-5.26-4.4,17.32,17.32,0,0,0-2.7-2.28c-1-.67-.72-.25.81,1.16m358.35,11.11c-4.17,4.25-6.72,7-5.66,6.18,2.65-2.13,14.25-14.16,13.47-14-.12,0-3.64,3.54-7.81,7.79M77.9,417.63a12.91,12.91,0,0,0,2.29,1.65l2.3,1.45-1.89-1.64c-1.7-1.47-2.7-2-2.7-1.46m354.34,6.44c-3.42,3.34-7.66,7.15-9.44,8.47s-3.36,2.54-3.5,2.7c-.51.55-8.9,5.74-12.05,7.46-26.41,14.35-65.93,16.41-94.47,4.93-7.5-3-13.75-5.39-14.19-5.39a6,6,0,0,1-2.12-1.32,9.28,9.28,0,0,0-3.14-1.68,8.27,8.27,0,0,1-2.94-1.58,9.2,9.2,0,0,0-2.28-1.53c-.76-.26-13.24-8.41-15.77-10.28-.42-.32-2,.39-4.64,2.09a110.69,110.69,0,0,1-13,7.46c-3.75,2-8.09,4.07-9.66,4.69s-3.9,1.6-5.16,2.18a13.91,13.91,0,0,1-2.89,1.05,4.09,4.09,0,0,0-1.51.52c-5.44,3.05-30.28,8.88-42.46,10-15.36,1.36-37.49,1.1-44.15-.53-.64-.15-3.34-.62-6-1a170,170,0,0,1-17.26-3.71L120,446.92c-11.81-3.3-30.3-11.74-40.53-18.51-5.59-3.7-5.74-3.78-4.62-2.51.94,1.07.91,1.09-1.89,1.42-11,1.32-30.35,6.56-39,10.57-23.42,10.85-1.61,22.63,57.44,31,21.17,3,43.73,5,81.71,7.3,49.16,2.94,141.34,2.16,187.42-1.6,15.75-1.29,20-1.65,25.08-2.15,103.37-10,128.27-30.26,54.32-44.15-10.11-1.9-9.77-1.47-5-6.31a42.81,42.81,0,0,0,3.75-4c-.14,0-3.05,2.75-6.46,6.09M69.06,421.84c2.4,1.8,2.86,2,1,.32A7.14,7.14,0,0,0,68,420.68c-.27,0,.22.51,1.07,1.16m352.09.85c-1.2,1.11-3,2.7-4,3.54-1.61,1.31-1.52,1.28.65-.19s6.43-5.39,5.82-5.37a18.61,18.61,0,0,0-2.43,2M89.76,425.18c.75.43,1.45.69,1.58.56.33-.33-.07-.59-1.57-1l-1.35-.36,1.34.79m3,1.67a3.81,3.81,0,0,0,1.59.79c.3,0,.07-.35-.51-.79a3.79,3.79,0,0,0-1.58-.79c-.3,0-.07.35.5.79M409,429.33,407.16,431l2-1.45c1.79-1.28,2.37-1.86,1.87-1.86a16.8,16.8,0,0,0-2,1.65m2.23.76c-4.25,3-4.79,3.52-1.83,1.84,2.21-1.25,6.1-4.22,5.55-4.24a35.17,35.17,0,0,0-3.72,2.4m-311,.58c1.16.86,2.15,1,1.69.31a3,3,0,0,0-1.51-.79c-1.18-.29-1.19-.28-.18.48m7.87.65c0,.46,9.68,5.18,10,4.87a28.37,28.37,0,0,0-4.9-2.74c-2.8-1.39-5.09-2.35-5.08-2.13m297,.44c-2,1.09-1.9,1.55.13.5a4.87,4.87,0,0,0,1.62-1.09c0-.35-.06-.33-1.75.59m-301.35.46c1.5.9,2.68,1.14,1.86.37a5.44,5.44,0,0,0-1.86-.83l-1.35-.35,1.35.81m126,2.88c-3.51,1.39-6.16,2.59-5.89,2.68a32.45,32.45,0,0,0,6-2c5.68-2.25,9.34-3,6.57-1.32l-1.35.81,1.35-.36c1.61-.43,4.32-1.76,4.32-2.13,0-1-5.46.16-11,2.32m174.93-.91c-.89.74-1,.92-.27.55,1.76-.91,2.74-1.66,2.16-1.65a5.13,5.13,0,0,0-1.89,1.1m-296.33-.1a5.63,5.63,0,0,0,1.86.83l1.35.35-1.35-.81c-1.5-.91-2.68-1.14-1.86-.37m4,1.6c1.31.78,3.58,1.35,3,.74a5.68,5.68,0,0,0-2.16-.87c-1.06-.23-1.34-.18-.81.13m120,.36c-1.35.65-1.4.73-.27.45,1.53-.37,3.25-1.25,2.43-1.23a8.6,8.6,0,0,0-2.16.78m168.78,0c-.58.43-.79.8-.48.81a3.67,3.67,0,0,0,1.62-.78c.57-.43.79-.8.47-.81a3.6,3.6,0,0,0-1.61.78m-282,.9c.27.44-.08.52-1.18.29l-1.57-.32,1.62.73c1,.44,1.75.53,1.93.23s.88-.3,1.79,0,1.32.8,1.14,1.1c-.31.5,0,.6,2.51.76a2.38,2.38,0,0,1,1.3.45,3.14,3.14,0,0,0,1.8.38c1.26,0,1.21-.08-.49-.72-1-.38-3.4-1.34-5.24-2.13-3.77-1.61-4.16-1.7-3.61-.82M228,437.4c-1.81.73-1.47,1.09.4.44a4.38,4.38,0,0,0,1.62-.78c0-.32-.65-.21-2,.34m170,.23c-1,.75-1,.77.18.47a3,3,0,0,0,1.51-.78c.46-.74-.53-.56-1.69.31m-177.6.91c-1,.29-1.71.62-1.59.75s4.21-.78,4.21-1.12-.43-.26-2.62.37m172.24.19-1.62.77,1.62-.3c1.24-.22,1.43-.15.81.29-1,.72,0,.76,1.07.05.59-.38.62-.52.11-.53s-.56-.25-.37-.55c.41-.67.36-.66-1.62.27m-171.24.81c-1.07.69.28.69,1.89,0l1.08-.46-1.08,0a3.85,3.85,0,0,0-1.89.49m-7.55,1.12c-1.63.56-2.28.89-1.44.74q1.53-.28,1.17.3c-.24.39.13.46,1.17.21,2.36-.58,3.82-1.22,2.88-1.27-.72,0-.72-.09,0-.56,1.31-.85-.34-.6-3.78.58m174,.2c-.43.43-.88.74-1,.68s-.07.07.1.3,1.11.13,2.08-.21c1.29-.45,1.58-.74,1-1.07-1-.64-1.34-.6-2.24.3m-181.32,1.57c-1.28.39-1.9.81-1.53,1,.85.53,6.2-.65,5.82-1.28s-1.61-.57-4.29.24m176.5-.11c-1.7.62-2,1.77-.41,1.3l2.17-.61c.59-.17.94-.54.77-.81-.36-.6-.59-.58-2.53.12m-182.57,1.39c-1,.12-1.75.41-1.75.64,0,.48,4.14-.14,4.7-.7.18-.18,0-.3-.43-.25s-1.55.18-2.52.31m177.85.15-1.35.43,1.48,0c.82,0,1.48-.19,1.48-.48s-.06-.52-.13-.49l-1.48.49M194,445.31a4.63,4.63,0,0,0,1.89,0c.52-.14.09-.25-.95-.25s-1.46.11-.94.25"/><path id="path6" class="cls-6" d="M316.39,166.71c-4.26,1.23-1,8.52,8.77,19.74,2.38,2.73,6,7,8.11,9.57s4.16,5,4.62,5.54c1.62,1.83,7.88,10.16,10.83,14.43l5.5,7.95a45.11,45.11,0,0,1,2.51,3.87c0,.13,1.22,2.07,2.7,4.31s2.7,4.17,2.7,4.3,3.62,6.64,5.93,10.58a171.55,171.55,0,0,1,7.28,15.64c.51,1.34,1.23,3.16,1.6,4.05,2,4.69,1.4,6.78-.78,2.83-6.17-11.19-25.3-36.45-40.33-53.26-20.66-23.11-34.06-33.53-47.11-36.66-9.2-2.21-11.89-.7-9.3,5.23,2.25,5.16,3.39,7,6.66,10.62,5.17,5.77,8.73,9.89,11.67,13.52,1.44,1.78,3.07,3.72,3.61,4.32,1.8,2,13.59,17.72,16.58,22.15,3.81,5.66,4.35,6.51,8.21,12.91a8,8,0,0,0,1,1.35,29.23,29.23,0,0,1,1.94,3.23c.89,1.64,2.11,3.82,2.7,4.86,1.45,2.56,6.35,12.23,7.38,14.56,1.73,3.91,7.35,19.76,7.35,20.72s-2.61-1.93-2.92-3.2c-2.21-8.77-28.16-43.57-49.28-66.06L284,212.88c-5.93-6.4-16.44-11-20-8.77-1,.59-.6,7.85.53,11.07a23.38,23.38,0,0,1,1.06,3.68c0,1.07,8.38,17.51,9.91,19.51a19.81,19.81,0,0,1,1.3,2l1.35,2.43a8.74,8.74,0,0,0,1,1.48c.37.34,9.66,16.12,11.44,19.42.71,1.33,2.1,3.88,3.08,5.66s2.78,5.18,4,7.55a33.28,33.28,0,0,0,3.19,5.28c.53.53.82,1.2.64,1.48a2.94,2.94,0,0,0,.5,2c1.05,1.9,3.58,7.52,5.41,12,.79,1.93,1.66,4,1.93,4.58s.88,2.17,1.33,3.51,2.08,6.06,3.6,10.51c3.08,9,4.08,12.78,4.86,18.34.29,2.08.9,5.53,1.36,7.68,1.9,8.93-2.79,17.46-13.45,24.42l-3.65,2.38,1.91,1.16c8.29,5,9.32,14.07,2.73,24.12-2.3,3.51-9.69,11.16-10.78,11.16a29.4,29.4,0,0,0-3.11,1.91,69.09,69.09,0,0,1-6.92,3.83c-5.53,2.62-5.9,2.77-8.36,3.41-5,1.3-4.6,2.15,3.86,7.86,3.51,2.36,6.51,4.42,6.66,4.57a78,78,0,0,0,7.82,4.16c2.07,1,4.14,2.1,4.58,2.36,4.78,2.79,15.66,7,23.19,8.95,25.38,6.62,46,5.51,66.88-3.57C415,428.93,436.11,407,445.4,383.18c.81-2.07,1.79-4.5,2.18-5.39,8.55-19.6,12-58,7.85-88.45a76.32,76.32,0,0,0-4.58-17.8c-.37-.89-1.35-3.32-2.16-5.39-3.49-8.92-12.33-25.45-17.45-32.63-.95-1.34-2.14-3-2.64-3.78-10-15-37.68-37.72-56.9-46.78-3.34-1.57-3.38-1.68,2.47,6,9.33,12.2,14.7,20.34,24.07,36.51,4.55,7.84,11.72,24.48,11.22,26-.24.71-.5.34-4.14-5.79-2.88-4.84-9.84-14.93-13.4-19.41l-4.51-5.68c-6.06-7.64-20.76-24.49-27.26-31.27-2.43-2.52-5-5.21-5.67-6-9.81-10.94-28.89-19.25-38.09-16.6"/></svg>